<?xml version="1.0" standalone="no"?>
<!DOCTYPE svg PUBLIC "-//W3C//DTD SVG 1.1//EN" "http://www.w3.org/Graphics/SVG/1.1/DTD/svg11.dtd" >
<svg>
<metadata>
Created by FontForge 20090622 at Mon Mar 27 15:24:42 2017
 By deploy user
Copyright (c) Mark Simonson, 2005. All rights reserved.
</metadata>
<defs>
<font id="ProximaNovaCond-SemiboldIt" horiz-adv-x="467" >
  <font-face 
    font-family="Proxima Nova Cn Lt"
    font-weight="600"
    font-style="italic"
    font-stretch="normal"
    units-per-em="1000"
    panose-1="2 0 5 6 3 0 0 2 0 4"
    ascent="790"
    descent="-210"
    x-height="483"
    cap-height="667"
    bbox="-190 -274 969 886"
    underline-thickness="20"
    underline-position="-113"
    unicode-range="U+000D-U+FB04"
  />
<missing-glyph horiz-adv-x="479" 
d="M435 -90h-351v842h351v-842zM403 -60v782h-288v-782h288z" />
    <glyph glyph-name="f_f_j" unicode="ffj" horiz-adv-x="765" 
d="M399 0h-100l88 396h-63l19 87h63l10 45q32 149 152 149q47 0 81 -19l-35 -75q-14 10 -35 10q-49 0 -64 -65l-9 -45h80l-19 -87h-80zM489 -196q-67 0 -98 35l43 72q16 -23 45 -23q48 0 63 71l117 524h100l-117 -524q-18 -79 -53.5 -117t-99.5 -38zM728 544q-24 0 -40 15.5
t-16 38.5q0 32 22 51.5t48 19.5q24 0 40.5 -16t16.5 -38q0 -32 -22.5 -51.5t-48.5 -19.5zM125 0h-99l87 397h-63l20 86h62l10 45q32 149 154 149q67 0 102 -37l-48 -67q-17 20 -45 20q-49 0 -64 -65l-9 -45h81l-20 -86h-80z" />
    <glyph glyph-name="f_j" unicode="fj" horiz-adv-x="491" 
d="M125 0h-100l88 396h-63l19 87h63l10 45q32 149 152 149q47 0 81 -19l-35 -75q-14 10 -35 10q-49 0 -64 -65l-9 -45h80l-19 -87h-80zM216 -196q-67 0 -98 35l43 72q16 -23 45 -23q48 0 63 71l117 524h100l-117 -524q-18 -79 -53.5 -117t-99.5 -38zM455 544q-24 0 -40 15.5
t-16 38.5q0 32 22 51.5t48 19.5q24 0 40.5 -16t16.5 -38q0 -32 -22.5 -51.5t-48.5 -19.5z" />
    <glyph glyph-name="f_f" unicode="ff" horiz-adv-x="547" 
d="M125 0h-99l87 397h-63l20 86h62l10 45q32 149 154 149q67 0 102 -37l-48 -67q-17 20 -45 20q-49 0 -64 -65l-9 -45h81l-20 -86h-80zM399 0h-99l87 397h-63l20 86h62l10 45q32 149 154 149q67 0 102 -37l-48 -67q-17 20 -45 20q-49 0 -64 -65l-9 -45h81l-20 -86h-80z" />
    <glyph glyph-name="fi" unicode="fi" horiz-adv-x="491" 
d="M125 0h-100l88 396h-63l19 87h63l10 45q32 149 152 149q47 0 81 -19l-35 -75q-14 10 -35 10q-49 0 -64 -65l-9 -45h80l-19 -87h-80zM455 544q-24 0 -40 15.5t-16 38.5q0 32 22 51.5t48 19.5q24 0 40.5 -16t16.5 -38q0 -32 -22.5 -51.5t-48.5 -19.5zM379 0h-100l107 483
h100z" />
    <glyph glyph-name="fl" unicode="fl" horiz-adv-x="491" 
d="M125 0h-100l88 396h-63l19 87h63l10 45q32 149 152 149q47 0 81 -19l-35 -75q-14 10 -35 10q-49 0 -64 -65l-9 -45h80l-19 -87h-80zM379 0h-100l147 667h100z" />
    <glyph glyph-name="f_f_i" unicode="ffi" horiz-adv-x="765" 
d="M399 0h-100l88 396h-63l19 87h63l10 45q32 149 152 149q47 0 81 -19l-35 -75q-14 10 -35 10q-49 0 -64 -65l-9 -45h80l-19 -87h-80zM728 544q-24 0 -40 15.5t-16 38.5q0 32 22 51.5t48 19.5q24 0 40.5 -16t16.5 -38q0 -32 -22.5 -51.5t-48.5 -19.5zM652 0h-100l107 483
h100zM125 0h-99l87 397h-63l20 86h62l10 45q32 149 154 149q67 0 102 -37l-48 -67q-17 20 -45 20q-49 0 -64 -65l-9 -45h81l-20 -86h-80z" />
    <glyph glyph-name="f_f_l" unicode="ffl" horiz-adv-x="765" 
d="M399 0h-100l88 396h-63l19 87h63l10 45q32 149 152 149q47 0 81 -19l-35 -75q-14 10 -35 10q-49 0 -64 -65l-9 -45h80l-19 -87h-80zM652 0h-100l147 667h100zM125 0h-99l87 397h-63l20 86h62l10 45q32 149 154 149q67 0 102 -37l-48 -67q-17 20 -45 20q-49 0 -64 -65
l-9 -45h81l-20 -86h-80z" />
    <glyph glyph-name="f_b" unicode="fb" horiz-adv-x="767" 
d="M125 0h-100l88 396h-63l19 87h63l10 45q32 149 152 149q47 0 81 -19l-35 -75q-14 10 -35 10q-49 0 -64 -65l-9 -45h80l-19 -87h-80zM519 -12q-90 0 -126 79l-14 -67h-99l146 667h100l-55 -246q53 74 127 74q67 0 105.5 -45.5t38.5 -128.5q0 -73 -24.5 -147.5t-77.5 -130
t-121 -55.5zM502 76q40 0 72.5 39.5t48 91t15.5 98.5q0 48 -23 75t-62 27q-28 0 -55 -19.5t-45 -48.5l-43 -196q10 -29 35 -48t57 -19z" />
    <glyph glyph-name="f_h" unicode="fh" horiz-adv-x="758" 
d="M125 0h-100l88 396h-63l19 87h63l10 45q32 149 152 149q47 0 81 -19l-35 -75q-14 10 -35 10q-49 0 -64 -65l-9 -45h80l-19 -87h-80zM646 0h-99l72 329q4 12 4 26q0 52 -62 52q-55 0 -108 -69l-74 -338h-100l147 667h100l-55 -248q68 76 143 76q54 0 85 -27t31 -73
q0 -10 -5 -35z" />
    <glyph glyph-name="f_k" unicode="fk" horiz-adv-x="729" 
d="M125 0h-100l88 396h-63l19 87h63l10 45q32 149 152 149q47 0 81 -19l-35 -75q-14 10 -35 10q-49 0 -64 -65l-9 -45h80l-19 -87h-80zM668 0h-114l-71 205l-78 -81l-26 -124h-100l147 667h100l-92 -415l218 231h120l-208 -217z" />
    <glyph glyph-name=".notdef" horiz-adv-x="479" 
d="M435 -90h-351v842h351v-842zM403 -60v782h-288v-782h288z" />
    <glyph glyph-name=".null" horiz-adv-x="0" 
 />
    <glyph glyph-name=".null" horiz-adv-x="0" 
 />
    <glyph glyph-name="nonmarkingreturn" horiz-adv-x="333" 
 />
    <glyph glyph-name="CR" unicode="&#xd;" horiz-adv-x="0" 
 />
    <glyph glyph-name="space" unicode=" " horiz-adv-x="212" 
 />
    <glyph glyph-name="exclam" unicode="!" horiz-adv-x="242" 
d="M154 201h-85l85 466h121zM73 -11q-25 0 -43 18t-18 44q0 30 22 51.5t52 21.5q25 0 43 -18t18 -44q0 -30 -22 -51.5t-52 -21.5z" />
    <glyph glyph-name="quotedbl" unicode="&#x22;" horiz-adv-x="373" 
d="M160 395h-45l15 215q1 29 19.5 48t45.5 19q21 0 35.5 -14.5t14.5 -36.5q0 -12 -6 -27zM324 395h-46l15 215q1 29 19.5 48t45.5 19q20 0 35 -14.5t15 -36.5q0 -12 -6 -27z" />
    <glyph glyph-name="numbersign" unicode="#" horiz-adv-x="524" 
d="M231 0h-76l89 176h-84l-88 -176h-77l89 176h-82l33 66h83l92 183h-83l31 65h85l89 177h76l-89 -177h84l88 177h76l-89 -177h83l-31 -65h-84l-94 -183h87l-33 -66h-87zM276 242l93 183h-83l-92 -183h82z" />
    <glyph glyph-name="dollar" unicode="$" horiz-adv-x="487" 
d="M136 -100l21 94q-52 10 -94.5 34.5t-65.5 57.5l69 81q40 -58 113 -75l45 206q-40 24 -63.5 42.5t-45 53.5t-21.5 77q0 83 61 143.5t154 63.5l20 90h77l-22 -98q84 -21 130 -76l-66 -80q-32 41 -86 57l-43 -189q39 -24 63 -43.5t45 -54.5t21 -76q0 -89 -59.5 -152.5
t-156.5 -67.5l-19 -88h-77zM331 189q0 35 -40 65l-36 -164q36 9 56 36t20 63zM211 490q0 -32 42 -64l34 152q-33 -7 -54.5 -32t-21.5 -56z" />
    <glyph glyph-name="percent" unicode="%" horiz-adv-x="663" 
d="M131 0h-56l498 667h57zM454 -12q-59 0 -96 36.5t-37 93.5q0 85 50 143t117 58q58 0 95.5 -37t37.5 -93q0 -85 -50.5 -143t-116.5 -58zM457 52q36 0 63.5 38t27.5 92q0 34 -17 53.5t-46 19.5q-36 0 -64 -38t-28 -92q0 -34 17.5 -53.5t46.5 -19.5zM214 347
q-59 0 -95.5 36.5t-36.5 93.5q0 85 49.5 142.5t116.5 57.5q59 0 95.5 -36.5t36.5 -93.5q0 -85 -49.5 -142.5t-116.5 -57.5zM217 410q36 0 64 38t28 93q0 33 -17.5 52.5t-46.5 19.5q-36 0 -64 -37.5t-28 -92.5q0 -34 17.5 -53.5t46.5 -19.5z" />
    <glyph glyph-name="ampersand" unicode="&#x26;" horiz-adv-x="535" 
d="M459 0h-111l-24 42q-74 -54 -147 -54q-75 0 -121.5 39.5t-46.5 114.5q0 88 45.5 141t124.5 95q-14 56 -14 102q0 81 51.5 139t121.5 58q58 0 95.5 -31.5t37.5 -89.5q0 -40 -14 -72t-45.5 -57.5t-54.5 -39.5t-69 -38q20 -50 32 -76q16 -40 37 -85q43 58 79 131l73 -43
q-57 -103 -113 -166q27 -51 63 -110zM195 68q42 0 92 43q-35 68 -48 100l-36 90q-88 -59 -88 -146q0 -40 22.5 -63.5t57.5 -23.5zM261 478q0 -27 6 -57q56 29 85 58t29 72q0 52 -45 52q-29 0 -52 -37t-23 -88z" />
    <glyph glyph-name="quotesingle" unicode="'" horiz-adv-x="211" 
d="M160 395h-45l15 215q1 29 19.5 48t45.5 19q21 0 35.5 -14.5t14.5 -36.5q0 -12 -6 -27z" />
    <glyph glyph-name="parenleft" unicode="(" horiz-adv-x="257" 
d="M149 -166l-74 -33q-52 110 -52 262q0 170 64.5 329t181.5 293l58 -45q-94 -137 -147.5 -297.5t-53.5 -321.5q0 -88 23 -187z" />
    <glyph glyph-name="parenright" unicode=")" horiz-adv-x="257" 
d="M107 652l74 33q52 -113 52 -261q0 -170 -64.5 -329t-182.5 -294l-57 45q94 137 147.5 297.5t53.5 321.5q0 88 -23 187z" />
    <glyph glyph-name="asterisk" unicode="*" horiz-adv-x="330" 
d="M221 379h-54l31 115l-109 -49l-15 48l110 40l-87 61l36 42l81 -69l19 110h55l-32 -115l108 49l16 -48l-110 -40l88 -61l-38 -42l-80 69z" />
    <glyph glyph-name="plus" unicode="+" horiz-adv-x="442" 
d="M426 305h-156l-40 -178h-71l40 178h-156l14 65h156l38 171h71l-38 -171h156z" />
    <glyph glyph-name="comma" unicode="," horiz-adv-x="242" 
d="M150 55q0 -51 -37.5 -102t-92.5 -79l-38 40q29 14 55 37t36 47q-2 -1 -10 -1q-21 0 -36 15t-15 40q0 29 22.5 50.5t50.5 21.5t46.5 -18.5t18.5 -50.5z" />
    <glyph glyph-name="hyphen" unicode="-" horiz-adv-x="269" 
d="M229 199h-209l19 86h209z" />
    <glyph glyph-name="period" unicode="." horiz-adv-x="242" 
d="M73 -11q-25 0 -43 18t-18 44q0 30 22 51.5t52 21.5q25 0 43 -18t18 -44q0 -30 -22 -51.5t-52 -21.5z" />
    <glyph glyph-name="slash" unicode="/" horiz-adv-x="266" 
d="M16 -20h-76l349 707h76z" />
    <glyph glyph-name="zero" unicode="0" horiz-adv-x="526" 
d="M230 -12q-86 0 -136.5 60.5t-50.5 171.5q0 107 35.5 211t104.5 175t152 71q87 0 137 -60t50 -171q0 -108 -35.5 -212t-104.5 -175t-152 -71zM241 87q49 0 90.5 67.5t61 151t19.5 152.5q0 121 -88 121q-49 0 -90.5 -67.5t-61 -151t-19.5 -152.5q0 -121 88 -121z" />
    <glyph glyph-name="one" unicode="1" horiz-adv-x="352" 
d="M234 0h-110l115 523l-125 -107l-50 68l221 183h96z" />
    <glyph glyph-name="two" unicode="2" horiz-adv-x="507" 
d="M404 0h-410l24 108l76 62l93.5 76.5l73 62t62 57.5t39.5 46.5t28 46.5t7 41q0 36 -27 57.5t-71 21.5q-80 0 -138 -64l-54 75q84 87 201 87q88 0 146.5 -44t58.5 -123q0 -46 -20 -90.5t-70.5 -99t-100 -99t-145.5 -123.5h248z" />
    <glyph glyph-name="three" unicode="3" horiz-adv-x="496" 
d="M221 -12q-78 0 -141.5 36.5t-88.5 100.5l83 60q20 -47 59.5 -72.5t86.5 -25.5q54 0 85.5 38t31.5 89q0 37 -26.5 57.5t-75.5 20.5q-44 0 -54 -2l22 100q9 -1 71 -1q53 0 86 32t33 81q0 36 -28.5 56.5t-77.5 20.5q-74 0 -132 -61l-51 71q81 88 196 88q93 0 150 -41
t57 -115q0 -68 -48.5 -120t-113.5 -62q47 -14 74 -50t27 -86q0 -88 -65 -151.5t-160 -63.5z" />
    <glyph glyph-name="four" unicode="4" horiz-adv-x="492" 
d="M346 0h-110l33 155h-268l23 102l321 410h148l-92 -415h70l-21 -97h-70zM290 252l67 299l-233 -299h166z" />
    <glyph glyph-name="five" unicode="5" horiz-adv-x="512" 
d="M231 -12q-158 0 -219 132l85 61q35 -94 136 -94q53 0 89.5 47t36.5 109q0 42 -26.5 65.5t-72.5 23.5q-58 0 -108 -47l-74 31l78 351h374l-21 -97h-264l-42 -192q47 45 116 45q68 0 112 -44.5t44 -122.5q0 -108 -69 -188t-175 -80z" />
    <glyph glyph-name="six" unicode="6" horiz-adv-x="511" 
d="M239 -12q-97 0 -148.5 59.5t-51.5 164.5q0 69 19.5 146.5t56 150.5t99 120.5t139.5 47.5q59 0 105 -25t71 -70l-73 -74q-31 71 -110 71q-63 0 -107.5 -62.5t-67.5 -149.5q-4 -11 -6 -24q26 35 66.5 58t84.5 23q71 0 116 -43t45 -118q0 -106 -68 -190.5t-170 -84.5z
M241 87q52 0 86.5 52t34.5 108q0 39 -26 62.5t-70 23.5q-61 0 -115 -75q-5 -23 -5 -60q0 -52 25 -81.5t70 -29.5z" />
    <glyph glyph-name="seven" unicode="7" horiz-adv-x="448" 
d="M165 0h-124l328 570h-274l21 97h404l-17 -76z" />
    <glyph glyph-name="eight" unicode="8" horiz-adv-x="507" 
d="M229 -12q-97 0 -155.5 39.5t-58.5 119.5q0 69 45.5 125t128.5 82q-38 19 -63.5 55.5t-25.5 79.5q0 83 66.5 135.5t153.5 52.5q84 0 144 -39t60 -115q0 -71 -46 -121t-117 -67q43 -24 69.5 -63.5t26.5 -85.5q0 -87 -66 -142.5t-162 -55.5zM285 384q53 9 87.5 39.5
t34.5 80.5q0 33 -26 53.5t-67 20.5q-43 0 -73.5 -30t-30.5 -75q0 -29 23 -53.5t52 -35.5zM231 87q45 0 80.5 32.5t35.5 81.5q0 37 -25.5 63t-55.5 36q-56 -9 -95.5 -44.5t-39.5 -87.5q0 -40 27.5 -60.5t72.5 -20.5z" />
    <glyph glyph-name="nine" unicode="9" horiz-adv-x="511" 
d="M311 678q97 0 148.5 -59.5t51.5 -163.5q0 -54 -11.5 -115t-37.5 -124t-61.5 -113t-88.5 -82t-115 -32q-59 0 -105 25.5t-71 69.5l73 74q29 -70 109 -70q44 0 81 33.5t58.5 78t36.5 99.5q5 17 6 24q-26 -34 -66.5 -57.5t-84.5 -23.5q-71 0 -116.5 43.5t-45.5 118.5
q0 105 68.5 189.5t170.5 84.5zM309 580q-53 0 -87.5 -52t-34.5 -109q0 -38 26 -62t70 -24q62 0 116 75q5 23 5 60q0 52 -25 82t-70 30z" />
    <glyph glyph-name="colon" unicode=":" horiz-adv-x="242" 
d="M74 -11q-26 0 -44 18t-18 44q0 30 22 51.5t52 21.5q25 0 43 -18t18 -44q0 -30 -22 -51.5t-51 -21.5zM154 356q-26 0 -43.5 18t-17.5 44q0 29 22 50.5t51 21.5q26 0 44 -18t18 -43q0 -30 -22 -51.5t-52 -21.5z" />
    <glyph glyph-name="semicolon" unicode=";" horiz-adv-x="242" 
d="M150 55q0 -51 -37.5 -102t-92.5 -79l-38 40q29 14 55 37t36 47q-2 -1 -10 -1q-21 0 -36 15t-15 40q0 29 22.5 50.5t50.5 21.5t46.5 -18.5t18.5 -50.5zM154 356q-26 0 -43.5 18t-17.5 44q0 29 22 50.5t51 21.5q26 0 44 -18t18 -43q0 -30 -22 -51.5t-52 -21.5z" />
    <glyph glyph-name="less" unicode="&#x3c;" horiz-adv-x="442" 
d="M385 124l-344 175l16 71l422 176l-18 -81l-336 -134l277 -133z" />
    <glyph glyph-name="equal" unicode="=" horiz-adv-x="442" 
d="M446 397h-383l14 65h383zM404 206h-384l15 65h383z" />
    <glyph glyph-name="greater" unicode="&#x3e;" horiz-adv-x="442" 
d="M424 299l-422 -175l18 81l337 132l-277 135l16 74l344 -176z" />
    <glyph glyph-name="question" unicode="?" horiz-adv-x="389" 
d="M236 224l-90 -30q-15 28 -15 66q0 40 19 71.5t46 52.5t54 40t46 42.5t19 51.5t-20.5 46t-56.5 18q-55 0 -98 -40l-40 75q71 61 161 61q74 0 122 -38t48 -96q0 -45 -21 -81.5t-51.5 -60l-60.5 -44.5t-51 -45.5t-21 -51.5q0 -23 10 -37zM146 -11q-25 0 -43 18t-18 44
q0 30 22 51.5t51 21.5q26 0 44 -18t18 -44q0 -30 -22 -51.5t-52 -21.5z" />
    <glyph glyph-name="at" unicode="@" horiz-adv-x="702" 
d="M330 -70q-123 0 -199 83.5t-76 216.5q0 162 111 285.5t258 123.5q116 0 189 -78t73 -199q0 -120 -53 -198.5t-120 -78.5q-38 0 -61 20.5t-27 52.5l-1 7q-55 -80 -130 -80q-55 0 -89.5 38t-34.5 108q0 104 62 186t147 82q72 0 99 -70l11 54h89l-55 -259q-2 -10 -2 -25
q0 -45 35 -45q30 0 60.5 56t30.5 151q0 110 -61.5 175.5t-164.5 65.5q-87 0 -163 -53t-120.5 -139t-44.5 -179q0 -116 66 -191t175 -75q83 0 164 56l19 -28q-90 -63 -187 -63zM330 157q58 0 105 73l29 137q-18 60 -69 60q-57 0 -94.5 -59.5t-37.5 -126.5q0 -38 17.5 -61
t49.5 -23z" />
    <glyph glyph-name="A" unicode="A" horiz-adv-x="536" 
d="M479 0h-115l-7 132h-220l-64 -132h-125l346 667h133zM355 230l-16 319l-157 -319h173z" />
    <glyph glyph-name="B" unicode="B" horiz-adv-x="540" 
d="M279 0h-269l147 667h225q75 0 118.5 -42t43.5 -106q0 -68 -41 -122t-102 -62q40 -11 62.5 -47.5t22.5 -80.5q0 -82 -53.5 -144.5t-153.5 -62.5zM206 389h122q48 0 73 34t25 76q0 32 -21 51.5t-54 19.5h-105zM267 98q48 0 77.5 34.5t29.5 83.5q0 36 -20.5 55.5t-57.5 19.5
h-111l-43 -193h125z" />
    <glyph glyph-name="C" unicode="C" horiz-adv-x="547" 
d="M281 -12q-107 0 -172.5 67t-65.5 182q0 109 39.5 209t116 166t171.5 66q89 0 143 -49t74 -126l-105 -29q-28 106 -119 106q-56 0 -104.5 -53t-75 -131t-26.5 -157q0 -72 34.5 -112t95.5 -40q70 0 127 79l86 -49q-85 -129 -219 -129z" />
    <glyph glyph-name="D" unicode="D" horiz-adv-x="583" 
d="M209 0h-199l147 667h195q90 0 155 -67.5t65 -180.5q0 -55 -11.5 -110.5t-39 -112t-68 -99.5t-103.5 -70t-141 -27zM142 98h86q72 0 126.5 51.5t79 122t24.5 143.5q0 71 -36 113t-91 42h-85z" />
    <glyph glyph-name="E" unicode="E" horiz-adv-x="472" 
d="M375 0h-365l147 667h365l-21 -97h-255l-40 -181h248l-22 -98h-247l-43 -193h254z" />
    <glyph glyph-name="F" unicode="F" horiz-adv-x="464" 
d="M121 0h-111l147 667h365l-21 -97h-255l-40 -181h248l-22 -98h-247z" />
    <glyph glyph-name="G" unicode="G" horiz-adv-x="576" 
d="M281 -12q-107 0 -172.5 67t-65.5 182q0 110 39 209.5t116.5 165.5t176.5 66q84 0 135.5 -45t70.5 -115l-98 -34q-12 43 -43.5 69.5t-76.5 26.5q-56 0 -104 -52t-75 -130t-27 -159q0 -72 34 -112t96 -40q60 0 112 54l26 117h-140l22 98h245l-57 -257q-88 -111 -214 -111z
" />
    <glyph glyph-name="H" unicode="H" horiz-adv-x="593" 
d="M476 0h-111l65 294h-245l-64 -294h-111l147 667h111l-61 -275h244l61 275h111z" />
    <glyph glyph-name="I" unicode="I" horiz-adv-x="239" 
d="M121 0h-111l147 667h111z" />
    <glyph glyph-name="J" unicode="J" horiz-adv-x="409" 
d="M122 -12q-103 0 -154 63l56 84q29 -48 90 -48q86 0 108 100l106 480h111l-107 -483q-22 -101 -73 -148.5t-137 -47.5z" />
    <glyph glyph-name="K" unicode="K" horiz-adv-x="535" 
d="M474 0h-124l-116 279l-70 -80l-43 -199h-111l147 667h111l-68 -309l268 309h137l-287 -315z" />
    <glyph glyph-name="L" unicode="L" horiz-adv-x="434" 
d="M352 0h-342l147 667h111l-126 -569h231z" />
    <glyph glyph-name="M" unicode="M" horiz-adv-x="713" 
d="M596 0h-110l105 480l-267 -480h-43l-54 480l-106 -480h-111l147 667h147l48 -426l238 426h153z" />
    <glyph glyph-name="N" unicode="N" horiz-adv-x="592" 
d="M474 0h-106l-148 452l-99 -452h-111l147 667h112l144 -438l97 438h111z" />
    <glyph glyph-name="O" unicode="O" horiz-adv-x="612" 
d="M281 -12q-108 0 -173 68.5t-65 180.5q0 106 38 205t114.5 167.5t174.5 68.5q107 0 172.5 -69t65.5 -180q0 -105 -38 -204.5t-115 -168t-174 -68.5zM287 87q57 0 105.5 52.5t74.5 130t26 156.5q0 71 -36 112.5t-94 41.5q-57 0 -105.5 -52.5t-74.5 -130.5t-26 -158
q0 -71 35.5 -111.5t94.5 -40.5z" />
    <glyph glyph-name="P" unicode="P" horiz-adv-x="513" 
d="M121 0h-111l147 667h208q79 0 126 -48t47 -123q0 -44 -14.5 -85.5t-42.5 -78t-77.5 -58.5t-112.5 -22h-115zM197 350h102q56 0 89.5 40.5t33.5 95.5q0 38 -21.5 61t-56.5 23h-98z" />
    <glyph glyph-name="Q" unicode="Q" horiz-adv-x="612" 
d="M281 -12q-108 0 -173 68.5t-65 180.5q0 106 38 205t114.5 167.5t174.5 68.5q107 0 172.5 -69t65.5 -180q0 -112 -45 -219t-123 -167l20 -49l-87 -30l-15 36q-36 -12 -77 -12zM287 87q16 0 34 5l-48 119l86 30l39 -96q43 49 69 126.5t26 154.5q0 71 -36 112.5t-94 41.5
q-57 0 -105.5 -52.5t-74.5 -130.5t-26 -158q0 -71 35.5 -111.5t94.5 -40.5z" />
    <glyph glyph-name="R" unicode="R" horiz-adv-x="533" 
d="M440 0h-119l-57 252h-88l-55 -252h-111l147 667h208q73 0 123.5 -48t50.5 -123q0 -87 -48.5 -151.5t-119.5 -79.5zM197 350h104q56 0 88.5 40t32.5 96q0 38 -23 61t-56 23h-97z" />
    <glyph glyph-name="S" unicode="S" horiz-adv-x="486" 
d="M217 -12q-71 0 -132 27t-92 71l69 81q25 -36 68.5 -58t91.5 -22t76.5 29.5t28.5 72.5q0 27 -24.5 51t-59.5 44.5t-69.5 44t-59 60t-24.5 82.5q0 85 63.5 146t158.5 61q59 0 112 -22.5t86 -61.5l-66 -80q-25 31 -63 48.5t-78 17.5q-41 0 -68.5 -27t-27.5 -63
q0 -25 24.5 -48.5t59.5 -44t69.5 -44.5t59 -61.5t24.5 -83.5q0 -92 -63 -156t-164 -64z" />
    <glyph glyph-name="T" unicode="T" horiz-adv-x="462" 
d="M232 0h-110l125 570h-152l21 97h416l-22 -97h-152z" />
    <glyph glyph-name="U" unicode="U" horiz-adv-x="592" 
d="M272 -12q-100 0 -158.5 52t-58.5 140q0 26 5 46l97 441h111l-98 -444q-3 -21 -3 -35q0 -46 29 -74t80 -28q56 0 88.5 34t47.5 103l98 444h111l-98 -443q-52 -236 -251 -236z" />
    <glyph glyph-name="V" unicode="V" horiz-adv-x="536" 
d="M280 0h-133l-52 667h116l27 -536l264 536h124z" />
    <glyph glyph-name="W" unicode="W" horiz-adv-x="745" 
d="M530 0h-116l11 479l-202 -479h-116l-4 667h117l-15 -498l214 498h89l-7 -498l206 498h121z" />
    <glyph glyph-name="X" unicode="X" horiz-adv-x="535" 
d="M479 0h-121l-87 249l-189 -249h-134l275 347l-116 320h121l77 -235l175 235h134l-260 -332z" />
    <glyph glyph-name="Y" unicode="Y" horiz-adv-x="521" 
d="M262 0h-110l61 278l-121 389h117l76 -285l202 285h128l-292 -389z" />
    <glyph glyph-name="Z" unicode="Z" horiz-adv-x="475" 
d="M383 0h-400l21 92l357 478h-251l21 97h392l-19 -90l-360 -479h261z" />
    <glyph glyph-name="bracketleft" unicode="[" horiz-adv-x="230" 
d="M115 -190h-172l193 868h172l-15 -69h-99l-162 -730h99z" />
    <glyph glyph-name="backslash" unicode="\" horiz-adv-x="266" 
d="M134 -20l-40 707h73l40 -707h-73z" />
    <glyph glyph-name="bracketright" unicode="]" horiz-adv-x="230" 
d="M93 -190h-172l15 69h99l162 730h-99l15 69h173z" />
    <glyph glyph-name="asciicircum" unicode="^" horiz-adv-x="386" 
d="M386 333h-72l-42 259l-155 -259h-79l211 334h74z" />
    <glyph glyph-name="underscore" unicode="_" horiz-adv-x="422" 
d="M346 -109h-427l16 69h427z" />
    <glyph glyph-name="grave" unicode="`" horiz-adv-x="202" 
d="M271 556h-68l-102 144h93z" />
    <glyph glyph-name="a" unicode="a" horiz-adv-x="494" 
d="M248 495q42 0 75.5 -20.5t50.5 -58.5l15 67h99l-107 -483h-100l14 62q-53 -74 -126 -74q-67 0 -105.5 45.5t-38.5 128.5q0 73 24.5 147.5t77.5 130t121 55.5zM266 407q-59 0 -98 -76t-39 -153q0 -48 23 -75t62 -27q28 0 55 19.5t44 48.5l44 196q-10 29 -35 48t-56 19z
" />
    <glyph glyph-name="b" unicode="b" horiz-adv-x="494" 
d="M245 -12q-90 0 -126 79l-14 -67h-99l146 667h100l-55 -246q53 74 127 74q67 0 105.5 -45.5t38.5 -128.5q0 -73 -24.5 -147.5t-77.5 -130t-121 -55.5zM228 76q40 0 72.5 39.5t48 91t15.5 98.5q0 48 -23 75t-62 27q-28 0 -55 -19.5t-45 -48.5l-43 -196q10 -29 35 -48
t57 -19z" />
    <glyph glyph-name="c" unicode="c" horiz-adv-x="415" 
d="M217 -12q-87 0 -138.5 52t-51.5 144q0 119 71 215t178 96q105 0 152 -71l-63 -65q-27 48 -85 48q-66 0 -108.5 -69t-42.5 -148q0 -56 28.5 -85t74.5 -29q49 0 85 41l39 -72q-59 -57 -139 -57z" />
    <glyph glyph-name="d" unicode="d" horiz-adv-x="494" 
d="M248 495q42 0 75.5 -20.5t50.5 -58.5l55 251h100l-148 -667h-100l14 62q-53 -74 -126 -74q-67 0 -105.5 45.5t-38.5 128.5q0 73 24.5 147.5t77.5 130t121 55.5zM266 407q-59 0 -98 -76t-39 -153q0 -48 23 -75t62 -27q28 0 55 19.5t44 48.5l44 196q-10 29 -35 48t-56 19z
" />
    <glyph glyph-name="e" unicode="e" horiz-adv-x="474" 
d="M226 -12q-93 0 -146 52t-53 144q0 69 28 139t86.5 121t131.5 51q81 0 128 -49.5t47 -136.5q0 -44 -14 -100h-307q-4 -15 -4 -35q0 -42 29.5 -73t85.5 -31q59 0 107 43l34 -65q-65 -60 -153 -60zM139 280h215q4 15 4 37q0 42 -24 69.5t-69 27.5q-48 0 -82.5 -41t-43.5 -93
z" />
    <glyph glyph-name="f" unicode="f" horiz-adv-x="274" 
d="M125 0h-99l87 397h-63l20 86h62l10 45q32 149 154 149q67 0 102 -37l-48 -67q-17 20 -45 20q-49 0 -64 -65l-9 -45h81l-20 -86h-80z" />
    <glyph glyph-name="g" unicode="g" horiz-adv-x="493" 
d="M162 -196q-126 0 -187 71l58 71q39 -58 127 -58q96 0 123 123l15 64q-51 -74 -129 -74q-64 0 -103.5 43t-39.5 127q0 72 23.5 144t76 126t121.5 54q38 0 74 -21.5t52 -57.5l15 67h99l-103 -466q-47 -213 -222 -213zM215 89q27 0 54.5 19t45.5 47l41 184q-11 30 -37 49
t-58 19q-39 0 -70.5 -36.5t-46.5 -86t-15 -95.5q0 -49 23 -74.5t63 -25.5z" />
    <glyph glyph-name="h" unicode="h" horiz-adv-x="485" 
d="M372 0h-99l72 329q4 12 4 26q0 52 -62 52q-55 0 -108 -69l-74 -338h-100l147 667h100l-55 -248q68 76 143 76q54 0 85 -27t31 -73q0 -10 -5 -35z" />
    <glyph glyph-name="i" unicode="i" horiz-adv-x="218" 
d="M181 544q-24 0 -40 15.5t-16 38.5q0 32 22 51.5t48 19.5q24 0 40.5 -16t16.5 -38q0 -32 -22.5 -51.5t-48.5 -19.5zM105 0h-100l107 483h100z" />
    <glyph glyph-name="j" unicode="j" horiz-adv-x="218" 
d="M-58 -196q-67 0 -98 35l43 72q16 -23 45 -23q48 0 63 71l117 524h100l-117 -524q-18 -79 -53.5 -117t-99.5 -38zM181 544q-24 0 -40 15.5t-16 38.5q0 32 22 51.5t48 19.5q24 0 40.5 -16t16.5 -38q0 -32 -22.5 -51.5t-48.5 -19.5z" />
    <glyph glyph-name="k" unicode="k" horiz-adv-x="456" 
d="M394 0h-114l-71 205l-78 -81l-26 -124h-100l147 667h100l-92 -415l218 231h120l-208 -217z" />
    <glyph glyph-name="l" unicode="l" horiz-adv-x="218" 
d="M105 0h-100l147 667h100z" />
    <glyph glyph-name="m" unicode="m" horiz-adv-x="722" 
d="M609 0h-100l73 332q4 16 4 26q0 23 -15 36t-39 13q-52 0 -101 -68l-74 -339h-100l74 332q3 24 3 29q0 21 -14.5 33.5t-40.5 12.5q-48 0 -100 -68l-74 -339h-100l107 483h100l-15 -64q59 76 135 76q48 0 77 -25.5t29 -51.5q0 -3 -1 -6q63 83 147 83q47 0 78 -26.5
t31 -72.5q0 -14 -5 -36z" />
    <glyph glyph-name="n" unicode="n" horiz-adv-x="485" 
d="M372 0h-100l73 329q4 14 4 26q0 52 -57 52q-59 0 -113 -68l-74 -339h-100l107 483h100l-15 -64q68 76 143 76q53 0 84.5 -27t31.5 -73q0 -15 -5 -35z" />
    <glyph glyph-name="o" unicode="o" horiz-adv-x="488" 
d="M214 -12q-89 0 -138.5 52t-49.5 141q0 117 69.5 215.5t176.5 98.5q89 0 138.5 -52t49.5 -141q0 -117 -69.5 -215.5t-176.5 -98.5zM218 76q40 0 73.5 38.5t50 89.5t16.5 97q0 52 -23.5 79t-66.5 27q-40 0 -73.5 -38.5t-50 -89.5t-16.5 -97q0 -52 23.5 -79t66.5 -27z" />
    <glyph glyph-name="p" unicode="p" horiz-adv-x="492" 
d="M245 -12q-90 0 -126 79l-55 -251h-100l148 667h100l-15 -62q53 74 127 74q67 0 105.5 -45.5t38.5 -128.5q0 -73 -24.5 -147.5t-77.5 -130t-121 -55.5zM228 76q40 0 72.5 39.5t48 91t15.5 98.5q0 48 -23 75t-62 27q-28 0 -55 -19.5t-45 -48.5l-43 -196q10 -29 35 -48
t57 -19z" />
    <glyph glyph-name="q" unicode="q" horiz-adv-x="492" 
d="M248 495q42 0 75.5 -20.5t50.5 -58.5l14 67h100l-148 -667h-100l55 246q-53 -74 -126 -74q-67 0 -105.5 45.5t-38.5 128.5q0 73 24.5 147.5t77.5 130t121 55.5zM266 407q-59 0 -98 -76t-39 -153q0 -48 23 -75t62 -27q28 0 55 19.5t44 48.5l44 196q-10 29 -35 48t-56 19z
" />
    <glyph glyph-name="r" unicode="r" horiz-adv-x="308" 
d="M105 0h-100l107 483h100l-15 -66q58 77 151 77l-23 -99q-12 4 -34 4q-64 0 -114 -69z" />
    <glyph glyph-name="s" unicode="s" horiz-adv-x="401" 
d="M169 -12q-57 0 -105.5 21t-76.5 57l58 67q18 -27 53.5 -46.5t75.5 -19.5q34 0 56 20t22 47q0 24 -30.5 45.5t-66.5 37t-66.5 47.5t-30.5 76q0 64 46.5 109.5t126.5 45.5q49 0 93.5 -19.5t70.5 -51.5l-53 -64q-14 23 -46.5 39.5t-66.5 16.5t-54 -16.5t-20 -42.5
q0 -18 20.5 -34t49.5 -30t57.5 -31t49 -45.5t20.5 -64.5q0 -68 -50.5 -116t-132.5 -48z" />
    <glyph glyph-name="t" unicode="t" horiz-adv-x="283" 
d="M158 -12q-114 0 -114 89q0 18 4 35l63 285h-63l19 86h64l29 132h99l-29 -132h81l-20 -86h-80l-59 -264q-3 -18 -3 -22q0 -35 38 -35q19 0 34 11l6 -79q-27 -20 -69 -20z" />
    <glyph glyph-name="u" unicode="u" horiz-adv-x="485" 
d="M112 483h100l-73 -328q-4 -18 -4 -27q0 -52 62 -52q55 0 107 68l75 339h100l-107 -483h-100l15 64q-68 -76 -143 -76q-53 0 -84.5 27t-31.5 73q0 15 5 35z" />
    <glyph glyph-name="v" unicode="v" horiz-adv-x="430" 
d="M215 0h-108l-52 483h103l26 -364l189 364h109z" />
    <glyph glyph-name="w" unicode="w" horiz-adv-x="667" 
d="M477 0h-104l-16 355l-171 -355h-104l-22 483h100l6 -352l170 352h92l16 -352l162 352h107z" />
    <glyph glyph-name="x" unicode="x" horiz-adv-x="424" 
d="M364 0h-106l-58 176l-136 -176h-112l198 246l-83 237h105l52 -166l127 166h112l-190 -237z" />
    <glyph glyph-name="y" unicode="y" horiz-adv-x="430" 
d="M-52 -185l33 85q10 -7 36 -7q30 0 54 39l35 61l-51 490h103l26 -363l189 363h109l-318 -574q-33 -58 -67 -81.5t-82 -23.5q-38 0 -67 11z" />
    <glyph glyph-name="z" unicode="z" horiz-adv-x="399" 
d="M306 0h-322l16 76l261 320h-189l19 87h318l-16 -73l-262 -323h194z" />
    <glyph glyph-name="braceleft" unicode="{" horiz-adv-x="244" 
d="M130 -190h-34q-44 0 -77 29t-34 74q0 14 4 28l46 205q2 12 2 18q0 22 -10.5 36t-29.5 14l14 60q53 0 67 68l46 205q29 131 154 131h45l-15 -69h-45q-51 0 -65 -62l-50 -222q-15 -70 -65 -89q29 -14 29 -55q0 -18 -4 -34l-44 -204q-3 -18 -3 -19q0 -20 12.5 -33t30.5 -13
h42z" />
    <glyph glyph-name="bar" unicode="|" horiz-adv-x="197" 
d="M153 -20h-69v707h69v-707z" />
    <glyph glyph-name="braceright" unicode="}" horiz-adv-x="244" 
d="M113 678h34q45 0 78 -29t33 -75q0 -12 -4 -28l-45 -204q-2 -10 -2 -19q0 -22 10.5 -35.5t28.5 -13.5l-14 -60q-51 0 -67 -68l-45 -205q-15 -65 -55 -98t-100 -33h-45l15 69h45q52 0 66 61l49 223q16 72 65 89q-29 15 -29 55q0 18 4 34l45 204q2 12 2 18q0 21 -12.5 34
t-30.5 13h-42z" />
    <glyph glyph-name="asciitilde" unicode="~" horiz-adv-x="457" 
d="M453 667l69 -7q-51 -242 -172 -242q-36 0 -55.5 19t-24.5 46t-7 54t-9 46t-24 19q-26 0 -51 -48.5t-44 -136.5l-69 8q50 241 172 241q31 0 50 -13.5t25 -34t9.5 -44.5t4.5 -44.5t8.5 -34t22.5 -13.5q55 0 95 185z" />
    <glyph glyph-name="nbspace" unicode="&#xa0;" horiz-adv-x="212" 
 />
    <glyph glyph-name="exclamdown" unicode="&#xa1;" horiz-adv-x="242" 
d="M87 282h85l-85 -466h-122zM168 494q26 0 43.5 -18t17.5 -44q0 -29 -22 -50.5t-52 -21.5q-25 0 -43 18t-18 43q0 30 22 51.5t52 21.5z" />
    <glyph glyph-name="cent" unicode="&#xa2;" horiz-adv-x="415" 
d="M133 -100l21 96q-60 17 -93.5 65.5t-33.5 122.5q0 115 67.5 210t170.5 100l16 71h75l-18 -78q59 -18 90 -63l-63 -65q-17 29 -46 41l-73 -323q42 6 71 40l39 -72q-55 -53 -129 -57l-19 -88h-75zM129 190q0 -70 46 -100l69 311q-51 -19 -83 -82t-32 -129z" />
    <glyph glyph-name="sterling" unicode="&#xa3;" horiz-adv-x="471" 
d="M31 271l15 67h76q-29 66 -29 111q0 94 69 161t160 67q72 0 123.5 -34.5t61.5 -95.5l-98 -36q-5 35 -27 55t-57 20q-46 0 -79.5 -43t-33.5 -106q0 -18 4 -33.5t13 -38l11 -27.5h108l-15 -67h-85q-5 -50 -34 -94.5t-64 -66.5q21 8 40 8q27 0 66 -16t61 -16q43 0 76 35
l20 -88q-46 -46 -110 -46q-43 0 -97.5 22t-82.5 22q-41 0 -97 -38l-20 78q58 29 97.5 80t39.5 104q0 3 -0.5 8t-0.5 8h-111z" />
    <glyph glyph-name="currency" unicode="&#xa4;" horiz-adv-x="516" 
d="M228 97q-56 6 -95 34l-89 -72l-53 67l90 72q-29 69 -9 157q17 79 63 134l-55 72l68 55l55 -72q60 31 128 24q53 -6 94 -35l90 73l53 -65l-91 -74q30 -67 11 -156q-19 -81 -66 -135l56 -70l-68 -55l-55 70q-56 -31 -127 -24zM247 185q53 -6 91 33.5t52 102.5
q13 62 -6 107.5t-72 51.5t-91 -33t-51 -102q-14 -63 5 -108.5t72 -51.5z" />
    <glyph glyph-name="yen" unicode="&#xa5;" horiz-adv-x="521" 
d="M264 0h-110l26 119h-186l15 65h185l21 94h-184l14 65h150l-101 324h117l76 -285l202 285h128l-243 -324h145l-14 -65h-180l-21 -94h180l-15 -65h-179z" />
    <glyph glyph-name="brokenbar" unicode="&#xa6;" horiz-adv-x="197" 
d="M153 -20h-69v316h69v-316zM153 371h-69v316h69v-316z" />
    <glyph glyph-name="section" unicode="&#xa7;" horiz-adv-x="404" 
d="M389 330q0 -50 -28.5 -89t-81.5 -58q55 -36 55 -100q0 -68 -50 -116t-128 -48q-131 0 -191 73l58 62q46 -63 129 -63q36 0 60 23t24 55q0 23 -19.5 41t-48 31.5t-56.5 30t-47.5 44t-19.5 64.5q0 50 32 87.5t90 50.5q-68 40 -68 108q0 64 48.5 107.5t121.5 43.5
q116 0 173 -68l-54 -55q-38 52 -114 52q-35 0 -56.5 -20t-21.5 -48q0 -27 30 -49t66.5 -37t66.5 -46.5t30 -75.5zM291 307q0 45 -56 75q-48 -7 -71 -30t-23 -54q0 -46 74 -80q76 24 76 89z" />
    <glyph glyph-name="dieresis" unicode="&#xa8;" horiz-adv-x="279" 
d="M367 613q0 -24 -19.5 -43t-44.5 -19q-21 0 -35.5 14.5t-14.5 35.5q0 25 19.5 43.5t44.5 18.5q21 0 35.5 -14t14.5 -36zM186 613q0 -24 -19.5 -43t-44.5 -19q-21 0 -35.5 14.5t-14.5 35.5q0 25 19.5 43.5t44.5 18.5q21 0 35.5 -14t14.5 -36z" />
    <glyph glyph-name="copyright" unicode="&#xa9;" horiz-adv-x="778" 
d="M754 334q0 -143 -101.5 -244t-244.5 -101q-142 0 -243 101t-101 244t100.5 244t243.5 101t244.5 -101t101.5 -244zM721 334q0 128 -92.5 220t-220.5 92t-219 -92t-91 -220t91 -219.5t219 -91.5t220.5 91.5t92.5 219.5zM506 206l22 -31q-64 -53 -137 -53q-87 0 -139 52.5
t-52 132.5q0 100 71 170t163 70q109 0 158 -80l-34 -25q-37 69 -125 69q-73 0 -132.5 -59t-59.5 -144q0 -62 41.5 -106t109.5 -44q64 0 114 48z" />
    <glyph glyph-name="ordfeminine" unicode="&#xaa;" horiz-adv-x="358" 
d="M245 589q-38 0 -65 -45.5t-27 -97.5q0 -33 15 -51t41 -18q35 0 67 43l28 131q-15 38 -59 38zM324 640h74l-70 -314h-74l9 42q-37 -50 -86 -50q-44 0 -72.5 31t-28.5 90q0 79 43.5 144t107.5 65q61 0 88 -49z" />
    <glyph glyph-name="guillemotleft" unicode="&#xab;" horiz-adv-x="424" 
d="M198 63h-84l-85 180l165 177h90l-168 -181zM350 63h-84l-85 180l165 177h90l-168 -181z" />
    <glyph glyph-name="logicalnot" unicode="&#xac;" horiz-adv-x="446" 
d="M460 462l-56 -256h-67l42 191h-316l14 65h383z" />
    <glyph glyph-name="uni00AD" unicode="&#xad;" horiz-adv-x="269" 
d="M229 199h-209l19 86h209z" />
    <glyph glyph-name="registered" unicode="&#xae;" horiz-adv-x="494" 
d="M508 465q0 -88 -62.5 -150t-150.5 -62t-149.5 62t-61.5 150t62 150t150 62t150 -61.5t62 -150.5zM478 465q0 76 -53.5 129t-129.5 53t-128.5 -53t-52.5 -129q0 -75 53 -128.5t128 -53.5q76 0 129.5 53.5t53.5 128.5zM368 343h-39l-42 96h-45l-21 -96h-33l53 243h92
q31 0 51 -17.5t20 -46.5q0 -35 -25 -58.5t-55 -23.5zM369 519q0 18 -11.5 28t-30.5 10h-59l-20 -88h67q23 0 38.5 14.5t15.5 35.5z" />
    <glyph glyph-name="macron" unicode="&#xaf;" horiz-adv-x="309" 
d="M379 567h-307l13 60h307z" />
    <glyph glyph-name="degree" unicode="&#xb0;" horiz-adv-x="300" 
d="M345 549q0 -53 -37.5 -90.5t-90.5 -37.5t-90.5 37.5t-37.5 90.5t37.5 90.5t90.5 37.5t90.5 -37.5t37.5 -90.5zM288 549q0 28 -21 49t-50 21t-49 -20.5t-20 -49.5t19.5 -49.5t48.5 -20.5t50.5 20.5t21.5 49.5z" />
    <glyph glyph-name="plusminus" unicode="&#xb1;" horiz-adv-x="442" 
d="M428 316h-156l-40 -179h-71l40 179h-156l14 64h156l38 172h71l-38 -172h156zM362 17h-384l14 65h384z" />
    <glyph glyph-name="twosuperior" unicode="&#xb2;" horiz-adv-x="337" 
d="M346 421h-269l14 61q145 106 192.5 150.5t47.5 82.5q0 24 -17 37t-44 13q-56 0 -94 -46l-36 51q55 57 134 57q58 0 96.5 -27.5t38.5 -77.5q0 -52 -47.5 -101t-165.5 -138h163z" />
    <glyph glyph-name="threesuperior" unicode="&#xb3;" horiz-adv-x="337" 
d="M373 538q0 -47 -39 -85.5t-102 -38.5q-51 0 -90.5 19t-57.5 53l54 44q28 -54 90 -54q32 0 50.5 21.5t18.5 50.5q0 23 -19 35t-51 12q-24 0 -30 -1l14 62q8 -1 47 -1q33 0 52.5 17t19.5 46q0 22 -18.5 34.5t-47.5 12.5q-49 0 -89 -40l-33 46q54 56 129 56q62 0 99.5 -26
t37.5 -73q0 -39 -27.5 -70.5t-73.5 -36.5q30 -8 48 -30t18 -53z" />
    <glyph glyph-name="acute" unicode="&#xb4;" horiz-adv-x="202" 
d="M303 700l-166 -144h-70l142 144h94z" />
    <glyph glyph-name="mu" unicode="&#xb5;" horiz-adv-x="496" 
d="M107 16l-44 -200h-100l149 667h100l-74 -330q-9 -38 6.5 -58t46.5 -20q59 0 112 67l75 341h100l-80 -360q-11 -47 25 -47q7 0 17 2l-11 -84q-18 -6 -49 -6q-47 0 -67 21t-18 65q-26 -39 -60.5 -62.5t-69.5 -23.5q-42 0 -58 28z" />
    <glyph glyph-name="paragraph" unicode="&#xb6;" horiz-adv-x="449" 
d="M313 -100h-54l159 714h-84l-159 -714h-53l94 423q-57 0 -97 44.5t-40 111.5q0 73 56.5 130.5t137.5 57.5h210z" />
    <glyph glyph-name="periodcentered" unicode="&#xb7;" horiz-adv-x="242" 
d="M115 178q-25 0 -43 18t-18 43q0 30 21.5 51.5t51.5 21.5q25 0 43 -18t18 -44q0 -30 -21.5 -51t-51.5 -21z" />
    <glyph glyph-name="cedilla" unicode="&#xb8;" horiz-adv-x="195" 
d="M12 -194q-64 0 -101 39l29 41q30 -33 73 -33q23 0 36.5 12t13.5 30q0 25 -28 25q-17 0 -29 -14l-34 22l50 83h53l-41 -65q12 11 28 11q24 0 39.5 -16t15.5 -43q0 -40 -30 -66t-75 -26z" />
    <glyph glyph-name="onesuperior" unicode="&#xb9;" horiz-adv-x="248" 
d="M233 421h-77l65 297l-73 -61l-36 47l143 117h66z" />
    <glyph glyph-name="ordmasculine" unicode="&#xba;" horiz-adv-x="353" 
d="M208 318q-61 0 -96 36t-35 95q0 76 48.5 137.5t120.5 61.5q61 0 96 -36t35 -95q0 -75 -48.5 -137t-120.5 -62zM211 378q41 0 66 47.5t25 93.5q0 32 -15.5 50t-43.5 18q-41 0 -66 -47.5t-25 -93.5q0 -32 15.5 -50t43.5 -18z" />
    <glyph glyph-name="guillemotright" unicode="&#xbb;" horiz-adv-x="424" 
d="M75 420h84l85 -180l-165 -177h-90l169 182zM227 420h84l85 -180l-165 -177h-90l169 182z" />
    <glyph glyph-name="onequarter" unicode="&#xbc;" horiz-adv-x="712" 
d="M199 267h-77l65 297l-73 -61l-36 47l143 117h66zM656 94h-45l-20 -94h-76l20 94h-171l13 57l202 249h100l-54 -245h44zM548 155l37 166l-135 -166h98zM637 667l-499 -667h-57l499 667h57z" />
    <glyph glyph-name="onehalf" unicode="&#xbd;" horiz-adv-x="746" 
d="M199 267h-77l65 297l-73 -61l-36 47l143 117h66zM662 0h-269l14 61q145 106 192.5 150.5t47.5 82.5q0 24 -17 37t-44 13q-56 0 -94 -46l-36 51q55 57 134 57q58 0 96.5 -27.5t38.5 -77.5q0 -52 -47.5 -101t-165.5 -138h163zM637 667l-499 -667h-57l499 667h57z" />
    <glyph glyph-name="threequarters" unicode="&#xbe;" horiz-adv-x="778" 
d="M723 94h-45l-20 -94h-76l20 94h-171l13 57l202 249h100l-54 -245h44zM615 155l37 166l-135 -166h98zM703 667l-499 -667h-57l499 667h57zM339 384q0 -47 -39 -85.5t-102 -38.5q-51 0 -90.5 19t-57.5 53l54 44q28 -54 90 -54q32 0 50.5 21.5t18.5 50.5q0 23 -19 35t-51 12
q-24 0 -30 -1l14 62q8 -1 47 -1q33 0 52.5 17t19.5 46q0 22 -18.5 34.5t-47.5 12.5q-49 0 -89 -40l-33 46q54 56 129 56q62 0 99.5 -26t37.5 -73q0 -39 -27.5 -70.5t-73.5 -36.5q30 -8 48 -30t18 -53z" />
    <glyph glyph-name="questiondown" unicode="&#xbf;" horiz-adv-x="338" 
d="M152 259l90 29q15 -27 15 -65q0 -40 -19 -71.5t-46 -52.5t-54 -40t-46 -43t-19 -52t20 -45.5t57 -17.5q54 0 98 39l40 -75q-71 -60 -161 -60q-74 0 -122.5 37.5t-48.5 96.5q0 38 15.5 70.5t38 53t49.5 41t49.5 36t38 37t15.5 45.5q0 21 -10 37zM242 493q26 0 43.5 -17.5
t17.5 -43.5q0 -30 -22 -51.5t-52 -21.5q-25 0 -43 18t-18 44q0 30 22 51t52 21z" />
    <glyph glyph-name="Agrave" unicode="&#xc0;" horiz-adv-x="536" 
d="M479 0h-115l-7 132h-220l-64 -132h-125l346 667h133zM355 230l-16 319l-157 -319h173zM424 723h-68l-102 144h93z" />
    <glyph glyph-name="Aacute" unicode="&#xc1;" horiz-adv-x="536" 
d="M479 0h-115l-7 132h-220l-64 -132h-125l346 667h133zM355 230l-16 319l-157 -319h173zM556 867l-166 -144h-70l142 144h94z" />
    <glyph glyph-name="Acircumflex" unicode="&#xc2;" horiz-adv-x="536" 
d="M499 723h-58l-46 97l-85 -97h-62l111 144h91zM479 0h-115l-7 132h-220l-64 -132h-125l346 667h133zM355 230l-16 319l-157 -319h173z" />
    <glyph glyph-name="Atilde" unicode="&#xc3;" horiz-adv-x="536" 
d="M479 0h-115l-7 132h-220l-64 -132h-125l346 667h133zM355 230l-16 319l-157 -319h173zM434 721q-23 0 -38 12.5t-21.5 28t-16.5 28t-24 12.5q-30 0 -46 -75h-55q29 134 109 134q23 0 38 -12.5t21.5 -27.5t16.5 -27.5t24 -12.5q29 0 46 74h55q-29 -134 -109 -134z" />
    <glyph glyph-name="Adieresis" unicode="&#xc4;" horiz-adv-x="536" 
d="M532 780q0 -24 -19.5 -43t-44.5 -19q-21 0 -35.5 14.5t-14.5 35.5q0 25 19.5 43.5t44.5 18.5q21 0 35.5 -14t14.5 -36zM351 780q0 -24 -19.5 -43t-44.5 -19q-21 0 -35.5 14.5t-14.5 35.5q0 25 19.5 43.5t44.5 18.5q21 0 35.5 -14t14.5 -36zM479 0h-115l-7 132h-220
l-64 -132h-125l346 667h133zM355 230l-16 319l-157 -319h173z" />
    <glyph glyph-name="Aring" unicode="&#xc5;" horiz-adv-x="536" 
d="M479 0h-115l-7 132h-220l-64 -132h-125l346 667h133zM355 230l-16 319l-157 -319h173zM378 691q-38 0 -61.5 24t-23.5 62q0 42 31 73t73 31q38 0 61.5 -24t23.5 -62q0 -42 -31 -73t-73 -31zM382 739q21 0 37 15.5t16 36.5q0 19 -11.5 31t-30.5 12q-21 0 -37 -15.5
t-16 -36.5q0 -19 11.5 -31t30.5 -12z" />
    <glyph glyph-name="AE" unicode="&#xc6;" horiz-adv-x="772" 
d="M676 0h-365l29 132h-179l-88 -132h-124l463 667h411l-21 -97h-254l-40 -181h247l-22 -98h-247l-43 -193h254zM362 230l68 310l-207 -310h139z" />
    <glyph glyph-name="Ccedilla" unicode="&#xc7;" horiz-adv-x="547" 
d="M223 -194q-64 0 -101 39l29 41q30 -33 73 -33q23 0 36.5 12t13.5 30q0 25 -28 25q-17 0 -29 -14l-34 22l39 66q-82 17 -130.5 81t-48.5 162q0 109 39.5 209t116 166t171.5 66q89 0 143 -49t74 -126l-105 -29q-28 106 -119 106q-56 0 -104.5 -53t-75 -131t-26.5 -157
q0 -72 34.5 -112t95.5 -40q70 0 127 79l86 -49q-85 -129 -219 -129h-10l-26 -42q12 11 28 11q24 0 39.5 -16t15.5 -43q0 -40 -30 -66t-75 -26z" />
    <glyph glyph-name="Egrave" unicode="&#xc8;" horiz-adv-x="472" 
d="M375 0h-365l147 667h365l-21 -97h-255l-40 -181h248l-22 -98h-247l-43 -193h254zM404 723h-68l-102 144h93z" />
    <glyph glyph-name="Eacute" unicode="&#xc9;" horiz-adv-x="472" 
d="M535 867l-166 -144h-70l142 144h94zM375 0h-365l147 667h365l-21 -97h-255l-40 -181h248l-22 -98h-247l-43 -193h254z" />
    <glyph glyph-name="Ecircumflex" unicode="&#xca;" horiz-adv-x="472" 
d="M478 723h-58l-46 97l-85 -97h-62l111 144h91zM375 0h-365l147 667h365l-21 -97h-255l-40 -181h248l-22 -98h-247l-43 -193h254z" />
    <glyph glyph-name="Edieresis" unicode="&#xcb;" horiz-adv-x="472" 
d="M511 780q0 -24 -19.5 -43t-44.5 -19q-21 0 -35.5 14.5t-14.5 35.5q0 25 19.5 43.5t44.5 18.5q21 0 35.5 -14t14.5 -36zM330 780q0 -24 -19.5 -43t-44.5 -19q-21 0 -35.5 14.5t-14.5 35.5q0 25 19.5 43.5t44.5 18.5q21 0 35.5 -14t14.5 -36zM375 0h-365l147 667h365
l-21 -97h-255l-40 -181h248l-22 -98h-247l-43 -193h254z" />
    <glyph glyph-name="Igrave" unicode="&#xcc;" horiz-adv-x="239" 
d="M121 0h-111l147 667h111zM275 723h-68l-102 144h93z" />
    <glyph glyph-name="Iacute" unicode="&#xcd;" horiz-adv-x="239" 
d="M121 0h-111l147 667h111zM408 867l-166 -144h-70l142 144h94z" />
    <glyph glyph-name="Icircumflex" unicode="&#xce;" horiz-adv-x="239" 
d="M351 723h-58l-46 97l-85 -97h-62l111 144h91zM121 0h-111l147 667h111z" />
    <glyph glyph-name="Idieresis" unicode="&#xcf;" horiz-adv-x="239" 
d="M384 780q0 -24 -19.5 -43t-44.5 -19q-21 0 -35.5 14.5t-14.5 35.5q0 25 19.5 43.5t44.5 18.5q21 0 35.5 -14t14.5 -36zM203 780q0 -24 -19.5 -43t-44.5 -19q-21 0 -35.5 14.5t-14.5 35.5q0 25 19.5 43.5t44.5 18.5q21 0 35.5 -14t14.5 -36zM121 0h-111l147 667h111z" />
    <glyph glyph-name="Eth" unicode="&#xd0;" horiz-adv-x="606" 
d="M233 0h-199l63 289h-74l20 90h74l64 288h195q90 0 155 -67.5t65 -180.5q0 -55 -11.5 -110.5t-39 -112t-68 -99.5t-103.5 -70t-141 -27zM324 289h-116l-42 -191h86q72 0 126.5 51.5t79 122t24.5 143.5q0 71 -36 113t-91 42h-85l-42 -191h116z" />
    <glyph glyph-name="Ntilde" unicode="&#xd1;" horiz-adv-x="592" 
d="M463 721q-23 0 -38 12.5t-21.5 28t-16.5 28t-24 12.5q-30 0 -46 -75h-55q29 134 109 134q23 0 38 -12.5t21.5 -27.5t16.5 -27.5t24 -12.5q29 0 46 74h55q-29 -134 -109 -134zM474 0h-106l-148 452l-99 -452h-111l147 667h112l144 -438l97 438h111z" />
    <glyph glyph-name="Ograve" unicode="&#xd2;" horiz-adv-x="612" 
d="M463 723h-68l-102 144h93zM281 -12q-108 0 -173 68.5t-65 180.5q0 106 38 205t114.5 167.5t174.5 68.5q107 0 172.5 -69t65.5 -180q0 -105 -38 -204.5t-115 -168t-174 -68.5zM287 87q57 0 105.5 52.5t74.5 130t26 156.5q0 71 -36 112.5t-94 41.5q-57 0 -105.5 -52.5
t-74.5 -130.5t-26 -158q0 -71 35.5 -111.5t94.5 -40.5z" />
    <glyph glyph-name="Oacute" unicode="&#xd3;" horiz-adv-x="612" 
d="M596 867l-166 -144h-70l142 144h94zM281 -12q-108 0 -173 68.5t-65 180.5q0 106 38 205t114.5 167.5t174.5 68.5q107 0 172.5 -69t65.5 -180q0 -105 -38 -204.5t-115 -168t-174 -68.5zM287 87q57 0 105.5 52.5t74.5 130t26 156.5q0 71 -36 112.5t-94 41.5
q-57 0 -105.5 -52.5t-74.5 -130.5t-26 -158q0 -71 35.5 -111.5t94.5 -40.5z" />
    <glyph glyph-name="Ocircumflex" unicode="&#xd4;" horiz-adv-x="612" 
d="M538 723h-58l-46 97l-85 -97h-62l111 144h91zM281 -12q-108 0 -173 68.5t-65 180.5q0 106 38 205t114.5 167.5t174.5 68.5q107 0 172.5 -69t65.5 -180q0 -105 -38 -204.5t-115 -168t-174 -68.5zM287 87q57 0 105.5 52.5t74.5 130t26 156.5q0 71 -36 112.5t-94 41.5
q-57 0 -105.5 -52.5t-74.5 -130.5t-26 -158q0 -71 35.5 -111.5t94.5 -40.5z" />
    <glyph glyph-name="Otilde" unicode="&#xd5;" horiz-adv-x="612" 
d="M281 -12q-108 0 -173 68.5t-65 180.5q0 106 38 205t114.5 167.5t174.5 68.5q107 0 172.5 -69t65.5 -180q0 -105 -38 -204.5t-115 -168t-174 -68.5zM287 87q57 0 105.5 52.5t74.5 130t26 156.5q0 71 -36 112.5t-94 41.5q-57 0 -105.5 -52.5t-74.5 -130.5t-26 -158
q0 -71 35.5 -111.5t94.5 -40.5zM473 721q-23 0 -38 12.5t-21.5 28t-16.5 28t-24 12.5q-30 0 -46 -75h-55q29 134 109 134q23 0 38 -12.5t21.5 -27.5t16.5 -27.5t24 -12.5q29 0 46 74h55q-29 -134 -109 -134z" />
    <glyph glyph-name="Odieresis" unicode="&#xd6;" horiz-adv-x="612" 
d="M571 780q0 -24 -19.5 -43t-44.5 -19q-21 0 -35.5 14.5t-14.5 35.5q0 25 19.5 43.5t44.5 18.5q21 0 35.5 -14t14.5 -36zM390 780q0 -24 -19.5 -43t-44.5 -19q-21 0 -35.5 14.5t-14.5 35.5q0 25 19.5 43.5t44.5 18.5q21 0 35.5 -14t14.5 -36zM281 -12q-108 0 -173 68.5
t-65 180.5q0 106 38 205t114.5 167.5t174.5 68.5q107 0 172.5 -69t65.5 -180q0 -105 -38 -204.5t-115 -168t-174 -68.5zM287 87q57 0 105.5 52.5t74.5 130t26 156.5q0 71 -36 112.5t-94 41.5q-57 0 -105.5 -52.5t-74.5 -130.5t-26 -158q0 -71 35.5 -111.5t94.5 -40.5z" />
    <glyph glyph-name="multiply" unicode="&#xd7;" horiz-adv-x="442" 
d="M329 167l-95 121l-153 -125l-40 49l155 126l-95 122l51 42l94 -122l154 126l40 -50l-154 -126l94 -122z" />
    <glyph glyph-name="Oslash" unicode="&#xd8;" horiz-adv-x="612" 
d="M281 -12q-95 0 -157 53l-33 -41h-76l69 86q-41 61 -41 151q0 106 38 205t114.5 167.5t174.5 68.5q89 0 153 -51l32 40h75l-67 -83q45 -65 45 -155q0 -105 -38 -204.5t-115 -168t-174 -68.5zM287 87q57 0 105.5 52.5t74.5 130t26 156.5q0 34 -9 61l-291 -361
q36 -39 94 -39zM157 239q0 -31 6 -55l291 358q-36 38 -91 38q-57 0 -105.5 -52.5t-74.5 -130.5t-26 -158z" />
    <glyph glyph-name="Ugrave" unicode="&#xd9;" horiz-adv-x="592" 
d="M272 -12q-100 0 -158.5 52t-58.5 140q0 26 5 46l97 441h111l-98 -444q-3 -21 -3 -35q0 -46 29 -74t80 -28q56 0 88.5 34t47.5 103l98 444h111l-98 -443q-52 -236 -251 -236zM451 723h-68l-102 144h93z" />
    <glyph glyph-name="Uacute" unicode="&#xda;" horiz-adv-x="592" 
d="M584 867l-166 -144h-70l142 144h94zM272 -12q-100 0 -158.5 52t-58.5 140q0 26 5 46l97 441h111l-98 -444q-3 -21 -3 -35q0 -46 29 -74t80 -28q56 0 88.5 34t47.5 103l98 444h111l-98 -443q-52 -236 -251 -236z" />
    <glyph glyph-name="Ucircumflex" unicode="&#xdb;" horiz-adv-x="592" 
d="M527 723h-58l-46 97l-85 -97h-62l111 144h91zM272 -12q-100 0 -158.5 52t-58.5 140q0 26 5 46l97 441h111l-98 -444q-3 -21 -3 -35q0 -46 29 -74t80 -28q56 0 88.5 34t47.5 103l98 444h111l-98 -443q-52 -236 -251 -236z" />
    <glyph glyph-name="Udieresis" unicode="&#xdc;" horiz-adv-x="592" 
d="M559 780q0 -24 -19.5 -43t-44.5 -19q-21 0 -35.5 14.5t-14.5 35.5q0 25 19.5 43.5t44.5 18.5q21 0 35.5 -14t14.5 -36zM378 780q0 -24 -19.5 -43t-44.5 -19q-21 0 -35.5 14.5t-14.5 35.5q0 25 19.5 43.5t44.5 18.5q21 0 35.5 -14t14.5 -36zM272 -12q-100 0 -158.5 52
t-58.5 140q0 26 5 46l97 441h111l-98 -444q-3 -21 -3 -35q0 -46 29 -74t80 -28q56 0 88.5 34t47.5 103l98 444h111l-98 -443q-52 -236 -251 -236z" />
    <glyph glyph-name="Yacute" unicode="&#xdd;" horiz-adv-x="521" 
d="M262 0h-110l61 278l-121 389h117l76 -285l202 285h128l-292 -389zM550 867l-166 -144h-70l142 144h94z" />
    <glyph glyph-name="Thorn" unicode="&#xde;" horiz-adv-x="513" 
d="M121 0h-111l147 667h111l-25 -114h105q71 0 117.5 -48.5t46.5 -121.5q0 -95 -62.5 -169.5t-183.5 -74.5h-115zM274 236q57 0 90 40.5t33 95.5q0 37 -22 60.5t-57 23.5h-97l-48 -220h101z" />
    <glyph glyph-name="germandbls" unicode="&#xdf;" horiz-adv-x="556" 
d="M521 150q0 -64 -49.5 -113t-128.5 -49q-112 0 -176 78l55 64q47 -62 118 -62q33 0 55 20t22 49q0 23 -27.5 42.5t-60 33.5t-60 43.5t-27.5 70.5q0 31 11.5 56t29 40t38 28.5t38 24t29 25t11.5 31.5q0 26 -22 41.5t-57 15.5q-81 0 -103 -95l-109 -494h-99l109 494
q18 82 71.5 132.5t136.5 50.5q72 0 124.5 -37t52.5 -94q0 -43 -25 -74.5t-55.5 -46.5t-55.5 -36t-25 -45q0 -22 28 -41t61.5 -33t61.5 -45t28 -75z" />
    <glyph glyph-name="agrave" unicode="&#xe0;" horiz-adv-x="494" 
d="M248 495q42 0 75.5 -20.5t50.5 -58.5l15 67h99l-107 -483h-100l14 62q-53 -74 -126 -74q-67 0 -105.5 45.5t-38.5 128.5q0 73 24.5 147.5t77.5 130t121 55.5zM266 407q-59 0 -98 -76t-39 -153q0 -48 23 -75t62 -27q28 0 55 19.5t44 48.5l44 196q-10 29 -35 48t-56 19z
M363 556h-68l-102 144h93z" />
    <glyph glyph-name="aacute" unicode="&#xe1;" horiz-adv-x="494" 
d="M248 495q42 0 75.5 -20.5t50.5 -58.5l15 67h99l-107 -483h-100l14 62q-53 -74 -126 -74q-67 0 -105.5 45.5t-38.5 128.5q0 73 24.5 147.5t77.5 130t121 55.5zM266 407q-59 0 -98 -76t-39 -153q0 -48 23 -75t62 -27q28 0 55 19.5t44 48.5l44 196q-10 29 -35 48t-56 19z
M495 700l-166 -144h-70l142 144h94z" />
    <glyph glyph-name="acircumflex" unicode="&#xe2;" horiz-adv-x="494" 
d="M248 495q42 0 75.5 -20.5t50.5 -58.5l15 67h99l-107 -483h-100l14 62q-53 -74 -126 -74q-67 0 -105.5 45.5t-38.5 128.5q0 73 24.5 147.5t77.5 130t121 55.5zM266 407q-59 0 -98 -76t-39 -153q0 -48 23 -75t62 -27q28 0 55 19.5t44 48.5l44 196q-10 29 -35 48t-56 19z
M438 556h-58l-46 97l-85 -97h-62l111 144h91z" />
    <glyph glyph-name="atilde" unicode="&#xe3;" horiz-adv-x="494" 
d="M248 495q42 0 75.5 -20.5t50.5 -58.5l15 67h99l-107 -483h-100l14 62q-53 -74 -126 -74q-67 0 -105.5 45.5t-38.5 128.5q0 73 24.5 147.5t77.5 130t121 55.5zM266 407q-59 0 -98 -76t-39 -153q0 -48 23 -75t62 -27q28 0 55 19.5t44 48.5l44 196q-10 29 -35 48t-56 19z
M374 554q-23 0 -38 12.5t-21.5 28t-16.5 28t-24 12.5q-30 0 -46 -75h-55q29 134 109 134q23 0 38 -12.5t21.5 -27.5t16.5 -27.5t24 -12.5q29 0 46 74h55q-29 -134 -109 -134z" />
    <glyph glyph-name="adieresis" unicode="&#xe4;" horiz-adv-x="494" 
d="M248 495q42 0 75.5 -20.5t50.5 -58.5l15 67h99l-107 -483h-100l14 62q-53 -74 -126 -74q-67 0 -105.5 45.5t-38.5 128.5q0 73 24.5 147.5t77.5 130t121 55.5zM266 407q-59 0 -98 -76t-39 -153q0 -48 23 -75t62 -27q28 0 55 19.5t44 48.5l44 196q-10 29 -35 48t-56 19z
M471 613q0 -24 -19.5 -43t-44.5 -19q-21 0 -35.5 14.5t-14.5 35.5q0 25 19.5 43.5t44.5 18.5q21 0 35.5 -14t14.5 -36zM290 613q0 -24 -19.5 -43t-44.5 -19q-21 0 -35.5 14.5t-14.5 35.5q0 25 19.5 43.5t44.5 18.5q21 0 35.5 -14t14.5 -36z" />
    <glyph glyph-name="aring" unicode="&#xe5;" horiz-adv-x="494" 
d="M248 495q42 0 75.5 -20.5t50.5 -58.5l15 67h99l-107 -483h-100l14 62q-53 -74 -126 -74q-67 0 -105.5 45.5t-38.5 128.5q0 73 24.5 147.5t77.5 130t121 55.5zM266 407q-59 0 -98 -76t-39 -153q0 -48 23 -75t62 -27q28 0 55 19.5t44 48.5l44 196q-10 29 -35 48t-56 19z
M320 534q-38 0 -61.5 24t-23.5 62q0 42 31 73t73 31q38 0 61.5 -24t23.5 -62q0 -42 -31 -73t-73 -31zM324 582q21 0 37 15.5t16 36.5q0 19 -11.5 31t-30.5 12q-21 0 -37 -15.5t-16 -36.5q0 -19 11.5 -31t30.5 -12z" />
    <glyph glyph-name="ae" unicode="&#xe6;" horiz-adv-x="775" 
d="M266 407q-59 0 -98 -76t-39 -153q0 -48 23 -75t62 -27q28 0 55 19.5t44 48.5l44 196q-10 29 -35 48t-56 19zM401 91l-20 -91h-100l14 62q-53 -74 -126 -74q-67 0 -105.5 45.5t-38.5 128.5q0 73 24.5 147.5t77.5 130t121 55.5q42 0 75.5 -20.5t50.5 -58.5l15 67h99
l-14 -64q55 76 133 76q70 0 107 -45.5t37 -133.5q0 -49 -15 -107h-306q-3 -17 -3 -35q0 -43 29.5 -73t85.5 -30q57 0 105 45l34 -71q-63 -57 -136 -57q-116 0 -144 103zM442 280h213q4 16 4 37q0 42 -22.5 69.5t-66.5 27.5q-48 0 -83 -41t-45 -93z" />
    <glyph glyph-name="ccedilla" unicode="&#xe7;" horiz-adv-x="415" 
d="M165 -194q-64 0 -101 39l29 41q30 -33 73 -33q23 0 36.5 12t13.5 30q0 25 -28 25q-17 0 -29 -14l-34 22l39 66q-64 14 -100.5 63.5t-36.5 126.5q0 119 71 215t178 96q105 0 152 -71l-63 -65q-27 48 -85 48q-66 0 -108.5 -69t-42.5 -148q0 -56 28.5 -85t74.5 -29
q49 0 85 41l39 -72q-59 -57 -139 -57h-4l-26 -42q12 11 28 11q24 0 39.5 -16t15.5 -43q0 -40 -30 -66t-75 -26z" />
    <glyph glyph-name="egrave" unicode="&#xe8;" horiz-adv-x="474" 
d="M226 -12q-93 0 -146 52t-53 144q0 69 28 139t86.5 121t131.5 51q81 0 128 -49.5t47 -136.5q0 -44 -14 -100h-307q-4 -15 -4 -35q0 -42 29.5 -73t85.5 -31q59 0 107 43l34 -65q-65 -60 -153 -60zM139 280h215q4 15 4 37q0 42 -24 69.5t-69 27.5q-48 0 -82.5 -41t-43.5 -93
zM364 556h-68l-102 144h93z" />
    <glyph glyph-name="eacute" unicode="&#xe9;" horiz-adv-x="474" 
d="M498 700l-166 -144h-70l142 144h94zM226 -12q-93 0 -146 52t-53 144q0 69 28 139t86.5 121t131.5 51q81 0 128 -49.5t47 -136.5q0 -44 -14 -100h-307q-4 -15 -4 -35q0 -42 29.5 -73t85.5 -31q59 0 107 43l34 -65q-65 -60 -153 -60zM139 280h215q4 15 4 37q0 42 -24 69.5
t-69 27.5q-48 0 -82.5 -41t-43.5 -93z" />
    <glyph glyph-name="ecircumflex" unicode="&#xea;" horiz-adv-x="474" 
d="M439 556h-58l-46 97l-85 -97h-62l111 144h91zM226 -12q-93 0 -146 52t-53 144q0 69 28 139t86.5 121t131.5 51q81 0 128 -49.5t47 -136.5q0 -44 -14 -100h-307q-4 -15 -4 -35q0 -42 29.5 -73t85.5 -31q59 0 107 43l34 -65q-65 -60 -153 -60zM139 280h215q4 15 4 37
q0 42 -24 69.5t-69 27.5q-48 0 -82.5 -41t-43.5 -93z" />
    <glyph glyph-name="edieresis" unicode="&#xeb;" horiz-adv-x="474" 
d="M473 613q0 -24 -19.5 -43t-44.5 -19q-21 0 -35.5 14.5t-14.5 35.5q0 25 19.5 43.5t44.5 18.5q21 0 35.5 -14t14.5 -36zM292 613q0 -24 -19.5 -43t-44.5 -19q-21 0 -35.5 14.5t-14.5 35.5q0 25 19.5 43.5t44.5 18.5q21 0 35.5 -14t14.5 -36zM226 -12q-93 0 -146 52
t-53 144q0 69 28 139t86.5 121t131.5 51q81 0 128 -49.5t47 -136.5q0 -44 -14 -100h-307q-4 -15 -4 -35q0 -42 29.5 -73t85.5 -31q59 0 107 43l34 -65q-65 -60 -153 -60zM139 280h215q4 15 4 37q0 42 -24 69.5t-69 27.5q-48 0 -82.5 -41t-43.5 -93z" />
    <glyph glyph-name="igrave" unicode="&#xec;" horiz-adv-x="218" 
d="M105 0h-100l107 483h100zM228 556h-68l-102 144h93z" />
    <glyph glyph-name="iacute" unicode="&#xed;" horiz-adv-x="218" 
d="M361 700l-166 -144h-70l142 144h94zM105 0h-100l107 483h100z" />
    <glyph glyph-name="icircumflex" unicode="&#xee;" horiz-adv-x="218" 
d="M304 556h-58l-46 97l-85 -97h-62l111 144h91zM105 0h-100l107 483h100z" />
    <glyph glyph-name="idieresis" unicode="&#xef;" horiz-adv-x="218" 
d="M337 613q0 -24 -19.5 -43t-44.5 -19q-21 0 -35.5 14.5t-14.5 35.5q0 25 19.5 43.5t44.5 18.5q21 0 35.5 -14t14.5 -36zM156 613q0 -24 -19.5 -43t-44.5 -19q-21 0 -35.5 14.5t-14.5 35.5q0 25 19.5 43.5t44.5 18.5q21 0 35.5 -14t14.5 -36zM105 0h-100l107 483h100z" />
    <glyph glyph-name="eth" unicode="&#xf0;" horiz-adv-x="488" 
d="M175 502l-13 49l124 37q-27 39 -47 62l84 53q42 -51 64 -85l88 26l13 -49l-74 -22q55 -101 55 -209q0 -90 -27 -173.5t-86.5 -143t-138.5 -59.5q-90 0 -141 51t-51 137q0 110 63.5 202t156.5 92q45 0 78.5 -24t48.5 -68q-12 76 -59 165zM219 76q56 0 95 68t39 139
q0 40 -23.5 69.5t-69.5 29.5q-55 0 -93.5 -67t-38.5 -136q0 -103 91 -103z" />
    <glyph glyph-name="ntilde" unicode="&#xf1;" horiz-adv-x="485" 
d="M372 0h-100l73 329q4 14 4 26q0 52 -57 52q-59 0 -113 -68l-74 -339h-100l107 483h100l-15 -64q68 76 143 76q53 0 84.5 -27t31.5 -73q0 -15 -5 -35zM372 554q-23 0 -38 12.5t-21.5 28t-16.5 28t-24 12.5q-30 0 -46 -75h-55q29 134 109 134q23 0 38 -12.5t21.5 -27.5
t16.5 -27.5t24 -12.5q29 0 46 74h55q-29 -134 -109 -134z" />
    <glyph glyph-name="ograve" unicode="&#xf2;" horiz-adv-x="488" 
d="M214 -12q-89 0 -138.5 52t-49.5 141q0 117 69.5 215.5t176.5 98.5q89 0 138.5 -52t49.5 -141q0 -117 -69.5 -215.5t-176.5 -98.5zM218 76q40 0 73.5 38.5t50 89.5t16.5 97q0 52 -23.5 79t-66.5 27q-40 0 -73.5 -38.5t-50 -89.5t-16.5 -97q0 -52 23.5 -79t66.5 -27z
M364 556h-68l-102 144h93z" />
    <glyph glyph-name="oacute" unicode="&#xf3;" horiz-adv-x="488" 
d="M496 700l-166 -144h-70l142 144h94zM214 -12q-89 0 -138.5 52t-49.5 141q0 117 69.5 215.5t176.5 98.5q89 0 138.5 -52t49.5 -141q0 -117 -69.5 -215.5t-176.5 -98.5zM218 76q40 0 73.5 38.5t50 89.5t16.5 97q0 52 -23.5 79t-66.5 27q-40 0 -73.5 -38.5t-50 -89.5
t-16.5 -97q0 -52 23.5 -79t66.5 -27z" />
    <glyph glyph-name="ocircumflex" unicode="&#xf4;" horiz-adv-x="488" 
d="M439 556h-58l-46 97l-85 -97h-62l111 144h91zM214 -12q-89 0 -138.5 52t-49.5 141q0 117 69.5 215.5t176.5 98.5q89 0 138.5 -52t49.5 -141q0 -117 -69.5 -215.5t-176.5 -98.5zM218 76q40 0 73.5 38.5t50 89.5t16.5 97q0 52 -23.5 79t-66.5 27q-40 0 -73.5 -38.5
t-50 -89.5t-16.5 -97q0 -52 23.5 -79t66.5 -27z" />
    <glyph glyph-name="otilde" unicode="&#xf5;" horiz-adv-x="488" 
d="M214 -12q-89 0 -138.5 52t-49.5 141q0 117 69.5 215.5t176.5 98.5q89 0 138.5 -52t49.5 -141q0 -117 -69.5 -215.5t-176.5 -98.5zM218 76q40 0 73.5 38.5t50 89.5t16.5 97q0 52 -23.5 79t-66.5 27q-40 0 -73.5 -38.5t-50 -89.5t-16.5 -97q0 -52 23.5 -79t66.5 -27z
M375 554q-23 0 -38 12.5t-21.5 28t-16.5 28t-24 12.5q-30 0 -46 -75h-55q29 134 109 134q23 0 38 -12.5t21.5 -27.5t16.5 -27.5t24 -12.5q29 0 46 74h55q-29 -134 -109 -134z" />
    <glyph glyph-name="odieresis" unicode="&#xf6;" horiz-adv-x="488" 
d="M472 613q0 -24 -19.5 -43t-44.5 -19q-21 0 -35.5 14.5t-14.5 35.5q0 25 19.5 43.5t44.5 18.5q21 0 35.5 -14t14.5 -36zM291 613q0 -24 -19.5 -43t-44.5 -19q-21 0 -35.5 14.5t-14.5 35.5q0 25 19.5 43.5t44.5 18.5q21 0 35.5 -14t14.5 -36zM214 -12q-89 0 -138.5 52
t-49.5 141q0 117 69.5 215.5t176.5 98.5q89 0 138.5 -52t49.5 -141q0 -117 -69.5 -215.5t-176.5 -98.5zM218 76q40 0 73.5 38.5t50 89.5t16.5 97q0 52 -23.5 79t-66.5 27q-40 0 -73.5 -38.5t-50 -89.5t-16.5 -97q0 -52 23.5 -79t66.5 -27z" />
    <glyph glyph-name="divide" unicode="&#xf7;" horiz-adv-x="443" 
d="M427 305h-384l14 65h384zM200 119q-20 0 -34 14.5t-14 33.5q0 24 17.5 41t40.5 17q20 0 34 -14.5t14 -34.5q0 -24 -17 -40.5t-41 -16.5zM273 447q-20 0 -34 14.5t-14 34.5q0 23 17 40t41 17q20 0 34 -14.5t14 -34.5q0 -24 -17 -40.5t-41 -16.5z" />
    <glyph glyph-name="oslash" unicode="&#xf8;" horiz-adv-x="488" 
d="M54 0h-65l64 70q-27 45 -27 111q0 117 69.5 215.5t176.5 98.5q80 0 129 -43l28 31h66l-63 -69q28 -47 28 -112q0 -117 -69.5 -215.5t-176.5 -98.5q-81 0 -131 44zM218 76q40 0 73.5 38.5t50 89.5t16.5 97q0 15 -3 29l-206 -225q23 -29 69 -29zM128 182q0 -19 2 -28
l205 225q-24 28 -67 28q-40 0 -73.5 -38.5t-50 -89.5t-16.5 -97z" />
    <glyph glyph-name="ugrave" unicode="&#xf9;" horiz-adv-x="485" 
d="M112 483h100l-73 -328q-4 -18 -4 -27q0 -52 62 -52q55 0 107 68l75 339h100l-107 -483h-100l15 64q-68 -76 -143 -76q-53 0 -84.5 27t-31.5 73q0 15 5 35zM363 556h-68l-102 144h93z" />
    <glyph glyph-name="uacute" unicode="&#xfa;" horiz-adv-x="485" 
d="M495 700l-166 -144h-70l142 144h94zM112 483h100l-73 -328q-4 -18 -4 -27q0 -52 62 -52q55 0 107 68l75 339h100l-107 -483h-100l15 64q-68 -76 -143 -76q-53 0 -84.5 27t-31.5 73q0 15 5 35z" />
    <glyph glyph-name="ucircumflex" unicode="&#xfb;" horiz-adv-x="485" 
d="M438 556h-58l-46 97l-85 -97h-62l111 144h91zM112 483h100l-73 -328q-4 -18 -4 -27q0 -52 62 -52q55 0 107 68l75 339h100l-107 -483h-100l15 64q-68 -76 -143 -76q-53 0 -84.5 27t-31.5 73q0 15 5 35z" />
    <glyph glyph-name="udieresis" unicode="&#xfc;" horiz-adv-x="485" 
d="M472 613q0 -24 -19.5 -43t-44.5 -19q-21 0 -35.5 14.5t-14.5 35.5q0 25 19.5 43.5t44.5 18.5q21 0 35.5 -14t14.5 -36zM291 613q0 -24 -19.5 -43t-44.5 -19q-21 0 -35.5 14.5t-14.5 35.5q0 25 19.5 43.5t44.5 18.5q21 0 35.5 -14t14.5 -36zM112 483h100l-73 -328
q-4 -18 -4 -27q0 -52 62 -52q55 0 107 68l75 339h100l-107 -483h-100l15 64q-68 -76 -143 -76q-53 0 -84.5 27t-31.5 73q0 15 5 35z" />
    <glyph glyph-name="yacute" unicode="&#xfd;" horiz-adv-x="430" 
d="M-52 -185l33 85q10 -7 36 -7q30 0 54 39l35 61l-51 490h103l26 -363l189 363h109l-318 -574q-33 -58 -67 -81.5t-82 -23.5q-38 0 -67 11zM464 700l-166 -144h-70l142 144h94z" />
    <glyph glyph-name="thorn" unicode="&#xfe;" horiz-adv-x="492" 
d="M245 -12q-90 0 -126 79l-55 -251h-100l188 851h100l-55 -246q53 74 127 74q67 0 105.5 -45.5t38.5 -128.5q0 -73 -24.5 -147.5t-77.5 -130t-121 -55.5zM228 76q40 0 72.5 39.5t48 91t15.5 98.5q0 48 -23 75t-62 27q-28 0 -55 -19.5t-45 -48.5l-43 -196q10 -29 35 -48
t57 -19z" />
    <glyph glyph-name="ydieresis" unicode="&#xff;" horiz-adv-x="430" 
d="M-52 -185l33 85q10 -7 36 -7q30 0 54 39l35 61l-51 490h103l26 -363l189 363h109l-318 -574q-33 -58 -67 -81.5t-82 -23.5q-38 0 -67 11zM441 613q0 -24 -19.5 -43t-44.5 -19q-21 0 -35.5 14.5t-14.5 35.5q0 25 19.5 43.5t44.5 18.5q21 0 35.5 -14t14.5 -36zM260 613
q0 -24 -19.5 -43t-44.5 -19q-21 0 -35.5 14.5t-14.5 35.5q0 25 19.5 43.5t44.5 18.5q21 0 35.5 -14t14.5 -36z" />
    <glyph glyph-name="Amacron" unicode="&#x100;" horiz-adv-x="536" 
d="M479 0h-115l-7 132h-220l-64 -132h-125l346 667h133zM355 230l-16 319l-157 -319h173zM530 734h-307l13 60h307z" />
    <glyph glyph-name="amacron" unicode="&#x101;" horiz-adv-x="494" 
d="M248 495q42 0 75.5 -20.5t50.5 -58.5l15 67h99l-107 -483h-100l14 62q-53 -74 -126 -74q-67 0 -105.5 45.5t-38.5 128.5q0 73 24.5 147.5t77.5 130t121 55.5zM266 407q-59 0 -98 -76t-39 -153q0 -48 23 -75t62 -27q28 0 55 19.5t44 48.5l44 196q-10 29 -35 48t-56 19z
M469 567h-307l13 60h307z" />
    <glyph glyph-name="Abreve" unicode="&#x102;" horiz-adv-x="536" 
d="M479 0h-115l-7 132h-220l-64 -132h-125l346 667h133zM355 230l-16 319l-157 -319h173zM531 783q-72 -75 -164 -75q-94 0 -133 75l52 38q26 -53 91 -53t113 53z" />
    <glyph glyph-name="abreve" unicode="&#x103;" horiz-adv-x="494" 
d="M248 495q42 0 75.5 -20.5t50.5 -58.5l15 67h99l-107 -483h-100l14 62q-53 -74 -126 -74q-67 0 -105.5 45.5t-38.5 128.5q0 73 24.5 147.5t77.5 130t121 55.5zM266 407q-59 0 -98 -76t-39 -153q0 -48 23 -75t62 -27q28 0 55 19.5t44 48.5l44 196q-10 29 -35 48t-56 19z
M471 616q-72 -75 -164 -75q-94 0 -133 75l52 38q26 -53 91 -53t113 53z" />
    <glyph glyph-name="Aogonek" unicode="&#x104;" horiz-adv-x="536" 
d="M460 -107l37 -29q-32 -50 -84 -50q-35 0 -56.5 17.5t-21.5 50.5q0 66 68 118h-39l-7 132h-220l-64 -132h-125l346 667h133l52 -667q-92 -49 -92 -111q0 -30 31 -30q27 0 42 34zM355 230l-16 319l-157 -319h173z" />
    <glyph glyph-name="aogonek" unicode="&#x105;" horiz-adv-x="494" 
d="M362 -107l37 -29q-32 -50 -84 -50q-35 0 -56.5 17.5t-21.5 50.5q0 66 68 118h-24l14 62q-53 -74 -126 -74q-67 0 -105.5 45.5t-38.5 128.5q0 73 24.5 147.5t77.5 130t121 55.5q42 0 75.5 -20.5t50.5 -58.5l15 67h99l-107 -483q-92 -49 -92 -111q0 -30 31 -30q27 0 42 34z
M266 407q-59 0 -98 -76t-39 -153q0 -48 23 -75t62 -27q28 0 55 19.5t44 48.5l44 196q-10 29 -35 48t-56 19z" />
    <glyph glyph-name="Cacute" unicode="&#x106;" horiz-adv-x="547" 
d="M596 872l-166 -144h-70l142 144h94zM281 -12q-107 0 -172.5 67t-65.5 182q0 109 39.5 209t116 166t171.5 66q89 0 143 -49t74 -126l-105 -29q-28 106 -119 106q-56 0 -104.5 -53t-75 -131t-26.5 -157q0 -72 34.5 -112t95.5 -40q70 0 127 79l86 -49q-85 -129 -219 -129z
" />
    <glyph glyph-name="cacute" unicode="&#x107;" horiz-adv-x="415" 
d="M502 700l-166 -144h-70l142 144h94zM217 -12q-87 0 -138.5 52t-51.5 144q0 119 71 215t178 96q105 0 152 -71l-63 -65q-27 48 -85 48q-66 0 -108.5 -69t-42.5 -148q0 -56 28.5 -85t74.5 -29q49 0 85 41l39 -72q-59 -57 -139 -57z" />
    <glyph glyph-name="Ccircumflex" unicode="&#x108;" horiz-adv-x="547" 
d="M538 723h-58l-46 97l-85 -97h-62l111 144h91zM281 -12q-107 0 -172.5 67t-65.5 182q0 109 39.5 209t116 166t171.5 66q89 0 143 -49t74 -126l-105 -29q-28 106 -119 106q-56 0 -104.5 -53t-75 -131t-26.5 -157q0 -72 34.5 -112t95.5 -40q70 0 127 79l86 -49
q-85 -129 -219 -129z" />
    <glyph glyph-name="ccircumflex" unicode="&#x109;" horiz-adv-x="415" 
d="M444 556h-58l-46 97l-85 -97h-62l111 144h91zM217 -12q-87 0 -138.5 52t-51.5 144q0 119 71 215t178 96q105 0 152 -71l-63 -65q-27 48 -85 48q-66 0 -108.5 -69t-42.5 -148q0 -56 28.5 -85t74.5 -29q49 0 85 41l39 -72q-59 -57 -139 -57z" />
    <glyph glyph-name="Cdotaccent" unicode="&#x10a;" horiz-adv-x="547" 
d="M281 -12q-107 0 -172.5 67t-65.5 182q0 109 39.5 209t116 166t171.5 66q89 0 143 -49t74 -126l-105 -29q-28 106 -119 106q-56 0 -104.5 -53t-75 -131t-26.5 -157q0 -72 34.5 -112t95.5 -40q70 0 127 79l86 -49q-85 -129 -219 -129zM480 780q0 -25 -19 -44t-45 -19
q-22 0 -36 14t-14 36q0 25 19 44t45 19q22 0 36 -14.5t14 -35.5z" />
    <glyph glyph-name="cdotaccent" unicode="&#x10b;" horiz-adv-x="415" 
d="M217 -12q-87 0 -138.5 52t-51.5 144q0 119 71 215t178 96q105 0 152 -71l-63 -65q-27 48 -85 48q-66 0 -108.5 -69t-42.5 -148q0 -56 28.5 -85t74.5 -29q49 0 85 41l39 -72q-59 -57 -139 -57zM387 613q0 -25 -19 -44t-45 -19q-22 0 -36 14t-14 36q0 25 19 44t45 19
q22 0 36 -14.5t14 -35.5z" />
    <glyph glyph-name="Ccaron" unicode="&#x10c;" horiz-adv-x="547" 
d="M461 723h-91l-50 144h58l45 -97l86 97h62zM281 -12q-107 0 -172.5 67t-65.5 182q0 109 39.5 209t116 166t171.5 66q89 0 143 -49t74 -126l-105 -29q-28 106 -119 106q-56 0 -104.5 -53t-75 -131t-26.5 -157q0 -72 34.5 -112t95.5 -40q70 0 127 79l86 -49
q-85 -129 -219 -129z" />
    <glyph glyph-name="ccaron" unicode="&#x10d;" horiz-adv-x="415" 
d="M366 556h-91l-50 144h58l45 -97l86 97h62zM217 -12q-87 0 -138.5 52t-51.5 144q0 119 71 215t178 96q105 0 152 -71l-63 -65q-27 48 -85 48q-66 0 -108.5 -69t-42.5 -148q0 -56 28.5 -85t74.5 -29q49 0 85 41l39 -72q-59 -57 -139 -57z" />
    <glyph glyph-name="Dcaron" unicode="&#x10e;" horiz-adv-x="583" 
d="M450 723h-91l-50 144h58l45 -97l86 97h62zM209 0h-199l147 667h195q90 0 155 -67.5t65 -180.5q0 -55 -11.5 -110.5t-39 -112t-68 -99.5t-103.5 -70t-141 -27zM142 98h86q72 0 126.5 51.5t79 122t24.5 143.5q0 71 -36 113t-91 42h-85z" />
    <glyph glyph-name="dcaron" unicode="&#x10f;" horiz-adv-x="588" 
d="M673 623q0 -43 -32 -86.5t-78 -66.5l-31 33q61 29 78 74q-1 -1 -8 -1q-17 0 -29.5 12.5t-12.5 32.5q0 23 18.5 40.5t41.5 17.5t38 -14.5t15 -41.5zM248 495q42 0 75.5 -20.5t50.5 -58.5l55 251h100l-148 -667h-100l14 62q-53 -74 -126 -74q-67 0 -105.5 45.5t-38.5 128.5
q0 73 24.5 147.5t77.5 130t121 55.5zM266 407q-59 0 -98 -76t-39 -153q0 -48 23 -75t62 -27q28 0 55 19.5t44 48.5l44 196q-10 29 -35 48t-56 19z" />
    <glyph glyph-name="Dcroat" unicode="&#x110;" horiz-adv-x="606" 
d="M233 0h-199l63 289h-74l20 90h74l64 288h195q90 0 155 -67.5t65 -180.5q0 -55 -11.5 -110.5t-39 -112t-68 -99.5t-103.5 -70t-141 -27zM324 289h-116l-42 -191h86q72 0 126.5 51.5t79 122t24.5 143.5q0 71 -36 113t-91 42h-85l-42 -191h116z" />
    <glyph glyph-name="dcroat" unicode="&#x111;" horiz-adv-x="496" 
d="M248 495q42 0 75.5 -20.5t50.5 -58.5l25 116h-138l12 60h139l17 75h100l-17 -75h49l-13 -60h-49l-118 -532h-100l14 62q-53 -74 -126 -74q-67 0 -105.5 45.5t-38.5 128.5q0 73 24.5 147.5t77.5 130t121 55.5zM266 407q-59 0 -98 -76t-39 -153q0 -48 23 -75t62 -27
q28 0 55 19.5t44 48.5l44 196q-10 29 -35 48t-56 19z" />
    <glyph glyph-name="Emacron" unicode="&#x112;" horiz-adv-x="472" 
d="M375 0h-365l147 667h365l-21 -97h-255l-40 -181h248l-22 -98h-247l-43 -193h254zM508 734h-307l13 60h307z" />
    <glyph glyph-name="emacron" unicode="&#x113;" horiz-adv-x="474" 
d="M226 -12q-93 0 -146 52t-53 144q0 69 28 139t86.5 121t131.5 51q81 0 128 -49.5t47 -136.5q0 -44 -14 -100h-307q-4 -15 -4 -35q0 -42 29.5 -73t85.5 -31q59 0 107 43l34 -65q-65 -60 -153 -60zM139 280h215q4 15 4 37q0 42 -24 69.5t-69 27.5q-48 0 -82.5 -41t-43.5 -93
zM471 567h-307l13 60h307z" />
    <glyph glyph-name="Ebreve" unicode="&#x114;" horiz-adv-x="472" 
d="M375 0h-365l147 667h365l-21 -97h-255l-40 -181h248l-22 -98h-247l-43 -193h254zM510 783q-72 -75 -164 -75q-94 0 -133 75l52 38q26 -53 91 -53t113 53z" />
    <glyph glyph-name="ebreve" unicode="&#x115;" horiz-adv-x="474" 
d="M226 -12q-93 0 -146 52t-53 144q0 69 28 139t86.5 121t131.5 51q81 0 128 -49.5t47 -136.5q0 -44 -14 -100h-307q-4 -15 -4 -35q0 -42 29.5 -73t85.5 -31q59 0 107 43l34 -65q-65 -60 -153 -60zM139 280h215q4 15 4 37q0 42 -24 69.5t-69 27.5q-48 0 -82.5 -41t-43.5 -93
zM473 616q-72 -75 -164 -75q-94 0 -133 75l52 38q26 -53 91 -53t113 53z" />
    <glyph glyph-name="Edotaccent" unicode="&#x116;" horiz-adv-x="472" 
d="M375 0h-365l147 667h365l-21 -97h-255l-40 -181h248l-22 -98h-247l-43 -193h254zM422 784q0 -25 -19 -44t-45 -19q-22 0 -36 14t-14 36q0 25 19 44t45 19q22 0 36 -14.5t14 -35.5z" />
    <glyph glyph-name="edotaccent" unicode="&#x117;" horiz-adv-x="474" 
d="M226 -12q-93 0 -146 52t-53 144q0 69 28 139t86.5 121t131.5 51q81 0 128 -49.5t47 -136.5q0 -44 -14 -100h-307q-4 -15 -4 -35q0 -42 29.5 -73t85.5 -31q59 0 107 43l34 -65q-65 -60 -153 -60zM139 280h215q4 15 4 37q0 42 -24 69.5t-69 27.5q-48 0 -82.5 -41t-43.5 -93
zM383 613q0 -25 -19 -44t-45 -19q-22 0 -36 14t-14 36q0 25 19 44t45 19q22 0 36 -14.5t14 -35.5z" />
    <glyph glyph-name="Eogonek" unicode="&#x118;" horiz-adv-x="472" 
d="M375 0q-92 -49 -92 -111q0 -30 31 -30q27 0 42 34l37 -29q-32 -50 -84 -50q-35 0 -56.5 17.5t-21.5 50.5q0 66 68 118h-289l147 667h365l-21 -97h-255l-40 -181h248l-22 -98h-247l-43 -193h254z" />
    <glyph glyph-name="eogonek" unicode="&#x119;" horiz-adv-x="474" 
d="M278 -107l37 -29q-32 -50 -84 -50q-35 0 -56.5 17.5t-21.5 50.5q0 59 54 107q-85 5 -132.5 56t-47.5 139q0 69 28 139t86.5 121t131.5 51q81 0 128 -49.5t47 -136.5q0 -44 -14 -100h-307q-4 -15 -4 -35q0 -42 29.5 -73t85.5 -31q59 0 107 43l34 -65q-37 -34 -84 -49
q-90 -48 -90 -110q0 -30 31 -30q27 0 42 34zM139 280h215q4 15 4 37q0 42 -24 69.5t-69 27.5q-48 0 -82.5 -41t-43.5 -93z" />
    <glyph glyph-name="Ecaron" unicode="&#x11a;" horiz-adv-x="472" 
d="M399 723h-91l-50 144h58l45 -97l86 97h62zM375 0h-365l147 667h365l-21 -97h-255l-40 -181h248l-22 -98h-247l-43 -193h254z" />
    <glyph glyph-name="ecaron" unicode="&#x11b;" horiz-adv-x="474" 
d="M363 556h-91l-50 144h58l45 -97l86 97h62zM226 -12q-93 0 -146 52t-53 144q0 69 28 139t86.5 121t131.5 51q81 0 128 -49.5t47 -136.5q0 -44 -14 -100h-307q-4 -15 -4 -35q0 -42 29.5 -73t85.5 -31q59 0 107 43l34 -65q-65 -60 -153 -60zM139 280h215q4 15 4 37
q0 42 -24 69.5t-69 27.5q-48 0 -82.5 -41t-43.5 -93z" />
    <glyph glyph-name="Gcircumflex" unicode="&#x11c;" horiz-adv-x="576" 
d="M541 723h-58l-46 97l-85 -97h-62l111 144h91zM281 -12q-107 0 -172.5 67t-65.5 182q0 110 39 209.5t116.5 165.5t176.5 66q84 0 135.5 -45t70.5 -115l-98 -34q-12 43 -43.5 69.5t-76.5 26.5q-56 0 -104 -52t-75 -130t-27 -159q0 -72 34 -112t96 -40q60 0 112 54l26 117
h-140l22 98h245l-57 -257q-88 -111 -214 -111z" />
    <glyph glyph-name="gcircumflex" unicode="&#x11d;" horiz-adv-x="493" 
d="M431 548h-58l-46 97l-85 -97h-62l111 144h91zM162 -196q-126 0 -187 71l58 71q39 -58 127 -58q96 0 123 123l15 64q-51 -74 -129 -74q-64 0 -103.5 43t-39.5 127q0 72 23.5 144t76 126t121.5 54q38 0 74 -21.5t52 -57.5l15 67h99l-103 -466q-47 -213 -222 -213zM215 89
q27 0 54.5 19t45.5 47l41 184q-11 30 -37 49t-58 19q-39 0 -70.5 -36.5t-46.5 -86t-15 -95.5q0 -49 23 -74.5t63 -25.5z" />
    <glyph glyph-name="Gbreve" unicode="&#x11e;" horiz-adv-x="576" 
d="M281 -12q-107 0 -172.5 67t-65.5 182q0 110 39 209.5t116.5 165.5t176.5 66q84 0 135.5 -45t70.5 -115l-98 -34q-12 43 -43.5 69.5t-76.5 26.5q-56 0 -104 -52t-75 -130t-27 -159q0 -72 34 -112t96 -40q60 0 112 54l26 117h-140l22 98h245l-57 -257q-88 -111 -214 -111z
M573 783q-72 -75 -164 -75q-94 0 -133 75l52 38q26 -53 91 -53t113 53z" />
    <glyph glyph-name="gbreve" unicode="&#x11f;" horiz-adv-x="493" 
d="M162 -196q-126 0 -187 71l58 71q39 -58 127 -58q96 0 123 123l15 64q-51 -74 -129 -74q-64 0 -103.5 43t-39.5 127q0 72 23.5 144t76 126t121.5 54q38 0 74 -21.5t52 -57.5l15 67h99l-103 -466q-47 -213 -222 -213zM215 89q27 0 54.5 19t45.5 47l41 184q-11 30 -37 49
t-58 19q-39 0 -70.5 -36.5t-46.5 -86t-15 -95.5q0 -49 23 -74.5t63 -25.5zM466 616q-72 -75 -164 -75q-94 0 -133 75l52 38q26 -53 91 -53t113 53z" />
    <glyph glyph-name="Gdotaccent" unicode="&#x120;" horiz-adv-x="576" 
d="M281 -12q-107 0 -172.5 67t-65.5 182q0 110 39 209.5t116.5 165.5t176.5 66q84 0 135.5 -45t70.5 -115l-98 -34q-12 43 -43.5 69.5t-76.5 26.5q-56 0 -104 -52t-75 -130t-27 -159q0 -72 34 -112t96 -40q60 0 112 54l26 117h-140l22 98h245l-57 -257q-88 -111 -214 -111z
M483 780q0 -25 -19 -44t-45 -19q-22 0 -36 14t-14 36q0 25 19 44t45 19q22 0 36 -14.5t14 -35.5z" />
    <glyph glyph-name="gdotaccent" unicode="&#x121;" horiz-adv-x="493" 
d="M162 -196q-126 0 -187 71l58 71q39 -58 127 -58q96 0 123 123l15 64q-51 -74 -129 -74q-64 0 -103.5 43t-39.5 127q0 72 23.5 144t76 126t121.5 54q38 0 74 -21.5t52 -57.5l15 67h99l-103 -466q-47 -213 -222 -213zM215 89q27 0 54.5 19t45.5 47l41 184q-11 30 -37 49
t-58 19q-39 0 -70.5 -36.5t-46.5 -86t-15 -95.5q0 -49 23 -74.5t63 -25.5zM376 613q0 -25 -19 -44t-45 -19q-22 0 -36 14t-14 36q0 25 19 44t45 19q22 0 36 -14.5t14 -35.5z" />
    <glyph glyph-name="Gcommaaccent" unicode="&#x122;" horiz-adv-x="576" 
d="M283 -121q0 -43 -32 -86.5t-78 -66.5l-31 33q61 29 78 74q-1 -1 -8 -1q-17 0 -29.5 12.5t-12.5 32.5q0 23 18.5 40.5t41.5 17.5t38 -14.5t15 -41.5zM281 -12q-107 0 -172.5 67t-65.5 182q0 110 39 209.5t116.5 165.5t176.5 66q84 0 135.5 -45t70.5 -115l-98 -34
q-12 43 -43.5 69.5t-76.5 26.5q-56 0 -104 -52t-75 -130t-27 -159q0 -72 34 -112t96 -40q60 0 112 54l26 117h-140l22 98h245l-57 -257q-88 -111 -214 -111z" />
    <glyph glyph-name="gcommaaccent" unicode="&#x123;" horiz-adv-x="493" 
d="M265 607q0 43 32.5 87t78.5 67l30 -33q-25 -12 -47.5 -32.5t-30.5 -41.5h8q18 0 30.5 -12.5t12.5 -32.5q0 -24 -18.5 -41.5t-42.5 -17.5q-23 0 -38 15t-15 42zM162 -196q-126 0 -187 71l58 71q39 -58 127 -58q96 0 123 123l15 64q-51 -74 -129 -74q-64 0 -103.5 43
t-39.5 127q0 72 23.5 144t76 126t121.5 54q38 0 74 -21.5t52 -57.5l15 67h99l-103 -466q-47 -213 -222 -213zM215 89q27 0 54.5 19t45.5 47l41 184q-11 30 -37 49t-58 19q-39 0 -70.5 -36.5t-46.5 -86t-15 -95.5q0 -49 23 -74.5t63 -25.5z" />
    <glyph glyph-name="Hcircumflex" unicode="&#x124;" horiz-adv-x="593" 
d="M528 723h-58l-46 97l-85 -97h-62l111 144h91zM476 0h-111l65 294h-245l-64 -294h-111l147 667h111l-61 -275h244l61 275h111z" />
    <glyph glyph-name="hcircumflex" unicode="&#x125;" horiz-adv-x="485" 
d="M476 723h-58l-46 97l-85 -97h-62l111 144h91zM372 0h-99l72 329q4 12 4 26q0 52 -62 52q-55 0 -108 -69l-74 -338h-100l147 667h100l-55 -248q68 76 143 76q54 0 85 -27t31 -73q0 -10 -5 -35z" />
    <glyph glyph-name="Hbar" unicode="&#x126;" horiz-adv-x="620" 
d="M490 0h-111l65 294h-245l-64 -294h-111l110 501h-63l13 60h63l24 106h111l-24 -106h244l24 106h111l-24 -106h61l-13 -60h-61zM221 392h244l24 109h-244z" />
    <glyph glyph-name="hbar" unicode="&#x127;" horiz-adv-x="485" 
d="M372 0h-99l72 329q4 12 4 26q0 52 -62 52q-55 0 -108 -69l-74 -338h-100l117 532h-52l13 59h52l17 76h100l-17 -76h134l-13 -59h-134l-25 -113q68 76 143 76q54 0 85 -27t31 -73q0 -10 -5 -35z" />
    <glyph glyph-name="Itilde" unicode="&#x128;" horiz-adv-x="239" 
d="M121 0h-111l147 667h111zM287 721q-23 0 -38 12.5t-21.5 28t-16.5 28t-24 12.5q-30 0 -46 -75h-55q29 134 109 134q23 0 38 -12.5t21.5 -27.5t16.5 -27.5t24 -12.5q29 0 46 74h55q-29 -134 -109 -134z" />
    <glyph glyph-name="itilde" unicode="&#x129;" horiz-adv-x="218" 
d="M105 0h-100l107 483h100zM239 554q-23 0 -38 12.5t-21.5 28t-16.5 28t-24 12.5q-30 0 -46 -75h-55q29 134 109 134q23 0 38 -12.5t21.5 -27.5t16.5 -27.5t24 -12.5q29 0 46 74h55q-29 -134 -109 -134z" />
    <glyph glyph-name="Imacron" unicode="&#x12a;" horiz-adv-x="239" 
d="M121 0h-111l147 667h111zM382 734h-307l13 60h307z" />
    <glyph glyph-name="imacron" unicode="&#x12b;" horiz-adv-x="218" 
d="M105 0h-100l107 483h100zM334 567h-307l13 60h307z" />
    <glyph glyph-name="Ibreve" unicode="&#x12c;" horiz-adv-x="239" 
d="M121 0h-111l147 667h111zM383 783q-72 -75 -164 -75q-94 0 -133 75l52 38q26 -53 91 -53t113 53z" />
    <glyph glyph-name="ibreve" unicode="&#x12d;" horiz-adv-x="218" 
d="M105 0h-100l107 483h100zM336 616q-72 -75 -164 -75q-94 0 -133 75l52 38q26 -53 91 -53t113 53z" />
    <glyph glyph-name="Iogonek" unicode="&#x12e;" horiz-adv-x="239" 
d="M102 -107l37 -29q-32 -50 -84 -50q-35 0 -56.5 17.5t-21.5 50.5q0 66 68 118h-35l147 667h111l-147 -667q-92 -49 -92 -111q0 -30 31 -30q27 0 42 34z" />
    <glyph glyph-name="iogonek" unicode="&#x12f;" horiz-adv-x="218" 
d="M86 -107l37 -29q-32 -50 -84 -50q-35 0 -56.5 17.5t-21.5 50.5q0 66 68 118h-24l107 483h100l-107 -483q-92 -49 -92 -111q0 -30 31 -30q27 0 42 34zM181 544q-24 0 -40 15.5t-16 38.5q0 32 22 51.5t48 19.5q24 0 40.5 -16t16.5 -38q0 -32 -22.5 -51.5t-48.5 -19.5z" />
    <glyph glyph-name="Idotaccent" unicode="&#x130;" horiz-adv-x="239" 
d="M121 0h-111l147 667h111zM294 780q0 -25 -19 -44t-45 -19q-22 0 -36 14t-14 36q0 25 19 44t45 19q22 0 36 -14.5t14 -35.5z" />
    <glyph glyph-name="dotlessi" unicode="&#x131;" horiz-adv-x="218" 
d="M105 0h-100l107 483h100z" />
    <glyph glyph-name="IJ" unicode="&#x132;" horiz-adv-x="647" 
d="M121 0h-111l147 667h111zM361 -12q-103 0 -154 63l56 84q29 -48 90 -48q86 0 108 100l106 480h111l-107 -483q-22 -101 -73 -148.5t-137 -47.5z" />
    <glyph glyph-name="ij" unicode="&#x133;" horiz-adv-x="435" 
d="M181 544q-24 0 -40 15.5t-16 38.5q0 32 22 51.5t48 19.5q24 0 40.5 -16t16.5 -38q0 -32 -22.5 -51.5t-48.5 -19.5zM105 0h-100l107 483h100zM160 -196q-67 0 -98 35l43 72q16 -23 45 -23q48 0 63 71l117 524h100l-117 -524q-18 -79 -53.5 -117t-99.5 -38zM399 544
q-24 0 -40 15.5t-16 38.5q0 32 22 51.5t48 19.5q24 0 40.5 -16t16.5 -38q0 -32 -22.5 -51.5t-48.5 -19.5z" />
    <glyph glyph-name="Jcircumflex" unicode="&#x134;" horiz-adv-x="409" 
d="M522 723h-58l-46 97l-85 -97h-62l111 144h91zM122 -12q-103 0 -154 63l56 84q29 -48 90 -48q86 0 108 100l106 480h111l-107 -483q-22 -101 -73 -148.5t-137 -47.5z" />
    <glyph glyph-name="jcircumflex" unicode="&#x135;" horiz-adv-x="218" 
d="M305 556h-58l-46 97l-85 -97h-62l111 144h91zM-58 -196q-67 0 -98 35l43 72q16 -23 45 -23q48 0 63 71l117 524h100l-117 -524q-18 -79 -53.5 -117t-99.5 -38z" />
    <glyph glyph-name="Kcommaaccent" unicode="&#x136;" horiz-adv-x="535" 
d="M258 -121q0 -43 -32 -86.5t-78 -66.5l-31 33q61 29 78 74q-1 -1 -8 -1q-17 0 -29.5 12.5t-12.5 32.5q0 23 18.5 40.5t41.5 17.5t38 -14.5t15 -41.5zM474 0h-124l-116 279l-70 -80l-43 -199h-111l147 667h111l-68 -309l268 309h137l-287 -315z" />
    <glyph glyph-name="kcommaaccent" unicode="&#x137;" horiz-adv-x="456" 
d="M213 -121q0 -43 -32 -86.5t-78 -66.5l-31 33q61 29 78 74q-1 -1 -8 -1q-17 0 -29.5 12.5t-12.5 32.5q0 23 18.5 40.5t41.5 17.5t38 -14.5t15 -41.5zM394 0h-114l-71 205l-78 -81l-26 -124h-100l147 667h100l-92 -415l218 231h120l-208 -217z" />
    <glyph glyph-name="kgreenlandic" unicode="&#x138;" horiz-adv-x="456" 
d="M394 0h-114l-71 205l-78 -81l-26 -124h-100l107 483h100l-52 -231l218 231h120l-208 -217z" />
    <glyph glyph-name="Lacute" unicode="&#x139;" horiz-adv-x="434" 
d="M523 867l-166 -144h-70l142 144h94zM352 0h-342l147 667h111l-126 -569h231z" />
    <glyph glyph-name="lacute" unicode="&#x13a;" horiz-adv-x="218" 
d="M399 867l-166 -144h-70l142 144h94zM105 0h-100l147 667h100z" />
    <glyph glyph-name="Lcommaaccent" unicode="&#x13b;" horiz-adv-x="434" 
d="M211 -121q0 -43 -32 -86.5t-78 -66.5l-31 33q61 29 78 74q-1 -1 -8 -1q-17 0 -29.5 12.5t-12.5 32.5q0 23 18.5 40.5t41.5 17.5t38 -14.5t15 -41.5zM352 0h-342l147 667h111l-126 -569h231z" />
    <glyph glyph-name="lcommaaccent" unicode="&#x13c;" horiz-adv-x="218" 
d="M81 -121q0 -43 -32 -86.5t-78 -66.5l-31 33q61 29 78 74q-1 -1 -8 -1q-17 0 -29.5 12.5t-12.5 32.5q0 23 18.5 40.5t41.5 17.5t38 -14.5t15 -41.5zM105 0h-100l147 667h100z" />
    <glyph glyph-name="Lcaron" unicode="&#x13d;" horiz-adv-x="434" 
d="M438 624q0 -43 -32 -86.5t-78 -66.5l-31 33q61 29 78 74q-1 -1 -8 -1q-17 0 -29.5 12.5t-12.5 32.5q0 24 18.5 41t41.5 17t38 -14.5t15 -41.5zM352 0h-342l147 667h111l-126 -569h231z" />
    <glyph glyph-name="lcaron" unicode="&#x13e;" horiz-adv-x="310" 
d="M410 624q0 -43 -32 -86.5t-78 -66.5l-31 33q61 29 78 74q-1 -1 -8 -1q-17 0 -29.5 12.5t-12.5 32.5q0 24 18.5 41t41.5 17t38 -14.5t15 -41.5zM105 0h-100l147 667h100z" />
    <glyph glyph-name="Ldot" unicode="&#x13f;" horiz-adv-x="459" 
d="M352 0h-342l147 667h111l-126 -569h231zM363 275q-25 0 -43 17.5t-18 43.5q0 30 21.5 51.5t51.5 21.5q25 0 43 -18t18 -44q0 -30 -21.5 -51t-51.5 -21z" />
    <glyph glyph-name="ldot" unicode="&#x140;" horiz-adv-x="339" 
d="M105 0h-100l147 667h100zM272 178q-26 0 -43.5 18t-17.5 43q0 30 21.5 51.5t51.5 21.5q25 0 43 -18t18 -44q0 -30 -21.5 -51t-51.5 -21z" />
    <glyph glyph-name="Lslash" unicode="&#x141;" horiz-adv-x="452" 
d="M12 218l20 92l72 37l71 320h111l-57 -256l81 42l-20 -93l-81 -42l-49 -220h231l-21 -98h-342l56 255z" />
    <glyph glyph-name="lslash" unicode="&#x142;" horiz-adv-x="266" 
d="M10 230l17 76l79 40l71 321h100l-58 -264l77 39l-17 -75l-77 -39l-72 -328h-100l59 270z" />
    <glyph glyph-name="Nacute" unicode="&#x143;" horiz-adv-x="592" 
d="M586 867l-166 -144h-70l142 144h94zM474 0h-106l-148 452l-99 -452h-111l147 667h112l144 -438l97 438h111z" />
    <glyph glyph-name="nacute" unicode="&#x144;" horiz-adv-x="485" 
d="M493 700l-166 -144h-70l142 144h94zM372 0h-100l73 329q4 14 4 26q0 52 -57 52q-59 0 -113 -68l-74 -339h-100l107 483h100l-15 -64q68 76 143 76q53 0 84.5 -27t31.5 -73q0 -15 -5 -35z" />
    <glyph glyph-name="Ncommaaccent" unicode="&#x145;" horiz-adv-x="592" 
d="M270 -121q0 -43 -32 -86.5t-78 -66.5l-31 33q61 29 78 74q-1 -1 -8 -1q-17 0 -29.5 12.5t-12.5 32.5q0 23 18.5 40.5t41.5 17.5t38 -14.5t15 -41.5zM474 0h-106l-148 452l-99 -452h-111l147 667h112l144 -438l97 438h111z" />
    <glyph glyph-name="ncommaaccent" unicode="&#x146;" horiz-adv-x="485" 
d="M214 -121q0 -43 -32 -86.5t-78 -66.5l-31 33q61 29 78 74q-1 -1 -8 -1q-17 0 -29.5 12.5t-12.5 32.5q0 23 18.5 40.5t41.5 17.5t38 -14.5t15 -41.5zM372 0h-100l73 329q4 14 4 26q0 52 -57 52q-59 0 -113 -68l-74 -339h-100l107 483h100l-15 -64q68 76 143 76
q53 0 84.5 -27t31.5 -73q0 -15 -5 -35z" />
    <glyph glyph-name="Ncaron" unicode="&#x147;" horiz-adv-x="592" 
d="M450 723h-91l-50 144h58l45 -97l86 97h62zM474 0h-106l-148 452l-99 -452h-111l147 667h112l144 -438l97 438h111z" />
    <glyph glyph-name="ncaron" unicode="&#x148;" horiz-adv-x="485" 
d="M358 556h-91l-50 144h58l45 -97l86 97h62zM372 0h-100l73 329q4 14 4 26q0 52 -57 52q-59 0 -113 -68l-74 -339h-100l107 483h100l-15 -64q68 76 143 76q53 0 84.5 -27t31.5 -73q0 -15 -5 -35z" />
    <glyph glyph-name="napostrophe" unicode="&#x149;" horiz-adv-x="485" 
d="M254 697q0 -43 -32 -86.5t-78 -66.5l-31 33q61 29 78 74q-1 -1 -8 -1q-17 0 -29.5 12.5t-12.5 32.5q0 23 18.5 40.5t41.5 17.5t38 -14.5t15 -41.5zM372 0h-100l73 329q4 14 4 26q0 52 -57 52q-59 0 -113 -68l-74 -339h-100l107 483h100l-15 -64q68 76 143 76
q53 0 84.5 -27t31.5 -73q0 -15 -5 -35z" />
    <glyph glyph-name="Eng" unicode="&#x14a;" horiz-adv-x="592" 
d="M264 -196q-103 0 -154 62l54 78q30 -48 91 -48q84 0 107 100l3 13l-145 443l-99 -452h-111l147 667h112l144 -438l97 438h111l-148 -669q-23 -101 -74 -147.5t-135 -46.5z" />
    <glyph glyph-name="eng" unicode="&#x14b;" horiz-adv-x="485" 
d="M451 360l-88 -401q-18 -80 -54 -117.5t-99 -37.5q-67 0 -98 35l44 76q16 -23 44 -23q47 0 63 67l82 370q4 18 4 26q0 52 -57 52q-61 0 -113 -68l-74 -339h-100l107 483h100l-15 -65q67 77 143 77q52 0 84 -26.5t32 -73.5q0 -15 -5 -35z" />
    <glyph glyph-name="Omacron" unicode="&#x14c;" horiz-adv-x="612" 
d="M569 734h-307l13 60h307zM281 -12q-108 0 -173 68.5t-65 180.5q0 106 38 205t114.5 167.5t174.5 68.5q107 0 172.5 -69t65.5 -180q0 -105 -38 -204.5t-115 -168t-174 -68.5zM287 87q57 0 105.5 52.5t74.5 130t26 156.5q0 71 -36 112.5t-94 41.5q-57 0 -105.5 -52.5
t-74.5 -130.5t-26 -158q0 -71 35.5 -111.5t94.5 -40.5z" />
    <glyph glyph-name="omacron" unicode="&#x14d;" horiz-adv-x="488" 
d="M470 567h-307l13 60h307zM214 -12q-89 0 -138.5 52t-49.5 141q0 117 69.5 215.5t176.5 98.5q89 0 138.5 -52t49.5 -141q0 -117 -69.5 -215.5t-176.5 -98.5zM218 76q40 0 73.5 38.5t50 89.5t16.5 97q0 52 -23.5 79t-66.5 27q-40 0 -73.5 -38.5t-50 -89.5t-16.5 -97
q0 -52 23.5 -79t66.5 -27z" />
    <glyph glyph-name="Obreve" unicode="&#x14e;" horiz-adv-x="612" 
d="M281 -12q-108 0 -173 68.5t-65 180.5q0 106 38 205t114.5 167.5t174.5 68.5q107 0 172.5 -69t65.5 -180q0 -105 -38 -204.5t-115 -168t-174 -68.5zM287 87q57 0 105.5 52.5t74.5 130t26 156.5q0 71 -36 112.5t-94 41.5q-57 0 -105.5 -52.5t-74.5 -130.5t-26 -158
q0 -71 35.5 -111.5t94.5 -40.5zM570 783q-72 -75 -164 -75q-94 0 -133 75l52 38q26 -53 91 -53t113 53z" />
    <glyph glyph-name="obreve" unicode="&#x14f;" horiz-adv-x="488" 
d="M214 -12q-89 0 -138.5 52t-49.5 141q0 117 69.5 215.5t176.5 98.5q89 0 138.5 -52t49.5 -141q0 -117 -69.5 -215.5t-176.5 -98.5zM218 76q40 0 73.5 38.5t50 89.5t16.5 97q0 52 -23.5 79t-66.5 27q-40 0 -73.5 -38.5t-50 -89.5t-16.5 -97q0 -52 23.5 -79t66.5 -27z
M471 616q-72 -75 -164 -75q-94 0 -133 75l52 38q26 -53 91 -53t113 53z" />
    <glyph glyph-name="Ohungarumlaut" unicode="&#x150;" horiz-adv-x="612" 
d="M488 867l-129 -144h-59l105 144h83zM622 867l-129 -144h-58l104 144h83zM281 -12q-108 0 -173 68.5t-65 180.5q0 106 38 205t114.5 167.5t174.5 68.5q107 0 172.5 -69t65.5 -180q0 -105 -38 -204.5t-115 -168t-174 -68.5zM287 87q57 0 105.5 52.5t74.5 130t26 156.5
q0 71 -36 112.5t-94 41.5q-57 0 -105.5 -52.5t-74.5 -130.5t-26 -158q0 -71 35.5 -111.5t94.5 -40.5z" />
    <glyph glyph-name="ohungarumlaut" unicode="&#x151;" horiz-adv-x="488" 
d="M392 700l-129 -144h-59l105 144h83zM526 700l-129 -144h-58l104 144h83zM214 -12q-89 0 -138.5 52t-49.5 141q0 117 69.5 215.5t176.5 98.5q89 0 138.5 -52t49.5 -141q0 -117 -69.5 -215.5t-176.5 -98.5zM218 76q40 0 73.5 38.5t50 89.5t16.5 97q0 52 -23.5 79t-66.5 27
q-40 0 -73.5 -38.5t-50 -89.5t-16.5 -97q0 -52 23.5 -79t66.5 -27z" />
    <glyph glyph-name="OE" unicode="&#x152;" horiz-adv-x="855" 
d="M759 0h-365l15 72q-61 -84 -164 -84q-90 0 -146.5 68.5t-56.5 180.5q0 110 40 210t116 165t169 65q117 0 155 -99l19 89h365l-21 -97h-254l-40 -181h247l-22 -98h-247l-43 -193h254zM438 198l56 254q-9 62 -41.5 94.5t-83.5 32.5q-61 0 -111 -52.5t-75.5 -130
t-25.5 -157.5q0 -69 33.5 -110.5t91.5 -41.5q45 0 86.5 29.5t69.5 81.5z" />
    <glyph glyph-name="oe" unicode="&#x153;" horiz-adv-x="788" 
d="M750 209h-304q-3 -15 -3 -35q0 -45 29 -74.5t83 -29.5q59 0 105 44l35 -66q-65 -60 -152 -60q-64 0 -106.5 32t-54.5 77q-35 -51 -74 -80t-96 -29q-87 0 -136.5 51t-49.5 142q0 76 29 147t86 119t129 48q59 0 98 -31t53 -77q69 108 169 108q78 0 126 -48t48 -138
q0 -42 -14 -100zM458 280h211q5 15 5 37q0 43 -23.5 70t-67.5 27q-49 0 -82.5 -42t-42.5 -92zM354 301q0 52 -24 79t-64 27q-58 0 -98 -73.5t-40 -151.5q0 -50 22.5 -78t65.5 -28q40 0 73 38.5t49 89t16 97.5z" />
    <glyph glyph-name="Racute" unicode="&#x154;" horiz-adv-x="533" 
d="M558 867l-166 -144h-70l142 144h94zM440 0h-119l-57 252h-88l-55 -252h-111l147 667h208q73 0 123.5 -48t50.5 -123q0 -87 -48.5 -151.5t-119.5 -79.5zM197 350h104q56 0 88.5 40t32.5 96q0 38 -23 61t-56 23h-97z" />
    <glyph glyph-name="racute" unicode="&#x155;" horiz-adv-x="308" 
d="M426 700l-166 -144h-70l142 144h94zM105 0h-100l107 483h100l-15 -66q58 77 151 77l-23 -99q-12 4 -34 4q-64 0 -114 -69z" />
    <glyph glyph-name="Rcommaaccent" unicode="&#x156;" horiz-adv-x="533" 
d="M243 -121q0 -43 -32 -86.5t-78 -66.5l-31 33q61 29 78 74q-1 -1 -8 -1q-17 0 -29.5 12.5t-12.5 32.5q0 23 18.5 40.5t41.5 17.5t38 -14.5t15 -41.5zM440 0h-119l-57 252h-88l-55 -252h-111l147 667h208q73 0 123.5 -48t50.5 -123q0 -87 -48.5 -151.5t-119.5 -79.5z
M197 350h104q56 0 88.5 40t32.5 96q0 38 -23 61t-56 23h-97z" />
    <glyph glyph-name="rcommaaccent" unicode="&#x157;" horiz-adv-x="308" 
d="M153 -121q0 -43 -32 -86.5t-78 -66.5l-31 33q61 29 78 74q-1 -1 -8 -1q-17 0 -29.5 12.5t-12.5 32.5q0 23 18.5 40.5t41.5 17.5t38 -14.5t15 -41.5zM105 0h-100l107 483h100l-15 -66q58 77 151 77l-23 -99q-12 4 -34 4q-64 0 -114 -69z" />
    <glyph glyph-name="Rcaron" unicode="&#x158;" horiz-adv-x="533" 
d="M422 723h-91l-50 144h58l45 -97l86 97h62zM440 0h-119l-57 252h-88l-55 -252h-111l147 667h208q73 0 123.5 -48t50.5 -123q0 -87 -48.5 -151.5t-119.5 -79.5zM197 350h104q56 0 88.5 40t32.5 96q0 38 -23 61t-56 23h-97z" />
    <glyph glyph-name="rcaron" unicode="&#x159;" horiz-adv-x="308" 
d="M295 556h-91l-50 144h58l45 -97l86 97h62zM105 0h-100l107 483h100l-15 -66q58 77 151 77l-23 -99q-12 4 -34 4q-64 0 -114 -69z" />
    <glyph glyph-name="Sacute" unicode="&#x15a;" horiz-adv-x="486" 
d="M534 867l-166 -144h-70l142 144h94zM217 -12q-71 0 -132 27t-92 71l69 81q25 -36 68.5 -58t91.5 -22t76.5 29.5t28.5 72.5q0 27 -24.5 51t-59.5 44.5t-69.5 44t-59 60t-24.5 82.5q0 85 63.5 146t158.5 61q59 0 112 -22.5t86 -61.5l-66 -80q-25 31 -63 48.5t-78 17.5
q-41 0 -68.5 -27t-27.5 -63q0 -25 24.5 -48.5t59.5 -44t69.5 -44.5t59 -61.5t24.5 -83.5q0 -92 -63 -156t-164 -64z" />
    <glyph glyph-name="sacute" unicode="&#x15b;" horiz-adv-x="401" 
d="M453 700l-166 -144h-70l142 144h94zM169 -12q-57 0 -105.5 21t-76.5 57l58 67q18 -27 53.5 -46.5t75.5 -19.5q34 0 56 20t22 47q0 24 -30.5 45.5t-66.5 37t-66.5 47.5t-30.5 76q0 64 46.5 109.5t126.5 45.5q49 0 93.5 -19.5t70.5 -51.5l-53 -64q-14 23 -46.5 39.5
t-66.5 16.5t-54 -16.5t-20 -42.5q0 -18 20.5 -34t49.5 -30t57.5 -31t49 -45.5t20.5 -64.5q0 -68 -50.5 -116t-132.5 -48z" />
    <glyph glyph-name="Scircumflex" unicode="&#x15c;" horiz-adv-x="486" 
d="M477 723h-58l-46 97l-85 -97h-62l111 144h91zM217 -12q-71 0 -132 27t-92 71l69 81q25 -36 68.5 -58t91.5 -22t76.5 29.5t28.5 72.5q0 27 -24.5 51t-59.5 44.5t-69.5 44t-59 60t-24.5 82.5q0 85 63.5 146t158.5 61q59 0 112 -22.5t86 -61.5l-66 -80q-25 31 -63 48.5
t-78 17.5q-41 0 -68.5 -27t-27.5 -63q0 -25 24.5 -48.5t59.5 -44t69.5 -44.5t59 -61.5t24.5 -83.5q0 -92 -63 -156t-164 -64z" />
    <glyph glyph-name="scircumflex" unicode="&#x15d;" horiz-adv-x="401" 
d="M397 556h-58l-46 97l-85 -97h-62l111 144h91zM169 -12q-57 0 -105.5 21t-76.5 57l58 67q18 -27 53.5 -46.5t75.5 -19.5q34 0 56 20t22 47q0 24 -30.5 45.5t-66.5 37t-66.5 47.5t-30.5 76q0 64 46.5 109.5t126.5 45.5q49 0 93.5 -19.5t70.5 -51.5l-53 -64
q-14 23 -46.5 39.5t-66.5 16.5t-54 -16.5t-20 -42.5q0 -18 20.5 -34t49.5 -30t57.5 -31t49 -45.5t20.5 -64.5q0 -68 -50.5 -116t-132.5 -48z" />
    <glyph glyph-name="Scedilla" unicode="&#x15e;" horiz-adv-x="486" 
d="M149 -194q-64 0 -101 39l29 41q30 -33 73 -33q23 0 36.5 12t13.5 30q0 25 -28 25q-17 0 -29 -14l-34 22l40 67q-106 22 -156 91l69 81q25 -36 68.5 -58t91.5 -22t76.5 29.5t28.5 72.5q0 27 -24.5 51t-59.5 44.5t-69.5 44t-59 60t-24.5 82.5q0 85 63.5 146t158.5 61
q59 0 112 -22.5t86 -61.5l-66 -80q-25 31 -63 48.5t-78 17.5q-41 0 -68.5 -27t-27.5 -63q0 -25 24.5 -48.5t59.5 -44t69.5 -44.5t59 -61.5t24.5 -83.5q0 -92 -63 -156t-164 -64q-13 0 -19 1l-27 -43q12 11 28 11q24 0 39.5 -16t15.5 -43q0 -40 -30 -66t-75 -26z" />
    <glyph glyph-name="scedilla" unicode="&#x15f;" horiz-adv-x="401" 
d="M112 -194q-64 0 -101 39l29 41q30 -33 73 -33q23 0 36.5 12t13.5 30q0 25 -28 25q-17 0 -29 -14l-34 22l39 66q-83 18 -124 72l58 67q18 -27 53.5 -46.5t75.5 -19.5q34 0 56 20t22 47q0 24 -30.5 45.5t-66.5 37t-66.5 47.5t-30.5 76q0 64 46.5 109.5t126.5 45.5
q49 0 93.5 -19.5t70.5 -51.5l-53 -64q-14 23 -46.5 39.5t-66.5 16.5t-54 -16.5t-20 -42.5q0 -18 20.5 -34t49.5 -30t57.5 -31t49 -45.5t20.5 -64.5q0 -68 -50.5 -116t-132.5 -48h-9l-26 -42q12 11 28 11q24 0 39.5 -16t15.5 -43q0 -40 -30 -66t-75 -26z" />
    <glyph glyph-name="Scaron" unicode="&#x160;" horiz-adv-x="486" 
d="M399 723h-91l-50 144h58l45 -97l86 97h62zM217 -12q-71 0 -132 27t-92 71l69 81q25 -36 68.5 -58t91.5 -22t76.5 29.5t28.5 72.5q0 27 -24.5 51t-59.5 44.5t-69.5 44t-59 60t-24.5 82.5q0 85 63.5 146t158.5 61q59 0 112 -22.5t86 -61.5l-66 -80q-25 31 -63 48.5
t-78 17.5q-41 0 -68.5 -27t-27.5 -63q0 -25 24.5 -48.5t59.5 -44t69.5 -44.5t59 -61.5t24.5 -83.5q0 -92 -63 -156t-164 -64z" />
    <glyph glyph-name="scaron" unicode="&#x161;" horiz-adv-x="401" 
d="M319 556h-91l-50 144h58l45 -97l86 97h62zM169 -12q-57 0 -105.5 21t-76.5 57l58 67q18 -27 53.5 -46.5t75.5 -19.5q34 0 56 20t22 47q0 24 -30.5 45.5t-66.5 37t-66.5 47.5t-30.5 76q0 64 46.5 109.5t126.5 45.5q49 0 93.5 -19.5t70.5 -51.5l-53 -64q-14 23 -46.5 39.5
t-66.5 16.5t-54 -16.5t-20 -42.5q0 -18 20.5 -34t49.5 -30t57.5 -31t49 -45.5t20.5 -64.5q0 -68 -50.5 -116t-132.5 -48z" />
    <glyph glyph-name="Tcommaaccent" unicode="&#x162;" horiz-adv-x="462" 
d="M208 -121q0 -43 -32 -86.5t-78 -66.5l-31 33q61 29 78 74q-1 -1 -8 -1q-17 0 -29.5 12.5t-12.5 32.5q0 23 18.5 40.5t41.5 17.5t38 -14.5t15 -41.5zM232 0h-110l125 570h-152l21 97h416l-22 -97h-152z" />
    <glyph glyph-name="tcommaaccent" unicode="&#x163;" horiz-adv-x="283" 
d="M115 -121q0 -43 -32 -86.5t-78 -66.5l-31 33q61 29 78 74q-1 -1 -8 -1q-17 0 -29.5 12.5t-12.5 32.5q0 23 18.5 40.5t41.5 17.5t38 -14.5t15 -41.5zM158 -12q-114 0 -114 89q0 18 4 35l63 285h-63l19 86h64l29 132h99l-29 -132h81l-20 -86h-80l-59 -264q-3 -18 -3 -22
q0 -35 38 -35q19 0 34 11l6 -79q-27 -20 -69 -20z" />
    <glyph glyph-name="Tcaron" unicode="&#x164;" horiz-adv-x="462" 
d="M379 723h-91l-50 144h58l45 -97l86 97h62zM232 0h-110l125 570h-152l21 97h416l-22 -97h-152z" />
    <glyph glyph-name="tcaron" unicode="&#x165;" horiz-adv-x="318" 
d="M437 697q0 -43 -32 -86.5t-78 -66.5l-31 33q61 29 78 74q-1 -1 -8 -1q-17 0 -29.5 12.5t-12.5 32.5q0 23 18.5 40.5t41.5 17.5t38 -14.5t15 -41.5zM158 -12q-114 0 -114 89q0 18 4 35l63 285h-63l19 86h64l29 132h99l-29 -132h81l-20 -86h-80l-59 -264q-3 -18 -3 -22
q0 -35 38 -35q19 0 34 11l6 -79q-27 -20 -69 -20z" />
    <glyph glyph-name="Tbar" unicode="&#x166;" horiz-adv-x="462" 
d="M232 0h-110l61 280h-106l13 59h106l51 231h-152l21 97h416l-22 -97h-152l-51 -231h106l-13 -59h-106z" />
    <glyph glyph-name="tbar" unicode="&#x167;" horiz-adv-x="283" 
d="M158 -12q-114 0 -114 89q0 18 4 35l23 107h-62l12 59h63l27 119h-63l19 86h64l29 132h99l-29 -132h81l-20 -86h-80l-27 -119h53l-14 -59h-52l-19 -86q-3 -18 -3 -22q0 -35 38 -35q19 0 34 11l6 -79q-27 -20 -69 -20z" />
    <glyph glyph-name="Utilde" unicode="&#x168;" horiz-adv-x="592" 
d="M272 -12q-100 0 -158.5 52t-58.5 140q0 26 5 46l97 441h111l-98 -444q-3 -21 -3 -35q0 -46 29 -74t80 -28q56 0 88.5 34t47.5 103l98 444h111l-98 -443q-52 -236 -251 -236zM462 721q-23 0 -38 12.5t-21.5 28t-16.5 28t-24 12.5q-30 0 -46 -75h-55q29 134 109 134
q23 0 38 -12.5t21.5 -27.5t16.5 -27.5t24 -12.5q29 0 46 74h55q-29 -134 -109 -134z" />
    <glyph glyph-name="utilde" unicode="&#x169;" horiz-adv-x="485" 
d="M112 483h100l-73 -328q-4 -18 -4 -27q0 -52 62 -52q55 0 107 68l75 339h100l-107 -483h-100l15 64q-68 -76 -143 -76q-53 0 -84.5 27t-31.5 73q0 15 5 35zM373 554q-23 0 -38 12.5t-21.5 28t-16.5 28t-24 12.5q-30 0 -46 -75h-55q29 134 109 134q23 0 38 -12.5
t21.5 -27.5t16.5 -27.5t24 -12.5q29 0 46 74h55q-29 -134 -109 -134z" />
    <glyph glyph-name="Umacron" unicode="&#x16a;" horiz-adv-x="592" 
d="M272 -12q-100 0 -158.5 52t-58.5 140q0 26 5 46l97 441h111l-98 -444q-3 -21 -3 -35q0 -46 29 -74t80 -28q56 0 88.5 34t47.5 103l98 444h111l-98 -443q-52 -236 -251 -236zM558 734h-307l13 60h307z" />
    <glyph glyph-name="umacron" unicode="&#x16b;" horiz-adv-x="485" 
d="M112 483h100l-73 -328q-4 -18 -4 -27q0 -52 62 -52q55 0 107 68l75 339h100l-107 -483h-100l15 64q-68 -76 -143 -76q-53 0 -84.5 27t-31.5 73q0 15 5 35zM469 567h-307l13 60h307z" />
    <glyph glyph-name="Ubreve" unicode="&#x16c;" horiz-adv-x="592" 
d="M272 -12q-100 0 -158.5 52t-58.5 140q0 26 5 46l97 441h111l-98 -444q-3 -21 -3 -35q0 -46 29 -74t80 -28q56 0 88.5 34t47.5 103l98 444h111l-98 -443q-52 -236 -251 -236zM558 783q-72 -75 -164 -75q-94 0 -133 75l52 38q26 -53 91 -53t113 53z" />
    <glyph glyph-name="ubreve" unicode="&#x16d;" horiz-adv-x="485" 
d="M112 483h100l-73 -328q-4 -18 -4 -27q0 -52 62 -52q55 0 107 68l75 339h100l-107 -483h-100l15 64q-68 -76 -143 -76q-53 0 -84.5 27t-31.5 73q0 15 5 35zM470 616q-72 -75 -164 -75q-94 0 -133 75l52 38q26 -53 91 -53t113 53z" />
    <glyph glyph-name="Uring" unicode="&#x16e;" horiz-adv-x="592" 
d="M406 691q-38 0 -61.5 24t-23.5 62q0 42 31 73t73 31q38 0 61.5 -24t23.5 -62q0 -42 -31 -73t-73 -31zM410 739q21 0 37 15.5t16 36.5q0 19 -11.5 31t-30.5 12q-21 0 -37 -15.5t-16 -36.5q0 -19 11.5 -31t30.5 -12zM272 -12q-100 0 -158.5 52t-58.5 140q0 26 5 46l97 441
h111l-98 -444q-3 -21 -3 -35q0 -46 29 -74t80 -28q56 0 88.5 34t47.5 103l98 444h111l-98 -443q-52 -236 -251 -236z" />
    <glyph glyph-name="uring" unicode="&#x16f;" horiz-adv-x="485" 
d="M320 538q-38 0 -61.5 24t-23.5 62q0 42 31 73t73 31q38 0 61.5 -24t23.5 -62q0 -42 -31 -73t-73 -31zM324 586q21 0 37 15.5t16 36.5q0 19 -11.5 31t-30.5 12q-21 0 -37 -15.5t-16 -36.5q0 -19 11.5 -31t30.5 -12zM112 483h100l-73 -328q-4 -18 -4 -27q0 -52 62 -52
q55 0 107 68l75 339h100l-107 -483h-100l15 64q-68 -76 -143 -76q-53 0 -84.5 27t-31.5 73q0 15 5 35z" />
    <glyph glyph-name="Uhungarumlaut" unicode="&#x170;" horiz-adv-x="592" 
d="M272 -12q-100 0 -158.5 52t-58.5 140q0 26 5 46l97 441h111l-98 -444q-3 -21 -3 -35q0 -46 29 -74t80 -28q56 0 88.5 34t47.5 103l98 444h111l-98 -443q-52 -236 -251 -236zM479 867l-129 -144h-59l105 144h83zM613 867l-129 -144h-58l104 144h83z" />
    <glyph glyph-name="uhungarumlaut" unicode="&#x171;" horiz-adv-x="485" 
d="M112 483h100l-73 -328q-4 -18 -4 -27q0 -52 62 -52q55 0 107 68l75 339h100l-107 -483h-100l15 64q-68 -76 -143 -76q-53 0 -84.5 27t-31.5 73q0 15 5 35zM391 700l-129 -144h-59l105 144h83zM525 700l-129 -144h-58l104 144h83z" />
    <glyph glyph-name="Uogonek" unicode="&#x172;" horiz-adv-x="592" 
d="M335 -107l37 -29q-32 -50 -84 -50q-35 0 -56.5 17.5t-21.5 50.5q0 59 53 106q-97 2 -152.5 54t-55.5 138q0 26 5 46l97 441h111l-98 -444q-3 -21 -3 -35q0 -46 29 -74t80 -28q56 0 88.5 34t47.5 103l98 444h111l-98 -443q-42 -188 -172 -225q-89 -48 -89 -110
q0 -30 31 -30q27 0 42 34z" />
    <glyph glyph-name="uogonek" unicode="&#x173;" horiz-adv-x="485" 
d="M112 483h100l-73 -328q-4 -18 -4 -27q0 -52 62 -52q55 0 107 68l75 339h100l-107 -483q-92 -49 -92 -111q0 -30 31 -30q27 0 42 34l37 -29q-32 -50 -84 -50q-35 0 -56.5 17.5t-21.5 50.5q0 66 68 118h-24l15 64q-68 -76 -143 -76q-53 0 -84.5 27t-31.5 73q0 15 5 35z" />
    <glyph glyph-name="Wcircumflex" unicode="&#x174;" horiz-adv-x="745" 
d="M602 723h-58l-46 97l-85 -97h-62l111 144h91zM530 0h-116l11 479l-202 -479h-116l-4 667h117l-15 -498l214 498h89l-7 -498l206 498h121z" />
    <glyph glyph-name="wcircumflex" unicode="&#x175;" horiz-adv-x="667" 
d="M525 556h-58l-46 97l-85 -97h-62l111 144h91zM477 0h-104l-16 355l-171 -355h-104l-22 483h100l6 -352l170 352h92l16 -352l162 352h107z" />
    <glyph glyph-name="Ycircumflex" unicode="&#x176;" horiz-adv-x="521" 
d="M493 723h-58l-46 97l-85 -97h-62l111 144h91zM262 0h-110l61 278l-121 389h117l76 -285l202 285h128l-292 -389z" />
    <glyph glyph-name="ycircumflex" unicode="&#x177;" horiz-adv-x="430" 
d="M-52 -185l33 85q10 -7 36 -7q30 0 54 39l35 61l-51 490h103l26 -363l189 363h109l-318 -574q-33 -58 -67 -81.5t-82 -23.5q-38 0 -67 11zM407 556h-58l-46 97l-85 -97h-62l111 144h91z" />
    <glyph glyph-name="Ydieresis" unicode="&#x178;" horiz-adv-x="521" 
d="M527 780q0 -24 -19.5 -43t-44.5 -19q-21 0 -35.5 14.5t-14.5 35.5q0 25 19.5 43.5t44.5 18.5q21 0 35.5 -14t14.5 -36zM346 780q0 -24 -19.5 -43t-44.5 -19q-21 0 -35.5 14.5t-14.5 35.5q0 25 19.5 43.5t44.5 18.5q21 0 35.5 -14t14.5 -36zM262 0h-110l61 278l-121 389
h117l76 -285l202 285h128l-292 -389z" />
    <glyph glyph-name="Zacute" unicode="&#x179;" horiz-adv-x="475" 
d="M522 867l-166 -144h-70l142 144h94zM383 0h-400l21 92l357 478h-251l21 97h392l-19 -90l-360 -479h261z" />
    <glyph glyph-name="zacute" unicode="&#x17a;" horiz-adv-x="399" 
d="M448 700l-166 -144h-70l142 144h94zM306 0h-322l16 76l261 320h-189l19 87h318l-16 -73l-262 -323h194z" />
    <glyph glyph-name="Zdotaccent" unicode="&#x17b;" horiz-adv-x="475" 
d="M383 0h-400l21 92l357 478h-251l21 97h392l-19 -90l-360 -479h261zM407 780q0 -25 -19 -44t-45 -19q-22 0 -36 14t-14 36q0 25 19 44t45 19q22 0 36 -14.5t14 -35.5z" />
    <glyph glyph-name="zdotaccent" unicode="&#x17c;" horiz-adv-x="399" 
d="M306 0h-322l16 76l261 320h-189l19 87h318l-16 -73l-262 -323h194zM334 613q0 -25 -19 -44t-45 -19q-22 0 -36 14t-14 36q0 25 19 44t45 19q22 0 36 -14.5t14 -35.5z" />
    <glyph glyph-name="Zcaron" unicode="&#x17d;" horiz-adv-x="475" 
d="M388 723h-91l-50 144h58l45 -97l86 97h62zM383 0h-400l21 92l357 478h-251l21 97h392l-19 -90l-360 -479h261z" />
    <glyph glyph-name="zcaron" unicode="&#x17e;" horiz-adv-x="399" 
d="M313 556h-91l-50 144h58l45 -97l86 97h62zM306 0h-322l16 76l261 320h-189l19 87h318l-16 -73l-262 -323h194z" />
    <glyph glyph-name="longs" unicode="&#x17f;" horiz-adv-x="274" 
d="M125 0h-99l87 397h-63l20 86h62l10 45q32 149 154 149q67 0 102 -37l-48 -67q-17 20 -45 20q-48 0 -64 -65z" />
    <glyph glyph-name="florin" unicode="&#x192;" horiz-adv-x="414" 
d="M75 -161h-113l90 408h-52v88h72l45 204q14 65 52 101.5t98 36.5q67 0 105 -35l-39 -81q-15 19 -43 19q-52 0 -65 -66l-40 -179h104v-88h-124z" />
    <glyph glyph-name="Ohorn" unicode="&#x1a0;" horiz-adv-x="612" 
d="M281 -12q-108 0 -173 68.5t-65 180.5q0 106 38 205t114.5 167.5t174.5 68.5q131 0 197 -100q43 28 54 61h-7q-16 0 -27 11t-11 30q0 22 16.5 37.5t38.5 15.5q20 0 33.5 -14t13.5 -38q0 -38 -26.5 -77t-65.5 -61q22 -53 22 -114q0 -105 -38 -204.5t-115 -168t-174 -68.5z
M287 87q57 0 105.5 52.5t74.5 130t26 156.5q0 71 -36 112.5t-94 41.5q-57 0 -105.5 -52.5t-74.5 -130.5t-26 -158q0 -71 35.5 -111.5t94.5 -40.5z" />
    <glyph glyph-name="ohorn" unicode="&#x1a1;" horiz-adv-x="488" 
d="M520 547q0 -37 -24.5 -73.5t-62.5 -60.5q27 -48 27 -111q0 -117 -69.5 -215.5t-176.5 -98.5q-89 0 -138.5 52t-49.5 141q0 117 69.5 215.5t176.5 98.5q87 0 137 -50q43 29 54 60h-7q-16 0 -27.5 11t-11.5 30q0 21 17 37t38 16q20 0 34 -13.5t14 -38.5zM218 76
q40 0 73.5 38.5t50 89.5t16.5 97q0 52 -23.5 79t-66.5 27q-40 0 -73.5 -38.5t-50 -89.5t-16.5 -97q0 -52 23.5 -79t66.5 -27z" />
    <glyph glyph-name="Uhorn" unicode="&#x1af;" horiz-adv-x="592" 
d="M733 743q0 -46 -37 -90t-93 -66l-80 -363q-52 -236 -251 -236q-100 0 -158.5 52t-58.5 140q0 26 5 46l97 441h111l-98 -444q-3 -21 -3 -35q0 -46 29 -74t80 -28q56 0 88.5 34t47.5 103l98 444h111l-7 -31q49 29 62 66q-1 -1 -7 -1q-16 0 -27.5 11.5t-11.5 29.5
q0 22 16.5 37.5t38.5 15.5q21 0 34.5 -13.5t13.5 -38.5z" />
    <glyph glyph-name="uhorn" unicode="&#x1b0;" horiz-adv-x="485" 
d="M568 556q0 -41 -29 -80.5t-76 -64.5l-91 -411h-100l15 64q-68 -76 -143 -76q-53 0 -84.5 27t-31.5 73q0 22 5 35l79 360h99l-73 -329q-3 -24 -3 -26q0 -52 62 -52q52 0 107 67l75 340h100l-4 -15q27 22 36 46h-7q-16 0 -27.5 11.5t-11.5 29.5q0 22 16.5 37.5t38.5 15.5
q20 0 34 -14t14 -38z" />
    <glyph glyph-name="AEacute" unicode="&#x1fc;" horiz-adv-x="772" 
d="M711 867l-166 -144h-70l142 144h94zM676 0h-365l29 132h-179l-88 -132h-124l463 667h411l-21 -97h-254l-40 -181h247l-22 -98h-247l-43 -193h254zM362 230l68 310l-207 -310h139z" />
    <glyph glyph-name="aeacute" unicode="&#x1fd;" horiz-adv-x="775" 
d="M638 700l-166 -144h-70l142 144h94zM266 407q-59 0 -98 -76t-39 -153q0 -48 23 -75t62 -27q28 0 55 19.5t44 48.5l44 196q-10 29 -35 48t-56 19zM401 91l-20 -91h-100l14 62q-53 -74 -126 -74q-67 0 -105.5 45.5t-38.5 128.5q0 73 24.5 147.5t77.5 130t121 55.5
q42 0 75.5 -20.5t50.5 -58.5l15 67h99l-14 -64q55 76 133 76q70 0 107 -45.5t37 -133.5q0 -49 -15 -107h-306q-3 -17 -3 -35q0 -43 29.5 -73t85.5 -30q57 0 105 45l34 -71q-63 -57 -136 -57q-116 0 -144 103zM442 280h213q4 16 4 37q0 42 -22.5 69.5t-66.5 27.5
q-48 0 -83 -41t-45 -93z" />
    <glyph glyph-name="Oslashacute" unicode="&#x1fe;" horiz-adv-x="612" 
d="M596 867l-166 -144h-70l142 144h94zM281 -12q-95 0 -157 53l-33 -41h-76l69 86q-41 61 -41 151q0 106 38 205t114.5 167.5t174.5 68.5q89 0 153 -51l32 40h75l-67 -83q45 -65 45 -155q0 -105 -38 -204.5t-115 -168t-174 -68.5zM287 87q57 0 105.5 52.5t74.5 130t26 156.5
q0 34 -9 61l-291 -361q36 -39 94 -39zM157 239q0 -31 6 -55l291 358q-36 38 -91 38q-57 0 -105.5 -52.5t-74.5 -130.5t-26 -158z" />
    <glyph glyph-name="oslashacute" unicode="&#x1ff;" horiz-adv-x="488" 
d="M496 700l-166 -144h-70l142 144h94zM54 0h-65l64 70q-27 45 -27 111q0 117 69.5 215.5t176.5 98.5q80 0 129 -43l28 31h66l-63 -69q28 -47 28 -112q0 -117 -69.5 -215.5t-176.5 -98.5q-81 0 -131 44zM218 76q40 0 73.5 38.5t50 89.5t16.5 97q0 15 -3 29l-206 -225
q23 -29 69 -29zM128 182q0 -19 2 -28l205 225q-24 28 -67 28q-40 0 -73.5 -38.5t-50 -89.5t-16.5 -97z" />
    <glyph glyph-name="Scommaaccent" unicode="&#x218;" horiz-adv-x="486" 
d="M219 -121q0 -43 -32 -86.5t-78 -66.5l-31 33q61 29 78 74q-1 -1 -8 -1q-17 0 -29.5 12.5t-12.5 32.5q0 23 18.5 40.5t41.5 17.5t38 -14.5t15 -41.5zM217 -12q-71 0 -132 27t-92 71l69 81q25 -36 68.5 -58t91.5 -22t76.5 29.5t28.5 72.5q0 27 -24.5 51t-59.5 44.5
t-69.5 44t-59 60t-24.5 82.5q0 85 63.5 146t158.5 61q59 0 112 -22.5t86 -61.5l-66 -80q-25 31 -63 48.5t-78 17.5q-41 0 -68.5 -27t-27.5 -63q0 -25 24.5 -48.5t59.5 -44t69.5 -44.5t59 -61.5t24.5 -83.5q0 -92 -63 -156t-164 -64z" />
    <glyph glyph-name="scommaaccent" unicode="&#x219;" horiz-adv-x="402" 
d="M174 -121q0 -43 -32 -86.5t-78 -66.5l-31 33q61 29 78 74q-1 -1 -8 -1q-17 0 -29.5 12.5t-12.5 32.5q0 23 18.5 40.5t41.5 17.5t38 -14.5t15 -41.5zM169 -12q-57 0 -105.5 21t-76.5 57l58 67q18 -27 53.5 -46.5t75.5 -19.5q34 0 56 20t22 47q0 24 -30.5 45.5t-66.5 37
t-66.5 47.5t-30.5 76q0 64 46.5 109.5t126.5 45.5q49 0 93.5 -19.5t70.5 -51.5l-53 -64q-14 23 -46.5 39.5t-66.5 16.5t-54 -16.5t-20 -42.5q0 -18 20.5 -34t49.5 -30t57.5 -31t49 -45.5t20.5 -64.5q0 -68 -50.5 -116t-132.5 -48z" />
    <glyph glyph-name="uni021A" unicode="&#x21a;" horiz-adv-x="462" 
d="M208 -121q0 -43 -32 -86.5t-78 -66.5l-31 33q61 29 78 74q-1 -1 -8 -1q-17 0 -29.5 12.5t-12.5 32.5q0 23 18.5 40.5t41.5 17.5t38 -14.5t15 -41.5zM232 0h-110l125 570h-152l21 97h416l-22 -97h-152z" />
    <glyph glyph-name="uni021B" unicode="&#x21b;" horiz-adv-x="283" 
d="M112 -121q0 -43 -32 -86.5t-78 -66.5l-31 33q61 29 78 74q-1 -1 -8 -1q-17 0 -29.5 12.5t-12.5 32.5q0 23 18.5 40.5t41.5 17.5t38 -14.5t15 -41.5zM158 -12q-114 0 -114 89q0 18 4 35l63 285h-63l19 86h64l29 132h99l-29 -132h81l-20 -86h-80l-59 -264q-3 -18 -3 -22
q0 -35 38 -35q19 0 34 11l6 -79q-27 -20 -69 -20z" />
    <glyph glyph-name="uni0237" unicode="&#x237;" horiz-adv-x="218" 
d="M-58 -196q-67 0 -98 35l43 72q16 -23 45 -23q48 0 63 71l117 524h100l-117 -524q-18 -79 -53.5 -117t-99.5 -38z" />
    <glyph glyph-name="hsuperior" unicode="&#x2b0;" horiz-adv-x="353" 
d="M321 326h-74l46 207q2 10 2 18q0 35 -41 35q-34 0 -70 -45l-47 -215h-74l95 434h74l-35 -161q41 49 95 49q39 0 61 -18t22 -50q0 -9 -4 -27z" />
    <glyph glyph-name="uni02BC" unicode="&#x2bc;" horiz-adv-x="243" 
d="M273 608q0 -51 -38 -101.5t-93 -78.5l-37 39q29 15 55 38t35 46h-9q-21 0 -36 14.5t-15 39.5q0 29 22.5 50.5t50.5 21.5q27 0 46 -18.5t19 -50.5z" />
    <glyph glyph-name="circumflex" unicode="&#x2c6;" horiz-adv-x="251" 
d="M320 556h-58l-46 97l-85 -97h-62l111 144h91z" />
    <glyph glyph-name="caron" unicode="&#x2c7;" horiz-adv-x="251" 
d="M242 556h-91l-50 144h58l45 -97l86 97h62z" />
    <glyph glyph-name="uni02C9" unicode="&#x2c9;" horiz-adv-x="309" 
d="M385 591h-308l13 60h307z" />
    <glyph glyph-name="uni02CB" unicode="&#x2cb;" horiz-adv-x="202" 
d="M271 556h-68l-102 144h93z" />
    <glyph glyph-name="breve" unicode="&#x2d8;" horiz-adv-x="298" 
d="M379 616q-72 -75 -164 -75q-94 0 -133 75l52 38q26 -53 91 -53t113 53z" />
    <glyph glyph-name="dotaccent" unicode="&#x2d9;" horiz-adv-x="141" 
d="M208 613q0 -25 -19 -44t-45 -19q-22 0 -36 14t-14 36q0 25 19 44t45 19q22 0 36 -14.5t14 -35.5z" />
    <glyph glyph-name="ring" unicode="&#x2da;" horiz-adv-x="188" 
d="M170 538q-38 0 -61.5 24t-23.5 62q0 42 31 73t73 31q38 0 61.5 -24t23.5 -62q0 -42 -31 -73t-73 -31zM174 586q21 0 37 15.5t16 36.5q0 19 -11.5 31t-30.5 12q-21 0 -37 -15.5t-16 -36.5q0 -19 11.5 -31t30.5 -12z" />
    <glyph glyph-name="ogonek" unicode="&#x2db;" horiz-adv-x="168" 
d="M47 -107l37 -29q-32 -50 -84 -50q-35 0 -56.5 17.5t-21.5 50.5q0 84 108 144l36 -26q-92 -49 -92 -111q0 -30 31 -30q27 0 42 34z" />
    <glyph glyph-name="tilde" unicode="&#x2dc;" horiz-adv-x="282" 
d="M271 554q-23 0 -38 12.5t-21.5 28t-16.5 28t-24 12.5q-30 0 -46 -75h-55q29 134 109 134q23 0 38 -12.5t21.5 -27.5t16.5 -27.5t24 -12.5q29 0 46 74h55q-29 -134 -109 -134z" />
    <glyph glyph-name="hungarumlaut" unicode="&#x2dd;" horiz-adv-x="288" 
d="M255 700l-129 -144h-59l105 144h83zM389 700l-129 -144h-58l104 144h83z" />
    <glyph glyph-name="hookabovecomb" unicode="&#x309;" horiz-adv-x="168" 
d="M218 729l-35 15q24 46 71 46q27 0 44.5 -14.5t17.5 -41.5q0 -36 -29 -67h-47q33 30 33 60q1 12 -5.5 19t-17.5 7q-19 0 -32 -24z" />
    <glyph glyph-name="uni037E" unicode="&#x37e;" horiz-adv-x="242" 
d="M150 55q0 -51 -37.5 -102t-92.5 -79l-38 40q29 14 55 37t36 47q-2 -1 -10 -1q-21 0 -36 15t-15 40q0 29 22.5 50.5t50.5 21.5t46.5 -18.5t18.5 -50.5zM154 356q-26 0 -43.5 18t-17.5 44q0 29 22 50.5t51 21.5q26 0 44 -18t18 -43q0 -30 -22 -51.5t-52 -21.5z" />
    <glyph glyph-name="tonos" unicode="&#x384;" horiz-adv-x="485" 
d="M223 560h-46l66 205h90z" />
    <glyph glyph-name="dieresistonos" unicode="&#x385;" horiz-adv-x="485" 
d="M324 560h-47l67 205h90zM518 613q0 -24 -19.5 -43t-44.5 -19q-21 0 -35.5 14.5t-14.5 35.5q0 25 19 43.5t45 18.5q21 0 35.5 -14t14.5 -36zM248 613q0 -24 -19.5 -43t-44.5 -19q-21 0 -35.5 14.5t-14.5 35.5q0 25 19 43.5t45 18.5q21 0 35.5 -14t14.5 -36z" />
    <glyph glyph-name="Alphatonos" unicode="&#x386;" horiz-adv-x="536" 
d="M164 560h-46l66 205h90zM479 0h-115l-7 132h-220l-64 -132h-125l346 667h133zM355 230l-16 319l-157 -319h173z" />
    <glyph glyph-name="Epsilontonos" unicode="&#x388;" horiz-adv-x="506" 
d="M107 560h-46l66 205h90zM409 0h-365l147 667h365l-21 -97h-255l-40 -181h248l-22 -98h-247l-43 -193h254z" />
    <glyph glyph-name="Etatonos" unicode="&#x389;" horiz-adv-x="627" 
d="M107 560h-46l66 205h90zM510 0h-111l65 294h-245l-64 -294h-111l147 667h111l-61 -275h244l61 275h111z" />
    <glyph glyph-name="Iotatonos" unicode="&#x38a;" horiz-adv-x="272" 
d="M107 560h-46l66 205h90zM155 0h-111l147 667h111z" />
    <glyph glyph-name="Omicrontonos" unicode="&#x38c;" horiz-adv-x="621" 
d="M127 560h-46l66 205h90zM290 -12q-108 0 -173 68.5t-65 180.5q0 106 38 205t114.5 167.5t174.5 68.5q107 0 172.5 -69t65.5 -180q0 -105 -38 -204.5t-115 -168t-174 -68.5zM296 87q57 0 105.5 52.5t74.5 130t26 156.5q0 71 -36 112.5t-94 41.5q-57 0 -105.5 -52.5
t-74.5 -130.5t-26 -158q0 -71 35.5 -111.5t94.5 -40.5z" />
    <glyph glyph-name="Upsilontonos" unicode="&#x38e;" horiz-adv-x="598" 
d="M104 560h-46l66 205h90zM339 0h-110l61 278l-121 389h117l76 -285l202 285h128l-292 -389z" />
    <glyph glyph-name="Omegatonos" unicode="&#x38f;" horiz-adv-x="621" 
d="M127 560h-46l66 205h90zM32 98h114q-80 70 -80 193q0 85 35.5 172t109.5 151t168 64q108 0 175.5 -61t67.5 -176t-51.5 -205t-124.5 -138h93l-21 -98h-205l21 98q71 31 120.5 133t49.5 196q0 72 -33 112t-95 40q-59 0 -107.5 -56.5t-73 -132t-24.5 -145.5q0 -101 66 -147
l-21 -98h-206z" />
    <glyph glyph-name="iotadieresistonos" unicode="&#x390;" horiz-adv-x="229" 
d="M199 560h-47l67 205h90zM393 613q0 -24 -19.5 -43t-44.5 -19q-21 0 -35.5 14.5t-14.5 35.5q0 25 19 43.5t45 18.5q21 0 35.5 -14t14.5 -36zM123 613q0 -24 -19.5 -43t-44.5 -19q-21 0 -35.5 14.5t-14.5 35.5q0 25 19 43.5t45 18.5q21 0 35.5 -14t14.5 -36zM113 -12
q-111 0 -85 120l84 375h100l-81 -360q-11 -47 25 -47q7 0 17 2l-11 -84q-18 -6 -49 -6z" />
    <glyph glyph-name="Alpha" unicode="&#x391;" horiz-adv-x="536" 
d="M479 0h-115l-7 132h-220l-64 -132h-125l346 667h133zM355 230l-16 319l-157 -319h173z" />
    <glyph glyph-name="Beta" unicode="&#x392;" horiz-adv-x="540" 
d="M279 0h-269l147 667h225q75 0 118.5 -42t43.5 -106q0 -68 -41 -122t-102 -62q40 -11 62.5 -47.5t22.5 -80.5q0 -82 -53.5 -144.5t-153.5 -62.5zM206 389h122q48 0 73 34t25 76q0 32 -21 51.5t-54 19.5h-105zM267 98q48 0 77.5 34.5t29.5 83.5q0 36 -20.5 55.5t-57.5 19.5
h-111l-43 -193h125z" />
    <glyph glyph-name="Gamma" unicode="&#x393;" horiz-adv-x="464" 
d="M121 0h-111l147 667h365l-21 -97h-255z" />
    <glyph glyph-name="uni0394" unicode="&#x394;" horiz-adv-x="536" 
d="M479 0h-531l346 667h133zM362 98l-23 451l-222 -451h245z" />
    <glyph glyph-name="Epsilon" unicode="&#x395;" horiz-adv-x="472" 
d="M375 0h-365l147 667h365l-21 -97h-255l-40 -181h248l-22 -98h-247l-43 -193h254z" />
    <glyph glyph-name="Zeta" unicode="&#x396;" horiz-adv-x="475" 
d="M383 0h-400l21 92l357 478h-251l21 97h392l-19 -90l-360 -479h261z" />
    <glyph glyph-name="Eta" unicode="&#x397;" horiz-adv-x="593" 
d="M476 0h-111l65 294h-245l-64 -294h-111l147 667h111l-61 -275h244l61 275h111z" />
    <glyph glyph-name="Theta" unicode="&#x398;" horiz-adv-x="612" 
d="M428 291h-228l22 98h228zM281 -12q-108 0 -173 68.5t-65 180.5q0 106 38 205t114.5 167.5t174.5 68.5q107 0 172.5 -69t65.5 -180q0 -105 -38 -204.5t-115 -168t-174 -68.5zM287 87q57 0 105.5 52.5t74.5 130t26 156.5q0 71 -36 112.5t-94 41.5q-57 0 -105.5 -52.5
t-74.5 -130.5t-26 -158q0 -71 35.5 -111.5t94.5 -40.5z" />
    <glyph glyph-name="Iota" unicode="&#x399;" horiz-adv-x="239" 
d="M121 0h-111l147 667h111z" />
    <glyph glyph-name="Kappa" unicode="&#x39a;" horiz-adv-x="535" 
d="M474 0h-124l-116 279l-70 -80l-43 -199h-111l147 667h111l-68 -309l268 309h137l-287 -315z" />
    <glyph glyph-name="Lambda" unicode="&#x39b;" horiz-adv-x="536" 
d="M479 0h-115l-25 549l-266 -549h-125l346 667h133z" />
    <glyph glyph-name="Mu" unicode="&#x39c;" horiz-adv-x="713" 
d="M596 0h-110l105 480l-267 -480h-43l-54 480l-106 -480h-111l147 667h147l48 -426l238 426h153z" />
    <glyph glyph-name="Nu" unicode="&#x39d;" horiz-adv-x="592" 
d="M474 0h-106l-148 452l-99 -452h-111l147 667h112l144 -438l97 438h111z" />
    <glyph glyph-name="Xi" unicode="&#x39e;" horiz-adv-x="504" 
d="M532 570h-416l21 97h416zM407 0h-416l21 98h416zM464 291h-402l21 98h402z" />
    <glyph glyph-name="Omicron" unicode="&#x39f;" horiz-adv-x="612" 
d="M281 -12q-108 0 -173 68.5t-65 180.5q0 106 38 205t114.5 167.5t174.5 68.5q107 0 172.5 -69t65.5 -180q0 -105 -38 -204.5t-115 -168t-174 -68.5zM287 87q57 0 105.5 52.5t74.5 130t26 156.5q0 71 -36 112.5t-94 41.5q-57 0 -105.5 -52.5t-74.5 -130.5t-26 -158
q0 -71 35.5 -111.5t94.5 -40.5z" />
    <glyph glyph-name="Pi" unicode="&#x3a0;" horiz-adv-x="593" 
d="M476 0h-111l125 570h-244l-125 -570h-111l147 667h466z" />
    <glyph glyph-name="Rho" unicode="&#x3a1;" horiz-adv-x="513" 
d="M121 0h-111l147 667h208q79 0 126 -48t47 -123q0 -44 -14.5 -85.5t-42.5 -78t-77.5 -58.5t-112.5 -22h-115zM197 350h102q56 0 89.5 40.5t33.5 95.5q0 38 -21.5 61t-56.5 23h-98z" />
    <glyph glyph-name="Sigma" unicode="&#x3a3;" horiz-adv-x="449" 
d="M241 570l114 -233l-216 -239h239l-21 -98h-367l24 110l219 243l-113 227l19 87h365l-22 -97h-241z" />
    <glyph glyph-name="Tau" unicode="&#x3a4;" horiz-adv-x="462" 
d="M232 0h-110l125 570h-152l21 97h416l-22 -97h-152z" />
    <glyph glyph-name="Upsilon" unicode="&#x3a5;" horiz-adv-x="521" 
d="M262 0h-110l61 278l-121 389h117l76 -285l202 285h128l-292 -389z" />
    <glyph glyph-name="Phi" unicode="&#x3a6;" horiz-adv-x="730" 
d="M366 0h-111l15 68q-218 29 -218 225q0 116 93 207t247 101l15 66h111l-16 -70q219 -28 219 -224q0 -117 -93 -208t-247 -100zM168 293q0 -49 31.5 -82.5t93.5 -43.5l76 333q-98 -14 -149.5 -72.5t-51.5 -134.5zM605 373q0 50 -31.5 83.5t-93.5 43.5l-76 -333
q97 14 149 72t52 134z" />
    <glyph glyph-name="Chi" unicode="&#x3a7;" horiz-adv-x="535" 
d="M479 0h-121l-87 249l-189 -249h-134l275 347l-116 320h121l77 -235l175 235h134l-260 -332z" />
    <glyph glyph-name="Psi" unicode="&#x3a8;" horiz-adv-x="739" 
d="M371 0h-110l29 128q-200 26 -200 190q0 32 9 75l63 274h112l-66 -290q-6 -26 -6 -47q0 -87 110 -105l101 442h110l-101 -441q143 20 173 151l66 290h112l-70 -311q-23 -100 -105 -161.5t-199 -69.5z" />
    <glyph glyph-name="uni03A9" unicode="&#x3a9;" horiz-adv-x="606" 
d="M17 98h114q-80 70 -80 193q0 85 35.5 172t109.5 151t168 64q108 0 175.5 -61t67.5 -176t-51.5 -205t-124.5 -138h93l-21 -98h-205l21 98q71 31 120.5 133t49.5 196q0 72 -33 112t-95 40q-59 0 -107.5 -56.5t-73 -132t-24.5 -145.5q0 -101 66 -147l-21 -98h-206z" />
    <glyph glyph-name="Iotadieresis" unicode="&#x3aa;" horiz-adv-x="239" 
d="M121 0h-111l147 667h111zM388 797q0 -24 -19.5 -43t-44.5 -19q-21 0 -35.5 14.5t-14.5 35.5q0 25 19.5 43.5t44.5 18.5q21 0 35.5 -14t14.5 -36zM207 797q0 -24 -19.5 -43t-44.5 -19q-21 0 -35.5 14.5t-14.5 35.5q0 25 19.5 43.5t44.5 18.5q21 0 35.5 -14t14.5 -36z" />
    <glyph glyph-name="Upsilondieresis" unicode="&#x3ab;" horiz-adv-x="521" 
d="M262 0h-110l61 278l-121 389h117l76 -285l202 285h128l-292 -389zM530 797q0 -24 -19.5 -43t-44.5 -19q-21 0 -35.5 14.5t-14.5 35.5q0 25 19.5 43.5t44.5 18.5q21 0 35.5 -14t14.5 -36zM349 797q0 -24 -19.5 -43t-44.5 -19q-21 0 -35.5 14.5t-14.5 35.5q0 25 19.5 43.5
t44.5 18.5q21 0 35.5 -14t14.5 -36z" />
    <glyph glyph-name="alphatonos" unicode="&#x3ac;" horiz-adv-x="506" 
d="M339 560h-46l66 205h90zM450 78l-11 -84q-18 -6 -49 -6q-48 0 -68.5 21.5t-19.5 62.5q-58 -84 -133 -84q-66 0 -105 46.5t-39 127.5q0 73 24.5 147.5t77.5 130t121 55.5q42 0 75.5 -20.5t50.5 -58.5l15 67h99l-80 -360q-10 -47 25 -47q7 0 17 2zM214 76q28 0 54.5 19.5
t44.5 48.5l44 196q-10 29 -35 48t-56 19q-59 0 -98 -76t-39 -153q0 -48 23 -75t62 -27z" />
    <glyph glyph-name="epsilontonos" unicode="&#x3ad;" horiz-adv-x="437" 
d="M304 560h-46l66 205h90zM180 -12q-85 0 -129 33t-44 89t46.5 93.5t100.5 43.5q-38 8 -62.5 34.5t-24.5 62.5q0 67 63 109t154 42q115 0 169 -77l-62 -58q-36 54 -107 54q-52 0 -85.5 -21t-33.5 -56q0 -25 22 -39t61 -14h88l-18 -80h-89q-119 0 -119 -78q0 -26 22 -41.5
t61 -15.5q86 0 152 58l37 -64q-87 -75 -202 -75z" />
    <glyph glyph-name="etatonos" unicode="&#x3ae;" horiz-adv-x="485" 
d="M330 560h-46l66 205h90zM331 -184h-100l114 513q4 14 4 26q0 52 -62 52q-54 0 -108 -68l-74 -339h-100l107 483h100l-15 -64q68 76 143 76q53 0 84.5 -27t31.5 -73q0 -15 -5 -35z" />
    <glyph glyph-name="iotatonos" unicode="&#x3af;" horiz-adv-x="229" 
d="M202 560h-46l66 205h90zM113 -12q-111 0 -85 120l84 375h100l-81 -360q-11 -47 25 -47q7 0 17 2l-11 -84q-18 -6 -49 -6z" />
    <glyph glyph-name="upsilondieresistonos" unicode="&#x3b0;" horiz-adv-x="486" 
d="M335 560h-47l67 205h90zM529 613q0 -24 -19.5 -43t-44.5 -19q-21 0 -35.5 14.5t-14.5 35.5q0 25 19 43.5t45 18.5q21 0 35.5 -14t14.5 -36zM259 613q0 -24 -19.5 -43t-44.5 -19q-21 0 -35.5 14.5t-14.5 35.5q0 25 19 43.5t45 18.5q21 0 35.5 -14t14.5 -36zM204 -12
q-95 0 -135.5 57t-19.5 151l64 287h100l-66 -294q-24 -113 63 -113q65 0 110 78t45 180q0 73 -22 128l97 33q26 -59 26 -155q0 -87 -29.5 -166t-90.5 -132.5t-142 -53.5z" />
    <glyph glyph-name="alpha" unicode="&#x3b1;" horiz-adv-x="506" 
d="M450 78l-11 -84q-18 -6 -49 -6q-48 0 -68.5 21.5t-19.5 62.5q-58 -84 -133 -84q-66 0 -105 46.5t-39 127.5q0 73 24.5 147.5t77.5 130t121 55.5q42 0 75.5 -20.5t50.5 -58.5l15 67h99l-80 -360q-10 -47 25 -47q7 0 17 2zM214 76q28 0 54.5 19.5t44.5 48.5l44 196
q-10 29 -35 48t-56 19q-59 0 -98 -76t-39 -153q0 -48 23 -75t62 -27z" />
    <glyph glyph-name="beta" unicode="&#x3b2;" horiz-adv-x="494" 
d="M245 -12q-92 0 -127 74l-54 -246h-100l143 641q25 114 92 167t147 53q78 0 120.5 -36t42.5 -105t-44.5 -122.5t-109.5 -68.5q41 -11 67.5 -44.5t26.5 -88.5q0 -92 -61.5 -158t-142.5 -66zM206 455l-70 -314q8 -28 31 -46.5t56 -18.5q55 0 89.5 42.5t34.5 97.5
q0 39 -22 59.5t-59 20.5h-27l19 88h24q51 0 85 37.5t34 95.5q0 34 -18 52.5t-51 18.5q-42 0 -76 -33t-50 -100z" />
    <glyph glyph-name="gamma" unicode="&#x3b3;" horiz-adv-x="430" 
d="M170 -184h-100l28 125q33 163 18 301t-70 241h111q33 -75 47 -169t0 -184q51 68 95.5 165.5t64.5 187.5h99q-26 -117 -95 -246.5t-156 -231.5z" />
    <glyph glyph-name="delta" unicode="&#x3b4;" horiz-adv-x="488" 
d="M208 -12q-93 0 -139 52.5t-46 133.5q0 82 45.5 146.5t122.5 107.5q-48 39 -48 98q0 63 54.5 108t137.5 45q104 0 155 -62l-57 -65q-36 48 -105 48q-37 0 -62 -19.5t-25 -46.5q0 -20 22 -37t53.5 -34.5t63 -41t53.5 -65.5t22 -98q0 -44 -17 -91t-47.5 -87t-78.5 -66
t-104 -26zM358 250q0 47 -24.5 76t-70.5 56q-60 -29 -97.5 -80.5t-37.5 -118.5q0 -45 23 -76t69 -31q59 0 98.5 56.5t39.5 117.5z" />
    <glyph glyph-name="epsilon" unicode="&#x3b5;" horiz-adv-x="437" 
d="M180 -12q-85 0 -129 33t-44 89t46.5 93.5t100.5 43.5q-38 8 -62.5 34.5t-24.5 62.5q0 67 63 109t154 42q115 0 169 -77l-62 -58q-36 54 -107 54q-52 0 -85.5 -21t-33.5 -56q0 -25 22 -39t61 -14h88l-18 -80h-89q-119 0 -119 -78q0 -26 22 -41.5t61 -15.5q86 0 152 58
l37 -64q-87 -75 -202 -75z" />
    <glyph glyph-name="zeta" unicode="&#x3b6;" horiz-adv-x="410" 
d="M223 -33q0 21 -31 21q-80 0 -126.5 46t-46.5 120q0 103 80 214.5t237 211.5h-214l20 87h329l-17 -73q-145 -92 -236.5 -204t-91.5 -214q0 -46 27.5 -73t78.5 -27q95 0 95 -68q0 -61 -81 -165h-103q80 84 80 124z" />
    <glyph glyph-name="eta" unicode="&#x3b7;" horiz-adv-x="485" 
d="M331 -184h-100l114 513q4 14 4 26q0 52 -62 52q-54 0 -108 -68l-74 -339h-100l107 483h100l-15 -64q68 76 143 76q53 0 84.5 -27t31.5 -73q0 -15 -5 -35z" />
    <glyph glyph-name="theta" unicode="&#x3b8;" horiz-adv-x="488" 
d="M215 -12q-83 0 -130.5 60.5t-47.5 172.5q0 107 34 211t100 175.5t146 71.5q82 0 129 -61t47 -172q0 -107 -33.5 -211t-99 -175.5t-145.5 -71.5zM220 76q45 0 83.5 62t62.5 154h-222q-8 -56 -8 -93q0 -123 84 -123zM310 591q-45 0 -83 -60.5t-63 -151.5h221q8 51 8 88
q0 124 -83 124z" />
    <glyph glyph-name="iota" unicode="&#x3b9;" horiz-adv-x="229" 
d="M113 -12q-111 0 -85 120l84 375h100l-81 -360q-11 -47 25 -47q7 0 17 2l-11 -84q-18 -6 -49 -6z" />
    <glyph glyph-name="kappa" unicode="&#x3ba;" horiz-adv-x="456" 
d="M394 0h-114l-71 205l-78 -81l-26 -124h-100l107 483h100l-52 -231l218 231h120l-208 -217z" />
    <glyph glyph-name="lambda" unicode="&#x3bb;" horiz-adv-x="430" 
d="M136 584l4 88q24 7 55 7q54 -1 83.5 -24t35.5 -81l61 -574h-103l-26 363l-189 -363h-110l273 492l-5 58q-4 23 -14.5 32t-32.5 9q-19 0 -32 -7z" />
    <glyph glyph-name="uni03BC" unicode="&#x3bc;" horiz-adv-x="496" 
d="M107 16l-44 -200h-100l149 667h100l-74 -330q-9 -38 6.5 -58t46.5 -20q59 0 112 67l75 341h100l-80 -360q-11 -47 25 -47q7 0 17 2l-11 -84q-18 -6 -49 -6q-47 0 -67 21t-18 65q-26 -39 -60.5 -62.5t-69.5 -23.5q-42 0 -58 28z" />
    <glyph glyph-name="nu" unicode="&#x3bd;" horiz-adv-x="430" 
d="M207 0h-100l-51 483h106l26 -377q62 82 109 183t67 194h99q-26 -118 -97 -249.5t-159 -233.5z" />
    <glyph glyph-name="xi" unicode="&#x3be;" horiz-adv-x="410" 
d="M195 -12q-87 0 -134 40.5t-47 108.5q0 72 43 121.5t109 67.5q-35 8 -57 35.5t-22 68.5q0 45 33.5 86t86.5 64h-80l20 87h317l-20 -87h-153q-41 -15 -68.5 -49t-27.5 -72q0 -36 24 -55.5t65 -19.5h110l-19 -86h-108q-62 0 -103.5 -35.5t-41.5 -99.5q0 -39 28.5 -63
t81.5 -24q95 0 95 -68q0 -61 -81 -165h-98q75 87 75 124q0 21 -28 21z" />
    <glyph glyph-name="omicron" unicode="&#x3bf;" horiz-adv-x="488" 
d="M214 -12q-89 0 -138.5 52t-49.5 141q0 117 69.5 215.5t176.5 98.5q89 0 138.5 -52t49.5 -141q0 -117 -69.5 -215.5t-176.5 -98.5zM218 76q40 0 73.5 38.5t50 89.5t16.5 97q0 52 -23.5 79t-66.5 27q-40 0 -73.5 -38.5t-50 -89.5t-16.5 -97q0 -52 23.5 -79t66.5 -27z" />
    <glyph glyph-name="pi" unicode="&#x3c0;" horiz-adv-x="521" 
d="M390 0h-99l88 396h-168l-88 -396h-100l89 396h-64l20 87h494l-20 -87h-63z" />
    <glyph glyph-name="rho" unicode="&#x3c1;" horiz-adv-x="492" 
d="M245 -12q-41 0 -74.5 20.5t-51.5 58.5l-55 -251h-100l95 426q25 114 88.5 183.5t154.5 69.5q80 0 123 -50t43 -133q0 -68 -24.5 -140.5t-77.5 -128t-121 -55.5zM228 76q40 0 72.5 39.5t48 91t15.5 98.5t-20 74.5t-55 27.5q-47 0 -80.5 -45.5t-50.5 -119.5l-22 -99
q9 -29 34.5 -48t57.5 -19z" />
    <glyph glyph-name="sigma1" unicode="&#x3c2;" horiz-adv-x="408" 
d="M194 -12q-70 0 -118.5 52.5t-48.5 143.5q0 119 71 215t178 96q105 0 152 -71l-63 -65q-27 48 -85 48q-66 0 -108.5 -69t-42.5 -148q0 -57 29 -85.5t81 -28.5q89 0 89 -69q0 -60 -81 -164h-100q80 84 80 124q0 21 -33 21z" />
    <glyph glyph-name="sigma" unicode="&#x3c3;" horiz-adv-x="488" 
d="M451 283q0 -49 -16 -100t-45 -95t-75.5 -72t-100.5 -28q-88 0 -137.5 52t-49.5 141q0 75 32 143t96 113.5t145 45.5h223l-20 -88h-86q34 -42 34 -112zM357 292q0 73 -33 103h-36q-71 0 -115 -68t-44 -145q0 -106 89 -106q59 0 99 73.5t40 142.5z" />
    <glyph glyph-name="tau" unicode="&#x3c4;" horiz-adv-x="383" 
d="M213 -12q-59 0 -86 30t-14 92l63 286h-122l19 87h345l-19 -87h-123l-60 -269q-10 -51 33 -51q22 0 36 14l7 -78q-31 -24 -79 -24z" />
    <glyph glyph-name="upsilon" unicode="&#x3c5;" horiz-adv-x="486" 
d="M204 -12q-95 0 -135.5 57t-19.5 151l64 287h100l-66 -294q-24 -113 63 -113q65 0 110 78t45 180q0 73 -22 128l97 33q26 -59 26 -155q0 -87 -29.5 -166t-90.5 -132.5t-142 -53.5z" />
    <glyph glyph-name="phi" unicode="&#x3c6;" horiz-adv-x="674" 
d="M648 285q0 -109 -84 -197.5t-234 -98.5l-38 -173h-99l39 176q-101 14 -152.5 69.5t-51.5 142.5q0 93 58 170t166 121l26 -77q-69 -30 -107 -86t-38 -123q0 -112 118 -130l93 416h49q123 0 189 -57.5t66 -152.5zM423 404l-73 -325q52 7 91.5 29.5t60.5 53t31 60t10 58.5
q0 53 -30.5 86.5t-89.5 37.5z" />
    <glyph glyph-name="chi" unicode="&#x3c7;" horiz-adv-x="424" 
d="M323 -184h-104l-44 244l-154 -244h-110l220 340l-63 327h103l40 -230l143 230h110l-210 -327z" />
    <glyph glyph-name="psi" unicode="&#x3c8;" horiz-adv-x="675" 
d="M292 -184h-99l39 176q-183 23 -183 172q0 26 9 75l55 244h99l-57 -257q-6 -26 -6 -50q0 -82 103 -97l131 588h100l-132 -588q134 20 162 147l57 257h100l-61 -271q-22 -99 -95 -157t-183 -66z" />
    <glyph glyph-name="omega" unicode="&#x3c9;" horiz-adv-x="722" 
d="M698 318q0 -73 -27.5 -148t-81.5 -128.5t-120 -53.5q-63 0 -95.5 34.5t-36.5 94.5q-64 -129 -169 -129q-68 0 -106 51.5t-38 133.5q0 91 47.5 182.5t123.5 139.5l64 -59q-63 -41 -98.5 -113.5t-35.5 -146.5q0 -44 16 -72t48 -28q44 0 74.5 46.5t47.5 119.5l27 123h100
l-27 -123q-18 -65 -5.5 -115.5t56.5 -50.5q39 0 71.5 41t48 94.5t15.5 102.5q0 90 -40 130l83 51q28 -24 43 -73t15 -104z" />
    <glyph glyph-name="iotadieresis" unicode="&#x3ca;" horiz-adv-x="229" 
d="M341 613q0 -24 -19.5 -43t-44.5 -19q-21 0 -35.5 14.5t-14.5 35.5q0 25 19.5 43.5t44.5 18.5q21 0 35.5 -14t14.5 -36zM160 613q0 -24 -19.5 -43t-44.5 -19q-21 0 -35.5 14.5t-14.5 35.5q0 25 19.5 43.5t44.5 18.5q21 0 35.5 -14t14.5 -36zM113 -12q-111 0 -85 120
l84 375h100l-81 -360q-11 -47 25 -47q7 0 17 2l-11 -84q-18 -6 -49 -6z" />
    <glyph glyph-name="upsilondieresis" unicode="&#x3cb;" horiz-adv-x="486" 
d="M477 613q0 -24 -19.5 -43t-44.5 -19q-21 0 -35.5 14.5t-14.5 35.5q0 25 19.5 43.5t44.5 18.5q21 0 35.5 -14t14.5 -36zM296 613q0 -24 -19.5 -43t-44.5 -19q-21 0 -35.5 14.5t-14.5 35.5q0 25 19.5 43.5t44.5 18.5q21 0 35.5 -14t14.5 -36zM204 -12q-95 0 -135.5 57
t-19.5 151l64 287h100l-66 -294q-24 -113 63 -113q65 0 110 78t45 180q0 73 -22 128l97 33q26 -59 26 -155q0 -87 -29.5 -166t-90.5 -132.5t-142 -53.5z" />
    <glyph glyph-name="omicrontonos" unicode="&#x3cc;" horiz-adv-x="488" 
d="M332 560h-46l66 205h90zM214 -12q-89 0 -138.5 52t-49.5 141q0 117 69.5 215.5t176.5 98.5q89 0 138.5 -52t49.5 -141q0 -117 -69.5 -215.5t-176.5 -98.5zM218 76q40 0 73.5 38.5t50 89.5t16.5 97q0 52 -23.5 79t-66.5 27q-40 0 -73.5 -38.5t-50 -89.5t-16.5 -97
q0 -52 23.5 -79t66.5 -27z" />
    <glyph glyph-name="upsilontonos" unicode="&#x3cd;" horiz-adv-x="486" 
d="M337 560h-46l66 205h90zM204 -12q-95 0 -135.5 57t-19.5 151l64 287h100l-66 -294q-24 -113 63 -113q65 0 110 78t45 180q0 73 -22 128l97 33q26 -59 26 -155q0 -87 -29.5 -166t-90.5 -132.5t-142 -53.5z" />
    <glyph glyph-name="omegatonos" unicode="&#x3ce;" horiz-adv-x="722" 
d="M449 560h-46l66 205h90zM698 318q0 -73 -27.5 -148t-81.5 -128.5t-120 -53.5q-63 0 -95.5 34.5t-36.5 94.5q-64 -129 -169 -129q-68 0 -106 51.5t-38 133.5q0 91 47.5 182.5t123.5 139.5l64 -59q-63 -41 -98.5 -113.5t-35.5 -146.5q0 -44 16 -72t48 -28q44 0 74.5 46.5
t47.5 119.5l27 123h100l-27 -123q-18 -65 -5.5 -115.5t56.5 -50.5q39 0 71.5 41t48 94.5t15.5 102.5q0 90 -40 130l83 51q28 -24 43 -73t15 -104z" />
    <glyph glyph-name="afii10023" unicode="&#x401;" horiz-adv-x="472" 
d="M511 780q0 -24 -19.5 -43t-44.5 -19q-21 0 -35.5 14.5t-14.5 35.5q0 25 19.5 43.5t44.5 18.5q21 0 35.5 -14t14.5 -36zM330 780q0 -24 -19.5 -43t-44.5 -19q-21 0 -35.5 14.5t-14.5 35.5q0 25 19.5 43.5t44.5 18.5q21 0 35.5 -14t14.5 -36zM375 0h-365l147 667h365
l-21 -97h-255l-40 -181h248l-22 -98h-247l-43 -193h254z" />
    <glyph glyph-name="afii10051" unicode="&#x402;" horiz-adv-x="640" 
d="M343 -12l21 99q46 0 79 26t45 77l3 15q11 52 -13 82.5t-79 30.5q-52 0 -100 -15l-66 -303h-111l125 570h-152l21 97h415l-21 -97h-152l-38 -170q55 15 114 15q102 0 144.5 -60.5t23.5 -149.5l-4 -15q-22 -101 -92.5 -151.5t-162.5 -50.5z" />
    <glyph glyph-name="afii10052" unicode="&#x403;" horiz-adv-x="464" 
d="M542 867l-166 -144h-70l142 144h94zM121 0h-111l147 667h365l-21 -97h-255z" />
    <glyph glyph-name="afii10053" unicode="&#x404;" horiz-adv-x="547" 
d="M281 -12q-107 0 -172.5 67t-65.5 182q0 109 39.5 209t116 166t171.5 66q89 0 143 -49t74 -126l-105 -29q-28 106 -119 106q-57 0 -105.5 -54t-75.5 -137h272l-22 -98h-272q-3 -27 -3 -52q0 -72 34.5 -112t95.5 -40q70 0 127 79l86 -49q-85 -129 -219 -129z" />
    <glyph glyph-name="afii10054" unicode="&#x405;" horiz-adv-x="486" 
d="M217 -12q-71 0 -132 27t-92 71l69 81q25 -36 68.5 -58t91.5 -22t76.5 29.5t28.5 72.5q0 27 -24.5 51t-59.5 44.5t-69.5 44t-59 60t-24.5 82.5q0 85 63.5 146t158.5 61q59 0 112 -22.5t86 -61.5l-66 -80q-25 31 -63 48.5t-78 17.5q-41 0 -68.5 -27t-27.5 -63
q0 -25 24.5 -48.5t59.5 -44t69.5 -44.5t59 -61.5t24.5 -83.5q0 -92 -63 -156t-164 -64z" />
    <glyph glyph-name="afii10055" unicode="&#x406;" horiz-adv-x="239" 
d="M121 0h-111l147 667h111z" />
    <glyph glyph-name="afii10056" unicode="&#x407;" horiz-adv-x="239" 
d="M385 780q0 -24 -19.5 -43t-44.5 -19q-21 0 -35.5 14.5t-14.5 35.5q0 25 19.5 43.5t44.5 18.5q21 0 35.5 -14t14.5 -36zM204 780q0 -24 -19.5 -43t-44.5 -19q-21 0 -35.5 14.5t-14.5 35.5q0 25 19.5 43.5t44.5 18.5q21 0 35.5 -14t14.5 -36zM121 0h-111l147 667h111z" />
    <glyph glyph-name="afii10057" unicode="&#x408;" horiz-adv-x="409" 
d="M122 -12q-103 0 -154 63l56 84q29 -48 90 -48q86 0 108 100l106 480h111l-107 -483q-22 -101 -73 -148.5t-137 -47.5z" />
    <glyph glyph-name="afii10058" unicode="&#x409;" horiz-adv-x="868" 
d="M-32 -12l21 99q32 0 53.5 14.5t47.5 64.5t56 148l110 353h366l-55 -252h97q80 0 126.5 -48t46.5 -123q0 -44 -14 -85.5t-42.5 -78t-77.5 -58.5t-112 -22h-226l126 570h-155l-81 -261q-31 -101 -64 -166.5t-70 -98.5t-71.5 -44.5t-81.5 -11.5zM643 318h-97l-49 -220h100
q58 0 91.5 40.5t33.5 95.5q0 38 -22 61t-57 23z" />
    <glyph glyph-name="afii10059" unicode="&#x40a;" horiz-adv-x="868" 
d="M591 0h-232l65 294h-245l-64 -294h-110l146 667h110l-60 -275h244l61 275h110l-60 -275h104q77 0 122 -46t45 -118q0 -88 -61 -158t-175 -70zM639 294h-105l-43 -196h108q50 0 82 36t32 84q0 36 -20.5 56t-53.5 20z" />
    <glyph glyph-name="afii10060" unicode="&#x40b;" horiz-adv-x="653" 
d="M440 0l42 192q28 126 -83 126q-52 0 -100 -15l-66 -303h-111l125 570h-152l21 97h415l-21 -97h-152l-38 -170q55 15 114 15q103 0 142 -61.5t17 -161.5l-42 -192h-111z" />
    <glyph glyph-name="afii10061" unicode="&#x40c;" horiz-adv-x="535" 
d="M564 867l-166 -144h-70l142 144h94zM474 0h-124l-116 279l-70 -80l-43 -199h-111l147 667h111l-68 -309l268 309h137l-287 -315z" />
    <glyph glyph-name="afii10062" unicode="&#x40e;" horiz-adv-x="521" 
d="M63 -12q-71 0 -107 38l53 91q26 -29 66 -29q26 0 45.5 14.5t41.5 47.5l24 41l-95 476h118l61 -354l217 354h127l-355 -559q-39 -62 -85.5 -91t-110.5 -29zM519 783q-72 -75 -164 -75q-94 0 -133 75l52 38q26 -53 91 -53t113 53z" />
    <glyph glyph-name="afii10145" unicode="&#x40f;" horiz-adv-x="593" 
d="M159 -128l28 128h-177l147 667h110l-125 -569h245l125 569h110l-146 -667h-178l-28 -128h-111z" />
    <glyph glyph-name="afii10017" unicode="&#x410;" horiz-adv-x="536" 
d="M479 0h-115l-7 132h-220l-64 -132h-125l346 667h133zM355 230l-16 319l-157 -319h173z" />
    <glyph glyph-name="afii10018" unicode="&#x411;" horiz-adv-x="513" 
d="M157 667h380l-21 -97h-270l-34 -155h98q79 0 125.5 -48.5t46.5 -122.5q0 -34 -8.5 -68t-27.5 -66t-47 -56t-69.5 -39t-92.5 -15h-227zM288 318h-97l-49 -220h102q56 0 89.5 40.5t33.5 95.5q0 38 -22 61t-57 23z" />
    <glyph glyph-name="afii10019" unicode="&#x412;" horiz-adv-x="540" 
d="M279 0h-269l147 667h225q75 0 118.5 -42t43.5 -106q0 -68 -41 -122t-102 -62q40 -11 62.5 -47.5t22.5 -80.5q0 -82 -53.5 -144.5t-153.5 -62.5zM206 389h122q48 0 73 34t25 76q0 32 -21 51.5t-54 19.5h-105zM267 98q48 0 77.5 34.5t29.5 83.5q0 36 -20.5 55.5t-57.5 19.5
h-111l-43 -193h125z" />
    <glyph glyph-name="afii10020" unicode="&#x413;" horiz-adv-x="464" 
d="M121 0h-111l147 667h365l-21 -97h-255z" />
    <glyph glyph-name="afii10021" unicode="&#x414;" horiz-adv-x="604" 
d="M-59 -123l46 210q26 4 42 12t36.5 31.5t40.5 71t44 125.5l105 340h367l-126 -569h60l-49 -221h-111l27 123h-345l-27 -123h-110zM335 570l-78 -251q-47 -153 -123 -221h252l104 472h-155z" />
    <glyph glyph-name="afii10022" unicode="&#x415;" horiz-adv-x="472" 
d="M375 0h-365l147 667h365l-21 -97h-255l-40 -181h248l-22 -98h-247l-43 -193h254z" />
    <glyph glyph-name="afii10024" unicode="&#x416;" horiz-adv-x="776" 
d="M92 0h-139l312 352l-149 315h122l123 -291l64 291h111l-58 -265l229 265h138l-287 -315l157 -352h-124l-113 281l-36 -42l-53 -239h-110l53 241l-13 29z" />
    <glyph glyph-name="afii10025" unicode="&#x417;" horiz-adv-x="509" 
d="M231 -12q-80 0 -144 36.5t-89 100.5l84 60q19 -47 58.5 -72.5t86.5 -25.5q55 0 88 37t33 85q0 82 -107 82h-99l22 98h107q60 0 96 31.5t36 81.5q0 34 -29 55.5t-77 21.5q-78 0 -134 -61l-51 71q36 40 88.5 64t109.5 24q94 0 151.5 -41.5t57.5 -114.5q0 -68 -51.5 -120.5
t-117.5 -61.5q51 -13 79.5 -49t28.5 -87q0 -88 -66 -151.5t-161 -63.5z" />
    <glyph glyph-name="afii10026" unicode="&#x418;" horiz-adv-x="592" 
d="M116 0h-106l147 667h111l-97 -438l338 438h112l-147 -667h-111l100 452z" />
    <glyph glyph-name="afii10027" unicode="&#x419;" horiz-adv-x="592" 
d="M116 0h-106l147 667h111l-97 -438l338 438h112l-147 -667h-111l100 452zM560 783q-72 -75 -164 -75q-94 0 -133 75l52 38q26 -53 91 -53t113 53z" />
    <glyph glyph-name="afii10028" unicode="&#x41a;" horiz-adv-x="535" 
d="M474 0h-124l-116 279l-70 -80l-43 -199h-111l147 667h111l-68 -309l268 309h137l-287 -315z" />
    <glyph glyph-name="afii10029" unicode="&#x41b;" horiz-adv-x="593" 
d="M-33 -12l21 99q33 0 54.5 14.5t47.5 65.5t57 150l108 350h367l-146 -667h-111l125 570h-155l-80 -261q-31 -101 -64 -167t-70 -98.5t-72 -44t-82 -11.5z" />
    <glyph glyph-name="afii10030" unicode="&#x41c;" horiz-adv-x="713" 
d="M596 0h-110l105 480l-267 -480h-43l-54 480l-106 -480h-111l147 667h147l48 -426l238 426h153z" />
    <glyph glyph-name="afii10031" unicode="&#x41d;" horiz-adv-x="593" 
d="M476 0h-111l65 294h-245l-64 -294h-111l147 667h111l-61 -275h244l61 275h111z" />
    <glyph glyph-name="afii10032" unicode="&#x41e;" horiz-adv-x="612" 
d="M281 -12q-108 0 -173 68.5t-65 180.5q0 106 38 205t114.5 167.5t174.5 68.5q107 0 172.5 -69t65.5 -180q0 -105 -38 -204.5t-115 -168t-174 -68.5zM287 87q57 0 105.5 52.5t74.5 130t26 156.5q0 71 -36 112.5t-94 41.5q-57 0 -105.5 -52.5t-74.5 -130.5t-26 -158
q0 -71 35.5 -111.5t94.5 -40.5z" />
    <glyph glyph-name="afii10033" unicode="&#x41f;" horiz-adv-x="593" 
d="M476 0h-111l125 570h-244l-125 -570h-111l147 667h466z" />
    <glyph glyph-name="afii10034" unicode="&#x420;" horiz-adv-x="513" 
d="M121 0h-111l147 667h208q79 0 126 -48t47 -123q0 -44 -14.5 -85.5t-42.5 -78t-77.5 -58.5t-112.5 -22h-115zM197 350h102q56 0 89.5 40.5t33.5 95.5q0 38 -21.5 61t-56.5 23h-98z" />
    <glyph glyph-name="afii10035" unicode="&#x421;" horiz-adv-x="547" 
d="M281 -12q-107 0 -172.5 67t-65.5 182q0 109 39.5 209t116 166t171.5 66q89 0 143 -49t74 -126l-105 -29q-28 106 -119 106q-56 0 -104.5 -53t-75 -131t-26.5 -157q0 -72 34.5 -112t95.5 -40q70 0 127 79l86 -49q-85 -129 -219 -129z" />
    <glyph glyph-name="afii10036" unicode="&#x422;" horiz-adv-x="462" 
d="M232 0h-110l125 570h-152l21 97h416l-22 -97h-152z" />
    <glyph glyph-name="afii10037" unicode="&#x423;" horiz-adv-x="521" 
d="M63 -12q-71 0 -107 38l53 91q26 -29 66 -29q26 0 45.5 14.5t41.5 47.5l24 41l-95 476h118l61 -354l217 354h127l-355 -559q-39 -62 -85.5 -91t-110.5 -29z" />
    <glyph glyph-name="afii10038" unicode="&#x424;" horiz-adv-x="730" 
d="M366 0h-111l15 68q-218 29 -218 225q0 116 93 207t247 101l15 66h111l-16 -70q219 -28 219 -224q0 -117 -93 -208t-247 -100zM168 293q0 -49 31.5 -82.5t93.5 -43.5l76 333q-98 -14 -149.5 -72.5t-51.5 -134.5zM605 373q0 50 -31.5 83.5t-93.5 43.5l-76 -333
q97 14 149 72t52 134z" />
    <glyph glyph-name="afii10039" unicode="&#x425;" horiz-adv-x="535" 
d="M479 0h-121l-87 249l-189 -249h-134l275 347l-116 320h121l77 -235l175 235h134l-260 -332z" />
    <glyph glyph-name="afii10040" unicode="&#x426;" horiz-adv-x="604" 
d="M397 -123l27 123h-414l147 667h110l-125 -569h245l125 569h110l-125 -569h59l-49 -221h-110z" />
    <glyph glyph-name="afii10041" unicode="&#x427;" horiz-adv-x="541" 
d="M251 667l-42 -191q-28 -126 84 -126q55 0 99 15l67 302h111l-147 -667h-111l59 267q-62 -15 -114 -15q-103 0 -142 61.5t-16 162.5l42 191h110z" />
    <glyph glyph-name="afii10042" unicode="&#x428;" horiz-adv-x="806" 
d="M724 667h111l-147 -667h-678l146 667h111l-125 -569h173l125 569h111l-125 -569h173z" />
    <glyph glyph-name="afii10043" unicode="&#x429;" horiz-adv-x="817" 
d="M724 667h111l-126 -569h57l-49 -221h-110l27 123h-624l146 667h111l-125 -569h173l125 569h111l-125 -569h173z" />
    <glyph glyph-name="afii10044" unicode="&#x42a;" horiz-adv-x="625" 
d="M348 0h-226l125 570h-152l21 97h263l-56 -252h98q79 0 126 -48t47 -123q0 -44 -14.5 -85.5t-42.5 -78t-77 -58.5t-112 -22zM400 318h-98l-49 -220h101q57 0 90.5 40.5t33.5 95.5q0 38 -21.5 61t-56.5 23z" />
    <glyph glyph-name="afii10045" unicode="&#x42b;" horiz-adv-x="721" 
d="M604 0h-111l147 667h110zM157 667h110l-55 -252h98q79 0 125.5 -48t46.5 -123q0 -44 -14 -85.5t-42.5 -78t-77.5 -58.5t-112 -22h-226zM288 318h-97l-49 -220h100q58 0 91.5 40.5t33.5 95.5q0 38 -22 61t-57 23z" />
    <glyph glyph-name="afii10046" unicode="&#x42c;" horiz-adv-x="513" 
d="M157 667h110l-55 -252h98q79 0 125.5 -48t46.5 -123q0 -44 -14 -85.5t-42.5 -78t-77.5 -58.5t-112 -22h-226zM288 318h-97l-49 -220h100q58 0 91.5 40.5t33.5 95.5q0 38 -22 61t-57 23z" />
    <glyph glyph-name="afii10047" unicode="&#x42d;" horiz-adv-x="547" 
d="M305 678q107 0 172.5 -67t65.5 -182q0 -109 -39.5 -209t-116 -166t-171.5 -66q-89 0 -143 49t-74 126l105 29q28 -106 119 -106q60 0 109.5 58.5t75.5 146.5h-273l22 98h270q2 26 2 38q0 72 -34.5 112t-95.5 40q-70 0 -127 -79l-86 49q85 129 219 129z" />
    <glyph glyph-name="afii10048" unicode="&#x42e;" horiz-adv-x="839" 
d="M507 -12q-108 0 -173 68.5t-65 180.5q0 29 3 57h-87l-64 -294h-111l147 667h110l-60 -275h84q35 123 115 204.5t190 81.5q107 0 172.5 -69t65.5 -180q0 -105 -38 -204.5t-115 -168t-174 -68.5zM513 87q57 0 105.5 52.5t74.5 130t26 156.5q0 71 -36 112.5t-94 41.5
q-57 0 -105.5 -52.5t-74.5 -130.5t-26 -158q0 -71 35.5 -111.5t94.5 -40.5z" />
    <glyph glyph-name="afii10049" unicode="&#x42f;" horiz-adv-x="533" 
d="M121 0h-136l192 273q-35 17 -61 56.5t-26 93.5q0 44 14.5 85.5t42.5 78t77.5 58.5t112.5 22h225l-147 -667h-110l56 252h-72zM284 350h98l48 220h-101q-56 0 -89.5 -41t-33.5 -96q0 -38 21.5 -60.5t56.5 -22.5z" />
    <glyph glyph-name="afii10065" unicode="&#x430;" horiz-adv-x="494" 
d="M248 495q42 0 75.5 -20.5t50.5 -58.5l15 67h99l-107 -483h-100l14 62q-53 -74 -126 -74q-67 0 -105.5 45.5t-38.5 128.5q0 73 24.5 147.5t77.5 130t121 55.5zM266 407q-59 0 -98 -76t-39 -153q0 -48 23 -75t62 -27q28 0 55 19.5t44 48.5l44 196q-10 29 -35 48t-56 19z
" />
    <glyph glyph-name="afii10066" unicode="&#x431;" horiz-adv-x="490" 
d="M218 76q40 0 73.5 38.5t50 89.5t16.5 97q0 52 -23.5 79t-66.5 27q-40 0 -73.5 -38.5t-50 -89.5t-16.5 -97q0 -52 23.5 -79t66.5 -27zM214 -12q-89 0 -138.5 52t-49.5 141q0 94 53 233q39 89 100.5 141t163.5 68q81 14 87 44h99q-23 -101 -196 -129q-138 -21 -177 -119
q64 76 150 76q71 0 112.5 -52t41.5 -141q0 -117 -69.5 -215.5t-176.5 -98.5z" />
    <glyph glyph-name="afii10067" unicode="&#x432;" horiz-adv-x="487" 
d="M258 0h-253l106 483h216q59 0 92.5 -27t33.5 -74q1 -50 -28 -87t-80 -49q67 -26 67 -93q1 -62 -40 -107.5t-114 -45.5zM123 84h116q34 0 54 22t19 50q0 50 -59 50h-103zM168 289h112q31 0 49 20t18 45q0 46 -55 46h-100z" />
    <glyph glyph-name="afii10068" unicode="&#x433;" horiz-adv-x="377" 
d="M411 483l-20 -87h-200l-86 -396h-100l106 483h300z" />
    <glyph glyph-name="afii10069" unicode="&#x434;" horiz-adv-x="493" 
d="M-63 -123l43 202q24 6 38 15t32.5 42t37.5 94l78 253h312l-87 -396h52l-47 -210h-99l27 123h-261l-27 -123h-99zM238 396l-52 -174q-29 -91 -83 -135h189l67 309h-121z" />
    <glyph glyph-name="afii10070" unicode="&#x435;" horiz-adv-x="474" 
d="M226 -12q-93 0 -146 52t-53 144q0 69 28 139t86.5 121t131.5 51q81 0 128 -49.5t47 -136.5q0 -44 -14 -100h-307q-4 -15 -4 -35q0 -42 29.5 -73t85.5 -31q59 0 107 43l34 -65q-65 -60 -153 -60zM139 280h215q4 15 4 37q0 42 -24 69.5t-69 27.5q-48 0 -82.5 -41t-43.5 -93
z" />
    <glyph glyph-name="afii10072" unicode="&#x436;" horiz-adv-x="620" 
d="M78 0h-124l221 266l-112 217h110l96 -195l43 195h100l-39 -176l166 176h122l-208 -217l105 -266h-111l-72 207l-31 -32l-38 -175h-100l38 173l-13 24z" />
    <glyph glyph-name="afii10073" unicode="&#x437;" horiz-adv-x="437" 
d="M260 495q85 0 127 -32t42 -88t-43.5 -92.5t-97.5 -42.5q38 -8 64.5 -36t26.5 -63q0 -67 -62 -110t-149 -43q-61 0 -108.5 21t-71.5 57l61 58q40 -55 120 -55q47 0 79.5 22t32.5 57q0 26 -21.5 41t-59.5 15h-95l18 80h90q50 0 81.5 19t31.5 56q0 55 -79 55q-80 0 -147 -57
l-41 63q87 75 201 75z" />
    <glyph glyph-name="afii10074" unicode="&#x438;" horiz-adv-x="485" 
d="M102 0h-97l106 483h100l-67 -303l232 303h102l-106 -483h-99l68 313z" />
    <glyph glyph-name="afii10075" unicode="&#x439;" horiz-adv-x="485" 
d="M102 0h-97l106 483h100l-67 -303l232 303h102l-106 -483h-99l68 313zM469 616q-72 -75 -164 -75q-94 0 -133 75l52 38q26 -53 91 -53t113 53z" />
    <glyph glyph-name="afii10076" unicode="&#x43a;" horiz-adv-x="456" 
d="M394 0h-114l-71 205l-78 -81l-26 -124h-100l107 483h100l-52 -231l218 231h120l-208 -217z" />
    <glyph glyph-name="afii10077" unicode="&#x43b;" horiz-adv-x="485" 
d="M-40 -12l19 85q32 0 56.5 33t52.5 124l78 253h312l-106 -483h-99l86 396h-121l-52 -174q-38 -129 -93 -181.5t-133 -52.5z" />
    <glyph glyph-name="afii10078" unicode="&#x43c;" horiz-adv-x="593" 
d="M480 0h-98l68 315l-187 -315h-40l-50 315l-68 -315h-100l106 483h123l46 -291l174 291h132z" />
    <glyph glyph-name="afii10079" unicode="&#x43d;" horiz-adv-x="485" 
d="M105 0h-100l108 483h100l-42 -187h168l42 187h99l-108 -483h-99l46 209h-168z" />
    <glyph glyph-name="afii10080" unicode="&#x43e;" horiz-adv-x="488" 
d="M214 -12q-89 0 -138.5 52t-49.5 141q0 117 69.5 215.5t176.5 98.5q89 0 138.5 -52t49.5 -141q0 -117 -69.5 -215.5t-176.5 -98.5zM218 76q40 0 73.5 38.5t50 89.5t16.5 97q0 52 -23.5 79t-66.5 27q-40 0 -73.5 -38.5t-50 -89.5t-16.5 -97q0 -52 23.5 -79t66.5 -27z" />
    <glyph glyph-name="afii10081" unicode="&#x43f;" horiz-adv-x="485" 
d="M372 0h-99l88 396h-168l-88 -396h-100l108 483h367z" />
    <glyph glyph-name="afii10082" unicode="&#x440;" horiz-adv-x="492" 
d="M245 -12q-90 0 -126 79l-55 -251h-100l148 667h100l-15 -62q53 74 127 74q67 0 105.5 -45.5t38.5 -128.5q0 -73 -24.5 -147.5t-77.5 -130t-121 -55.5zM228 76q40 0 72.5 39.5t48 91t15.5 98.5q0 48 -23 75t-62 27q-28 0 -55 -19.5t-45 -48.5l-43 -196q10 -29 35 -48
t57 -19z" />
    <glyph glyph-name="afii10083" unicode="&#x441;" horiz-adv-x="415" 
d="M217 -12q-87 0 -138.5 52t-51.5 144q0 119 71 215t178 96q105 0 152 -71l-63 -65q-27 48 -85 48q-66 0 -108.5 -69t-42.5 -148q0 -56 28.5 -85t74.5 -29q49 0 85 41l39 -72q-59 -57 -139 -57z" />
    <glyph glyph-name="afii10084" unicode="&#x442;" horiz-adv-x="354" 
d="M173 0h-100l87 396h-109l19 87h318l-19 -87h-110z" />
    <glyph glyph-name="afii10085" unicode="&#x443;" horiz-adv-x="430" 
d="M-52 -185l33 85q10 -7 36 -7q30 0 54 39l35 61l-51 490h103l26 -363l189 363h109l-318 -574q-33 -58 -67 -81.5t-82 -23.5q-38 0 -67 11z" />
    <glyph glyph-name="afii10086" unicode="&#x444;" horiz-adv-x="722" 
d="M237 495q79 0 111 -78l55 250h100l-55 -247q50 75 119 75q60 0 90 -46.5t30 -121.5q0 -72 -23 -148.5t-71.5 -133.5t-110.5 -57q-79 0 -111 79l-55 -251h-100l55 247q-50 -75 -119 -75q-60 0 -90 46.5t-30 121.5q0 73 23 149t71.5 133t110.5 57zM260 407q-36 0 -65.5 -42
t-44 -95t-14.5 -99q0 -95 65 -95q47 0 87 66l43 196q-7 30 -26 49.5t-45 19.5zM459 76q36 0 65.5 42t44 95t14.5 99q0 95 -65 95q-48 0 -87 -66l-43 -196q7 -29 26 -49t45 -20z" />
    <glyph glyph-name="afii10087" unicode="&#x445;" horiz-adv-x="424" 
d="M364 0h-106l-58 176l-136 -176h-112l198 246l-83 237h105l52 -166l127 166h112l-190 -237z" />
    <glyph glyph-name="afii10088" unicode="&#x446;" horiz-adv-x="493" 
d="M297 -123l27 123h-318l105 483h100l-87 -396h168l87 396h99l-87 -396h52l-46 -210h-100z" />
    <glyph glyph-name="afii10089" unicode="&#x447;" horiz-adv-x="470" 
d="M97 483h99l-31 -142q-9 -41 7.5 -58.5t62.5 -17.5t85 16l44 202h99l-106 -483h-99l44 203q-50 -26 -119 -26q-83 0 -111.5 32t-13.5 98z" />
    <glyph glyph-name="afii10090" unicode="&#x448;" horiz-adv-x="688" 
d="M581 483h100l-106 -483h-569l105 483h100l-87 -396h135l87 396h100l-87 -396h135z" />
    <glyph glyph-name="afii10091" unicode="&#x449;" horiz-adv-x="701" 
d="M581 483h100l-87 -396h51l-46 -210h-99l27 123h-521l105 483h100l-87 -396h135l87 396h100l-87 -396h135z" />
    <glyph glyph-name="afii10092" unicode="&#x44a;" horiz-adv-x="527" 
d="M296 0h-223l87 396h-109l19 87h209l-40 -177h92q68 0 107.5 -34.5t39.5 -92.5q0 -71 -49 -125t-133 -54zM313 222h-92l-30 -138h106q35 0 56 25.5t21 58.5q0 54 -61 54z" />
    <glyph glyph-name="afii10093" unicode="&#x44b;" horiz-adv-x="648" 
d="M535 0h-99l106 483h99zM111 483h100l-40 -177h92q68 0 107.5 -34.5t39.5 -92.5q0 -71 -49 -125t-133 -54h-223zM245 222h-92l-30 -138h106q35 0 56 25.5t21 58.5q0 54 -61 54z" />
    <glyph glyph-name="afii10094" unicode="&#x44c;" horiz-adv-x="459" 
d="M111 483h100l-40 -177h92q68 0 107.5 -34.5t39.5 -92.5q0 -71 -49 -125t-133 -54h-223zM245 222h-92l-30 -138h106q35 0 56 25.5t21 58.5q0 54 -61 54z" />
    <glyph glyph-name="afii10095" unicode="&#x44d;" horiz-adv-x="415" 
d="M197 495q87 0 138.5 -51.5t51.5 -144.5q0 -119 -71 -215t-178 -96q-103 0 -152 71l59 60q28 -49 87 -49q47 0 82.5 37t54.5 94h-181l19 86h178v4q0 58 -28.5 90t-74.5 32q-51 0 -88 -40l-36 67q57 55 139 55z" />
    <glyph glyph-name="afii10096" unicode="&#x44e;" horiz-adv-x="688" 
d="M414 -12q-88 0 -137.5 52t-49.5 141q0 16 1 25h-78l-45 -206h-99l105 483h100l-42 -190h75q27 87 87.5 144.5t141.5 57.5q88 0 137.5 -52t49.5 -141q0 -117 -69.5 -215.5t-176.5 -98.5zM419 76q59 0 99 75t40 150q0 52 -23.5 79t-65.5 27q-40 0 -73.5 -38.5t-50 -89.5
t-16.5 -97q0 -52 23.5 -79t66.5 -27z" />
    <glyph glyph-name="afii10097" unicode="&#x44f;" horiz-adv-x="482" 
d="M105 0h-118l147 193q-70 32 -70 111q0 71 49.5 125t132.5 54h229l-106 -483h-100l39 178h-76zM229 261h97l31 139h-112q-34 0 -55.5 -26t-21.5 -59q0 -54 61 -54z" />
    <glyph glyph-name="afii10071" unicode="&#x451;" horiz-adv-x="474" 
d="M473 613q0 -24 -19.5 -43t-44.5 -19q-21 0 -35.5 14.5t-14.5 35.5q0 25 19.5 43.5t44.5 18.5q21 0 35.5 -14t14.5 -36zM292 613q0 -24 -19.5 -43t-44.5 -19q-21 0 -35.5 14.5t-14.5 35.5q0 25 19.5 43.5t44.5 18.5q21 0 35.5 -14t14.5 -36zM226 -12q-93 0 -146 52
t-53 144q0 69 28 139t86.5 121t131.5 51q81 0 128 -49.5t47 -136.5q0 -44 -14 -100h-307q-4 -15 -4 -35q0 -42 29.5 -73t85.5 -31q59 0 107 43l34 -65q-65 -60 -153 -60zM139 280h215q4 15 4 37q0 42 -24 69.5t-69 27.5q-48 0 -82.5 -41t-43.5 -93z" />
    <glyph glyph-name="afii10099" unicode="&#x452;" horiz-adv-x="493" 
d="M363 532h-134l-25 -114q28 32 72 54.5t86 22.5q126 0 98 -130l-89 -406q-34 -155 -174 -155q-52 0 -80 31l45 75q15 -22 42 -22q53 0 67 71l82 371q18 77 -52 77q-30 0 -61 -19.5t-53 -47.5l-74 -340h-100l117 532h-52l12 60h53l17 75h99l-17 -75h133z" />
    <glyph glyph-name="afii10100" unicode="&#x453;" horiz-adv-x="377" 
d="M467 700l-166 -144h-70l142 144h94zM411 483l-20 -87h-200l-86 -396h-100l106 483h300z" />
    <glyph glyph-name="afii10101" unicode="&#x454;" horiz-adv-x="415" 
d="M217 -12q-87 0 -138.5 52t-51.5 144q0 119 71 215t178 96q105 0 152 -71l-58 -59q-28 49 -87 49q-46 0 -82 -36t-55 -91h182l-19 -86h-180v-9q0 -58 28.5 -90t74.5 -32q52 0 88 41l36 -68q-58 -55 -139 -55z" />
    <glyph glyph-name="afii10102" unicode="&#x455;" horiz-adv-x="401" 
d="M169 -12q-57 0 -105.5 21t-76.5 57l58 67q18 -27 53.5 -46.5t75.5 -19.5q34 0 56 20t22 47q0 24 -30.5 45.5t-66.5 37t-66.5 47.5t-30.5 76q0 64 46.5 109.5t126.5 45.5q49 0 93.5 -19.5t70.5 -51.5l-53 -64q-14 23 -46.5 39.5t-66.5 16.5t-54 -16.5t-20 -42.5
q0 -18 20.5 -34t49.5 -30t57.5 -31t49 -45.5t20.5 -64.5q0 -68 -50.5 -116t-132.5 -48z" />
    <glyph glyph-name="afii10103" unicode="&#x456;" horiz-adv-x="218" 
d="M181 544q-24 0 -40 15.5t-16 38.5q0 32 22 51.5t48 19.5q24 0 40.5 -16t16.5 -38q0 -32 -22.5 -51.5t-48.5 -19.5zM105 0h-100l107 483h100z" />
    <glyph glyph-name="afii10104" unicode="&#x457;" horiz-adv-x="218" 
d="M337 613q0 -24 -19.5 -43t-44.5 -19q-21 0 -35.5 14.5t-14.5 35.5q0 25 19.5 43.5t44.5 18.5q21 0 35.5 -14t14.5 -36zM156 613q0 -24 -19.5 -43t-44.5 -19q-21 0 -35.5 14.5t-14.5 35.5q0 25 19.5 43.5t44.5 18.5q21 0 35.5 -14t14.5 -36zM105 0h-100l107 483h100z" />
    <glyph glyph-name="afii10105" unicode="&#x458;" horiz-adv-x="218" 
d="M-58 -196q-67 0 -98 35l43 72q16 -23 45 -23q48 0 63 71l117 524h100l-117 -524q-18 -79 -53.5 -117t-99.5 -38zM181 544q-24 0 -40 15.5t-16 38.5q0 32 22 51.5t48 19.5q24 0 40.5 -16t16.5 -38q0 -32 -22.5 -51.5t-48.5 -19.5z" />
    <glyph glyph-name="afii10106" unicode="&#x459;" horiz-adv-x="727" 
d="M-40 -12l19 85q32 0 56.5 33t52.5 124l78 253h312l-40 -182h95q76 0 113.5 -39t29.5 -102q-6 -68 -57 -114t-133 -46h-213l86 396h-121l-52 -174q-38 -129 -93 -181.5t-133 -52.5zM509 217h-90l-29 -133h99q37 0 59.5 19.5t26.5 51.5q3 29 -14 45.5t-52 16.5z" />
    <glyph glyph-name="afii10107" unicode="&#x45a;" horiz-adv-x="727" 
d="M105 0h-100l106 483h100l-42 -190h168l42 190h99l-42 -190h97q66 0 105.5 -32.5t39.5 -87.5q0 -69 -48 -121t-130 -52h-227l45 206h-168zM514 210h-96l-28 -126h110q33 0 53 23t20 54q0 49 -59 49z" />
    <glyph glyph-name="afii10108" unicode="&#x45b;" horiz-adv-x="493" 
d="M380 0h-99l72 329q4 12 4 26q0 52 -62 52q-55 0 -108 -69l-74 -338h-100l117 532h-52l13 59h52l17 76h100l-17 -76h134l-13 -59h-134l-25 -113q68 76 143 76q54 0 85 -27t31 -73q0 -10 -5 -35z" />
    <glyph glyph-name="afii10109" unicode="&#x45c;" horiz-adv-x="456" 
d="M488 700l-166 -144h-70l142 144h94zM394 0h-114l-71 205l-78 -81l-26 -124h-100l107 483h100l-52 -231l218 231h120l-208 -217z" />
    <glyph glyph-name="afii10110" unicode="&#x45e;" horiz-adv-x="430" 
d="M-52 -185l33 85q10 -7 36 -7q30 0 54 39l35 61l-51 490h103l26 -363l189 363h109l-318 -574q-33 -58 -67 -81.5t-82 -23.5q-38 0 -67 11zM441 616q-72 -75 -164 -75q-94 0 -133 75l52 38q26 -53 91 -53t113 53z" />
    <glyph glyph-name="afii10193" unicode="&#x45f;" horiz-adv-x="485" 
d="M111 -128l28 128h-133l105 483h100l-87 -396h168l87 396h99l-106 -483h-133l-28 -128h-100z" />
    <glyph glyph-name="afii10050" unicode="&#x490;" horiz-adv-x="464" 
d="M121 0h-111l147 667h254l28 126h111l-49 -223h-255z" />
    <glyph glyph-name="afii10098" unicode="&#x491;" horiz-adv-x="377" 
d="M191 396l-86 -396h-100l106 483h200l28 128h100l-48 -215h-200z" />
    <glyph glyph-name="uni1E02" unicode="&#x1e02;" horiz-adv-x="540" 
d="M279 0h-269l147 667h225q75 0 118.5 -42t43.5 -106q0 -68 -41 -122t-102 -62q40 -11 62.5 -47.5t22.5 -80.5q0 -82 -53.5 -144.5t-153.5 -62.5zM206 389h122q48 0 73 34t25 76q0 32 -21 51.5t-54 19.5h-105zM267 98q48 0 77.5 34.5t29.5 83.5q0 36 -20.5 55.5t-57.5 19.5
h-111l-43 -193h125zM444 780q0 -25 -19 -44t-45 -19q-22 0 -36 14t-14 36q0 25 19 44t45 19q22 0 36 -14.5t14 -35.5z" />
    <glyph glyph-name="uni1E03" unicode="&#x1e03;" horiz-adv-x="494" 
d="M245 -12q-90 0 -126 79l-14 -67h-99l146 667h100l-55 -246q53 74 127 74q67 0 105.5 -45.5t38.5 -128.5q0 -73 -24.5 -147.5t-77.5 -130t-121 -55.5zM228 76q40 0 72.5 39.5t48 91t15.5 98.5q0 48 -23 75t-62 27q-28 0 -55 -19.5t-45 -48.5l-43 -196q10 -29 35 -48
t57 -19zM429 780q0 -25 -19 -44t-45 -19q-22 0 -36 14t-14 36q0 25 19 44t45 19q22 0 36 -14.5t14 -35.5z" />
    <glyph glyph-name="uni1E0A" unicode="&#x1e0a;" horiz-adv-x="583" 
d="M209 0h-199l147 667h195q90 0 155 -67.5t65 -180.5q0 -55 -11.5 -110.5t-39 -112t-68 -99.5t-103.5 -70t-141 -27zM142 98h86q72 0 126.5 51.5t79 122t24.5 143.5q0 71 -36 113t-91 42h-85zM471 780q0 -25 -19 -44t-45 -19q-22 0 -36 14t-14 36q0 25 19 44t45 19
q22 0 36 -14.5t14 -35.5z" />
    <glyph glyph-name="uni1E0B" unicode="&#x1e0b;" horiz-adv-x="494" 
d="M248 495q42 0 75.5 -20.5t50.5 -58.5l55 251h100l-148 -667h-100l14 62q-53 -74 -126 -74q-67 0 -105.5 45.5t-38.5 128.5q0 73 24.5 147.5t77.5 130t121 55.5zM266 407q-59 0 -98 -76t-39 -153q0 -48 23 -75t62 -27q28 0 55 19.5t44 48.5l44 196q-10 29 -35 48t-56 19z
M416 780q0 -25 -19 -44t-45 -19q-22 0 -36 14t-14 36q0 25 19 44t45 19q22 0 36 -14.5t14 -35.5z" />
    <glyph glyph-name="uni1E1E" unicode="&#x1e1e;" horiz-adv-x="464" 
d="M421 780q0 -25 -19 -44t-45 -19q-22 0 -36 14t-14 36q0 25 19 44t45 19q22 0 36 -14.5t14 -35.5zM121 0h-111l147 667h365l-21 -97h-255l-40 -181h248l-22 -98h-247z" />
    <glyph glyph-name="uni1E1F" unicode="&#x1e1f;" horiz-adv-x="274" 
d="M369 780q0 -25 -19 -44t-45 -19q-22 0 -36 14t-14 36q0 25 19 44t45 19q22 0 36 -14.5t14 -35.5zM125 0h-99l87 397h-63l20 86h62l10 45q32 149 154 149q67 0 102 -37l-48 -67q-17 20 -45 20q-49 0 -64 -65l-9 -45h81l-20 -86h-80z" />
    <glyph glyph-name="uni1E22" unicode="&#x1e22;" horiz-adv-x="593" 
d="M476 0h-111l65 294h-245l-64 -294h-111l147 667h111l-61 -275h244l61 275h111zM471 780q0 -25 -19 -44t-45 -19q-22 0 -36 14t-14 36q0 25 19 44t45 19q22 0 36 -14.5t14 -35.5z" />
    <glyph glyph-name="uni1E23" unicode="&#x1e23;" horiz-adv-x="485" 
d="M372 0h-99l72 329q4 12 4 26q0 52 -62 52q-55 0 -108 -69l-74 -338h-100l147 667h100l-55 -248q68 76 143 76q54 0 85 -27t31 -73q0 -10 -5 -35zM419 780q0 -25 -19 -44t-45 -19q-22 0 -36 14t-14 36q0 25 19 44t45 19q22 0 36 -14.5t14 -35.5z" />
    <glyph glyph-name="uni1E56" unicode="&#x1e56;" horiz-adv-x="513" 
d="M121 0h-111l147 667h208q79 0 126 -48t47 -123q0 -44 -14.5 -85.5t-42.5 -78t-77.5 -58.5t-112.5 -22h-115zM197 350h102q56 0 89.5 40.5t33.5 95.5q0 38 -21.5 61t-56.5 23h-98zM443 780q0 -25 -19 -44t-45 -19q-22 0 -36 14t-14 36q0 25 19 44t45 19q22 0 36 -14.5
t14 -35.5z" />
    <glyph glyph-name="uni1E57" unicode="&#x1e57;" horiz-adv-x="492" 
d="M245 -12q-90 0 -126 79l-55 -251h-100l148 667h100l-15 -62q53 74 127 74q67 0 105.5 -45.5t38.5 -128.5q0 -73 -24.5 -147.5t-77.5 -130t-121 -55.5zM228 76q40 0 72.5 39.5t48 91t15.5 98.5q0 48 -23 75t-62 27q-28 0 -55 -19.5t-45 -48.5l-43 -196q10 -29 35 -48
t57 -19zM393 613q0 -25 -19 -44t-45 -19q-22 0 -36 14t-14 36q0 25 19 44t45 19q22 0 36 -14.5t14 -35.5z" />
    <glyph glyph-name="uni1E60" unicode="&#x1e60;" horiz-adv-x="486" 
d="M217 -12q-71 0 -132 27t-92 71l69 81q25 -36 68.5 -58t91.5 -22t76.5 29.5t28.5 72.5q0 27 -24.5 51t-59.5 44.5t-69.5 44t-59 60t-24.5 82.5q0 85 63.5 146t158.5 61q59 0 112 -22.5t86 -61.5l-66 -80q-25 31 -63 48.5t-78 17.5q-41 0 -68.5 -27t-27.5 -63
q0 -25 24.5 -48.5t59.5 -44t69.5 -44.5t59 -61.5t24.5 -83.5q0 -92 -63 -156t-164 -64zM420 780q0 -25 -19 -44t-45 -19q-22 0 -36 14t-14 36q0 25 19 44t45 19q22 0 36 -14.5t14 -35.5z" />
    <glyph glyph-name="uni1E61" unicode="&#x1e61;" horiz-adv-x="401" 
d="M169 -12q-57 0 -105.5 21t-76.5 57l58 67q18 -27 53.5 -46.5t75.5 -19.5q34 0 56 20t22 47q0 24 -30.5 45.5t-66.5 37t-66.5 47.5t-30.5 76q0 64 46.5 109.5t126.5 45.5q49 0 93.5 -19.5t70.5 -51.5l-53 -64q-14 23 -46.5 39.5t-66.5 16.5t-54 -16.5t-20 -42.5
q0 -18 20.5 -34t49.5 -30t57.5 -31t49 -45.5t20.5 -64.5q0 -68 -50.5 -116t-132.5 -48zM339 613q0 -25 -19 -44t-45 -19q-22 0 -36 14t-14 36q0 25 19 44t45 19q22 0 36 -14.5t14 -35.5z" />
    <glyph glyph-name="uni1E6A" unicode="&#x1e6a;" horiz-adv-x="462" 
d="M232 0h-110l125 570h-152l21 97h416l-22 -97h-152zM406 780q0 -25 -19 -44t-45 -19q-22 0 -36 14t-14 36q0 25 19 44t45 19q22 0 36 -14.5t14 -35.5z" />
    <glyph glyph-name="uni1E6B" unicode="&#x1e6b;" horiz-adv-x="283" 
d="M158 -12q-114 0 -114 89q0 18 4 35l63 285h-63l19 86h64l29 132h99l-29 -132h81l-20 -86h-80l-59 -264q-3 -18 -3 -22q0 -35 38 -35q19 0 34 11l6 -79q-27 -20 -69 -20zM302 780q0 -25 -19 -44t-45 -19q-22 0 -36 14t-14 36q0 25 19 44t45 19q22 0 36 -14.5t14 -35.5z
" />
    <glyph glyph-name="Wgrave" unicode="&#x1e80;" horiz-adv-x="745" 
d="M530 0h-116l11 479l-202 -479h-116l-4 667h117l-15 -498l214 498h89l-7 -498l206 498h121zM525 723h-68l-102 144h93z" />
    <glyph glyph-name="wgrave" unicode="&#x1e81;" horiz-adv-x="667" 
d="M477 0h-104l-16 355l-171 -355h-104l-22 483h100l6 -352l170 352h92l16 -352l162 352h107zM450 556h-68l-102 144h93z" />
    <glyph glyph-name="Wacute" unicode="&#x1e82;" horiz-adv-x="745" 
d="M657 867l-166 -144h-70l142 144h94zM530 0h-116l11 479l-202 -479h-116l-4 667h117l-15 -498l214 498h89l-7 -498l206 498h121z" />
    <glyph glyph-name="wacute" unicode="&#x1e83;" horiz-adv-x="667" 
d="M583 700l-166 -144h-70l142 144h94zM477 0h-104l-16 355l-171 -355h-104l-22 483h100l6 -352l170 352h92l16 -352l162 352h107z" />
    <glyph glyph-name="Wdieresis" unicode="&#x1e84;" horiz-adv-x="745" 
d="M634 780q0 -24 -19.5 -43t-44.5 -19q-21 0 -35.5 14.5t-14.5 35.5q0 25 19.5 43.5t44.5 18.5q21 0 35.5 -14t14.5 -36zM453 780q0 -24 -19.5 -43t-44.5 -19q-21 0 -35.5 14.5t-14.5 35.5q0 25 19.5 43.5t44.5 18.5q21 0 35.5 -14t14.5 -36zM530 0h-116l11 479l-202 -479
h-116l-4 667h117l-15 -498l214 498h89l-7 -498l206 498h121z" />
    <glyph glyph-name="wdieresis" unicode="&#x1e85;" horiz-adv-x="667" 
d="M559 613q0 -24 -19.5 -43t-44.5 -19q-21 0 -35.5 14.5t-14.5 35.5q0 25 19.5 43.5t44.5 18.5q21 0 35.5 -14t14.5 -36zM378 613q0 -24 -19.5 -43t-44.5 -19q-21 0 -35.5 14.5t-14.5 35.5q0 25 19.5 43.5t44.5 18.5q21 0 35.5 -14t14.5 -36zM477 0h-104l-16 355l-171 -355
h-104l-22 483h100l6 -352l170 352h92l16 -352l162 352h107z" />
    <glyph glyph-name="uni1EA0" unicode="&#x1ea0;" horiz-adv-x="536" 
d="M479 0h-115l-7 132h-220l-64 -132h-125l346 667h133zM355 230l-16 319l-157 -319h173zM240 -126q0 -25 -19 -44t-45 -19q-22 0 -36 14t-14 36q0 25 19 44t45 19q22 0 36 -14.5t14 -35.5z" />
    <glyph glyph-name="uni1EA1" unicode="&#x1ea1;" horiz-adv-x="494" 
d="M248 495q42 0 75.5 -20.5t50.5 -58.5l15 67h99l-107 -483h-100l14 62q-53 -74 -126 -74q-67 0 -105.5 45.5t-38.5 128.5q0 73 24.5 147.5t77.5 130t121 55.5zM266 407q-59 0 -98 -76t-39 -153q0 -48 23 -75t62 -27q28 0 55 19.5t44 48.5l44 196q-10 29 -35 48t-56 19z
M217 -126q0 -25 -19 -44t-45 -19q-22 0 -36 14t-14 36q0 25 19 44t45 19q22 0 36 -14.5t14 -35.5z" />
    <glyph glyph-name="uni1EA2" unicode="&#x1ea2;" horiz-adv-x="536" 
d="M479 0h-115l-7 132h-220l-64 -132h-125l346 667h133zM355 230l-16 319l-157 -319h173zM350 759l-35 15q24 46 71 46q27 0 44.5 -14.5t17.5 -41.5q0 -36 -29 -67h-47q33 30 33 60q1 12 -5.5 19t-17.5 7q-19 0 -32 -24z" />
    <glyph glyph-name="uni1EA3" unicode="&#x1ea3;" horiz-adv-x="494" 
d="M248 495q42 0 75.5 -20.5t50.5 -58.5l15 67h99l-107 -483h-100l14 62q-53 -74 -126 -74q-67 0 -105.5 45.5t-38.5 128.5q0 73 24.5 147.5t77.5 130t121 55.5zM266 407q-59 0 -98 -76t-39 -153q0 -48 23 -75t62 -27q28 0 55 19.5t44 48.5l44 196q-10 29 -35 48t-56 19z
M289 589l-35 15q24 46 71 46q27 0 44.5 -14.5t17.5 -41.5q0 -36 -29 -67h-47q33 30 33 60q1 12 -5.5 19t-17.5 7q-19 0 -32 -24z" />
    <glyph glyph-name="uni1EA4" unicode="&#x1ea4;" horiz-adv-x="536" 
d="M483 682h-58l-46 73l-85 -73h-62l111 108h91zM479 0h-115l-7 132h-220l-64 -132h-125l346 667h133zM355 230l-16 319l-157 -319h173zM700 844l-166 -108h-70l142 108h94z" />
    <glyph glyph-name="uni1EA5" unicode="&#x1ea5;" horiz-adv-x="494" 
d="M248 495q42 0 75.5 -20.5t50.5 -58.5l15 67h99l-107 -483h-100l14 62q-53 -74 -126 -74q-67 0 -105.5 45.5t-38.5 128.5q0 73 24.5 147.5t77.5 130t121 55.5zM266 407q-59 0 -98 -76t-39 -153q0 -48 23 -75t62 -27q28 0 55 19.5t44 48.5l44 196q-10 29 -35 48t-56 19z
M438 556h-58l-46 97l-85 -97h-62l111 144h91zM656 771l-166 -144h-70l142 144h94z" />
    <glyph glyph-name="uni1EA6" unicode="&#x1ea6;" horiz-adv-x="536" 
d="M484 682h-58l-46 73l-85 -73h-62l111 108h91zM479 0h-115l-7 132h-220l-64 -132h-125l346 667h133zM355 230l-16 319l-157 -319h173zM278 736h-68l-102 108h93z" />
    <glyph glyph-name="uni1EA7" unicode="&#x1ea7;" horiz-adv-x="494" 
d="M248 495q42 0 75.5 -20.5t50.5 -58.5l15 67h99l-107 -483h-100l14 62q-53 -74 -126 -74q-67 0 -105.5 45.5t-38.5 128.5q0 73 24.5 147.5t77.5 130t121 55.5zM266 407q-59 0 -98 -76t-39 -153q0 -48 23 -75t62 -27q28 0 55 19.5t44 48.5l44 196q-10 29 -35 48t-56 19z
M438 556h-58l-46 97l-85 -97h-62l111 144h91zM234 627h-68l-102 144h93z" />
    <glyph glyph-name="uni1EA8" unicode="&#x1ea8;" horiz-adv-x="536" 
d="M484 682h-58l-46 73l-85 -73h-62l111 108h91zM479 0h-115l-7 132h-220l-64 -132h-125l346 667h133zM355 230l-16 319l-157 -319h173zM447 803l-35 11q24 34 71 34q27 0 44.5 -11t17.5 -31q0 -26 -29 -50h-47q33 22 33 45q1 9 -5.5 14.5t-17.5 5.5q-19 0 -32 -18z" />
    <glyph glyph-name="uni1EA9" unicode="&#x1ea9;" horiz-adv-x="494" 
d="M248 495q42 0 75.5 -20.5t50.5 -58.5l15 67h99l-107 -483h-100l14 62q-53 -74 -126 -74q-67 0 -105.5 45.5t-38.5 128.5q0 73 24.5 147.5t77.5 130t121 55.5zM266 407q-59 0 -98 -76t-39 -153q0 -48 23 -75t62 -27q28 0 55 19.5t44 48.5l44 196q-10 29 -35 48t-56 19z
M438 556h-58l-46 97l-85 -97h-62l111 144h91zM395 729l-35 15q24 46 71 46q27 0 44.5 -14.5t17.5 -41.5q0 -36 -29 -67h-47q33 30 33 60q1 12 -5.5 19t-17.5 7q-19 0 -32 -24z" />
    <glyph glyph-name="uni1EAA" unicode="&#x1eaa;" horiz-adv-x="536" 
d="M482 678h-58l-46 48l-85 -48h-62l111 72h91zM479 0h-115l-7 132h-220l-64 -132h-125l346 667h133zM355 230l-16 319l-157 -319h173zM435 757q-37 0 -59.5 20t-40.5 20q-30 0 -46 -37h-55q29 67 109 67q37 0 59.5 -20t40.5 -20q29 0 46 37h55q-28 -67 -109 -67z" />
    <glyph glyph-name="uni1EAB" unicode="&#x1eab;" horiz-adv-x="494" 
d="M248 495q42 0 75.5 -20.5t50.5 -58.5l15 67h99l-107 -483h-100l14 62q-53 -74 -126 -74q-67 0 -105.5 45.5t-38.5 128.5q0 73 24.5 147.5t77.5 130t121 55.5zM266 407q-59 0 -98 -76t-39 -153q0 -48 23 -75t62 -27q28 0 55 19.5t44 48.5l44 196q-10 29 -35 48t-56 19z
M431 523h-58l-46 97l-85 -97h-62l111 144h91zM403 682q-23 0 -38 12.5t-21.5 28t-16.5 28t-24 12.5q-30 0 -46 -75h-55q29 134 109 134q23 0 38 -12.5t21.5 -27.5t16.5 -27.5t24 -12.5q29 0 46 74h55q-29 -134 -109 -134z" />
    <glyph glyph-name="uni1EAC" unicode="&#x1eac;" horiz-adv-x="536" 
d="M479 0h-115l-7 132h-220l-64 -132h-125l346 667h133zM355 230l-16 319l-157 -319h173zM498 723h-58l-46 97l-85 -97h-62l111 144h91zM240 -126q0 -25 -19 -44t-45 -19q-22 0 -36 14t-14 36q0 25 19 44t45 19q22 0 36 -14.5t14 -35.5z" />
    <glyph glyph-name="uni1EAD" unicode="&#x1ead;" horiz-adv-x="494" 
d="M248 495q42 0 75.5 -20.5t50.5 -58.5l15 67h99l-107 -483h-100l14 62q-53 -74 -126 -74q-67 0 -105.5 45.5t-38.5 128.5q0 73 24.5 147.5t77.5 130t121 55.5zM266 407q-59 0 -98 -76t-39 -153q0 -48 23 -75t62 -27q28 0 55 19.5t44 48.5l44 196q-10 29 -35 48t-56 19z
M438 556h-58l-46 97l-85 -97h-62l111 144h91zM217 -126q0 -25 -19 -44t-45 -19q-22 0 -36 14t-14 36q0 25 19 44t45 19q22 0 36 -14.5t14 -35.5z" />
    <glyph glyph-name="uni1EAE" unicode="&#x1eae;" horiz-adv-x="536" 
d="M479 0h-115l-7 132h-220l-64 -132h-125l346 667h133zM355 230l-16 319l-157 -319h173zM550 837l-166 -91h-70l142 91h94zM521 736q-71 -58 -164 -58q-94 0 -133 58l52 29q25 -41 91 -41t113 41z" />
    <glyph glyph-name="uni1EAF" unicode="&#x1eaf;" horiz-adv-x="494" 
d="M248 495q42 0 75.5 -20.5t50.5 -58.5l15 67h99l-107 -483h-100l14 62q-53 -74 -126 -74q-67 0 -105.5 45.5t-38.5 128.5q0 73 24.5 147.5t77.5 130t121 55.5zM266 407q-59 0 -98 -76t-39 -153q0 -48 23 -75t62 -27q28 0 55 19.5t44 48.5l44 196q-10 29 -35 48t-56 19z
M495 769l-166 -144h-70l142 144h94zM465 591q-72 -75 -164 -75q-94 0 -133 75l52 38q26 -53 91 -53t113 53z" />
    <glyph glyph-name="uni1EB0" unicode="&#x1eb0;" horiz-adv-x="536" 
d="M479 0h-115l-7 132h-220l-64 -132h-125l346 667h133zM355 230l-16 319l-157 -319h173zM438 749h-68l-102 91h93zM521 736q-71 -58 -164 -58q-94 0 -133 58l52 29q25 -41 91 -41t113 41z" />
    <glyph glyph-name="uni1EB1" unicode="&#x1eb1;" horiz-adv-x="494" 
d="M248 495q42 0 75.5 -20.5t50.5 -58.5l15 67h99l-107 -483h-100l14 62q-53 -74 -126 -74q-67 0 -105.5 45.5t-38.5 128.5q0 73 24.5 147.5t77.5 130t121 55.5zM266 407q-59 0 -98 -76t-39 -153q0 -48 23 -75t62 -27q28 0 55 19.5t44 48.5l44 196q-10 29 -35 48t-56 19z
M388 628h-68l-102 144h93zM466 594q-72 -75 -164 -75q-94 0 -133 75l52 38q26 -53 91 -53t113 53z" />
    <glyph glyph-name="uni1EB2" unicode="&#x1eb2;" horiz-adv-x="536" 
d="M479 0h-115l-7 132h-220l-64 -132h-125l346 667h133zM355 230l-16 319l-157 -319h173zM356 785l-35 10q24 29 71 29q27 0 44.5 -9t17.5 -26q0 -23 -29 -43h-47q33 19 33 38q1 7 -5.5 12t-17.5 5q-19 0 -32 -16zM521 736q-71 -58 -164 -58q-94 0 -133 58l52 29
q25 -41 91 -41t113 41z" />
    <glyph glyph-name="uni1EB3" unicode="&#x1eb3;" horiz-adv-x="494" 
d="M248 495q42 0 75.5 -20.5t50.5 -58.5l15 67h99l-107 -483h-100l14 62q-53 -74 -126 -74q-67 0 -105.5 45.5t-38.5 128.5q0 73 24.5 147.5t77.5 130t121 55.5zM266 407q-59 0 -98 -76t-39 -153q0 -48 23 -75t62 -27q28 0 55 19.5t44 48.5l44 196q-10 29 -35 48t-56 19z
M308 692l-35 15q24 46 71 46q27 0 44.5 -14.5t17.5 -41.5q0 -36 -29 -67h-47q33 30 33 60q1 12 -5.5 19t-17.5 7q-19 0 -32 -24zM466 594q-72 -75 -164 -75q-94 0 -133 75l52 38q26 -53 91 -53t113 53z" />
    <glyph glyph-name="uni1EB4" unicode="&#x1eb4;" horiz-adv-x="536" 
d="M479 0h-115l-7 132h-220l-64 -132h-125l346 667h133zM355 230l-16 319l-157 -319h173zM521 724q-72 -46 -164 -46q-94 0 -133 46l52 23q26 -32 91 -32t113 32zM435 758q-37 0 -59.5 20t-40.5 20q-30 0 -46 -37h-55q29 67 109 67q37 0 59.5 -20t40.5 -20q29 0 46 37h55
q-28 -67 -109 -67z" />
    <glyph glyph-name="uni1EB5" unicode="&#x1eb5;" horiz-adv-x="494" 
d="M248 495q42 0 75.5 -20.5t50.5 -58.5l15 67h99l-107 -483h-100l14 62q-53 -74 -126 -74q-67 0 -105.5 45.5t-38.5 128.5q0 73 24.5 147.5t77.5 130t121 55.5zM266 407q-59 0 -98 -76t-39 -153q0 -48 23 -75t62 -27q28 0 55 19.5t44 48.5l44 196q-10 29 -35 48t-56 19z
M466 594q-72 -75 -164 -75q-94 0 -133 75l52 38q26 -53 91 -53t113 53zM396 654q-23 0 -38 12.5t-21.5 28t-16.5 28t-24 12.5q-30 0 -46 -75h-55q29 134 109 134q23 0 38 -12.5t21.5 -27.5t16.5 -27.5t24 -12.5q29 0 46 74h55q-29 -134 -109 -134z" />
    <glyph glyph-name="uni1EB6" unicode="&#x1eb6;" horiz-adv-x="536" 
d="M479 0h-115l-7 132h-220l-64 -132h-125l346 667h133zM355 230l-16 319l-157 -319h173zM240 -126q0 -25 -19 -44t-45 -19q-22 0 -36 14t-14 36q0 25 19 44t45 19q22 0 36 -14.5t14 -35.5zM530 783q-72 -75 -164 -75q-94 0 -133 75l52 38q26 -53 91 -53t113 53z" />
    <glyph glyph-name="uni1EB7" unicode="&#x1eb7;" horiz-adv-x="494" 
d="M248 495q42 0 75.5 -20.5t50.5 -58.5l15 67h99l-107 -483h-100l14 62q-53 -74 -126 -74q-67 0 -105.5 45.5t-38.5 128.5q0 73 24.5 147.5t77.5 130t121 55.5zM266 407q-59 0 -98 -76t-39 -153q0 -48 23 -75t62 -27q28 0 55 19.5t44 48.5l44 196q-10 29 -35 48t-56 19z
M217 -126q0 -25 -19 -44t-45 -19q-22 0 -36 14t-14 36q0 25 19 44t45 19q22 0 36 -14.5t14 -35.5zM471 616q-72 -75 -164 -75q-94 0 -133 75l52 38q26 -53 91 -53t113 53z" />
    <glyph glyph-name="uni1EB8" unicode="&#x1eb8;" horiz-adv-x="472" 
d="M375 0h-365l147 667h365l-21 -97h-255l-40 -181h248l-22 -98h-247l-43 -193h254zM220 -126q0 -25 -19 -44t-45 -19q-22 0 -36 14t-14 36q0 25 19 44t45 19q22 0 36 -14.5t14 -35.5z" />
    <glyph glyph-name="uni1EB9" unicode="&#x1eb9;" horiz-adv-x="474" 
d="M226 -12q-93 0 -146 52t-53 144q0 69 28 139t86.5 121t131.5 51q81 0 128 -49.5t47 -136.5q0 -44 -14 -100h-307q-4 -15 -4 -35q0 -42 29.5 -73t85.5 -31q59 0 107 43l34 -65q-65 -60 -153 -60zM139 280h215q4 15 4 37q0 42 -24 69.5t-69 27.5q-48 0 -82.5 -41t-43.5 -93
zM219 -126q0 -25 -19 -44t-45 -19q-22 0 -36 14t-14 36q0 25 19 44t45 19q22 0 36 -14.5t14 -35.5z" />
    <glyph glyph-name="uni1EBA" unicode="&#x1eba;" horiz-adv-x="472" 
d="M375 0h-365l147 667h365l-21 -97h-255l-40 -181h248l-22 -98h-247l-43 -193h254zM329 759l-35 15q24 46 71 46q27 0 44.5 -14.5t17.5 -41.5q0 -36 -29 -67h-47q33 30 33 60q1 12 -5.5 19t-17.5 7q-19 0 -32 -24z" />
    <glyph glyph-name="uni1EBB" unicode="&#x1ebb;" horiz-adv-x="474" 
d="M226 -12q-93 0 -146 52t-53 144q0 69 28 139t86.5 121t131.5 51q81 0 128 -49.5t47 -136.5q0 -44 -14 -100h-307q-4 -15 -4 -35q0 -42 29.5 -73t85.5 -31q59 0 107 43l34 -65q-65 -60 -153 -60zM139 280h215q4 15 4 37q0 42 -24 69.5t-69 27.5q-48 0 -82.5 -41t-43.5 -93
zM291 589l-35 15q24 46 71 46q27 0 44.5 -14.5t17.5 -41.5q0 -36 -29 -67h-47q33 30 33 60q1 12 -5.5 19t-17.5 7q-19 0 -32 -24z" />
    <glyph glyph-name="uni1EBC" unicode="&#x1ebc;" horiz-adv-x="472" 
d="M375 0h-365l147 667h365l-21 -97h-255l-40 -181h248l-22 -98h-247l-43 -193h254zM414 721q-23 0 -38 12.5t-21.5 28t-16.5 28t-24 12.5q-30 0 -46 -75h-55q29 134 109 134q23 0 38 -12.5t21.5 -27.5t16.5 -27.5t24 -12.5q29 0 46 74h55q-29 -134 -109 -134z" />
    <glyph glyph-name="uni1EBD" unicode="&#x1ebd;" horiz-adv-x="474" 
d="M226 -12q-93 0 -146 52t-53 144q0 69 28 139t86.5 121t131.5 51q81 0 128 -49.5t47 -136.5q0 -44 -14 -100h-307q-4 -15 -4 -35q0 -42 29.5 -73t85.5 -31q59 0 107 43l34 -65q-65 -60 -153 -60zM139 280h215q4 15 4 37q0 42 -24 69.5t-69 27.5q-48 0 -82.5 -41t-43.5 -93
zM376 554q-23 0 -38 12.5t-21.5 28t-16.5 28t-24 12.5q-30 0 -46 -75h-55q29 134 109 134q23 0 38 -12.5t21.5 -27.5t16.5 -27.5t24 -12.5q29 0 46 74h55q-29 -134 -109 -134z" />
    <glyph glyph-name="uni1EBE" unicode="&#x1ebe;" horiz-adv-x="472" 
d="M463 682h-58l-46 73l-85 -73h-62l111 108h91zM680 844l-166 -108h-70l142 108h94zM375 0h-365l147 667h365l-21 -97h-255l-40 -181h248l-22 -98h-247l-43 -193h254z" />
    <glyph glyph-name="uni1EBF" unicode="&#x1ebf;" horiz-adv-x="474" 
d="M440 556h-58l-46 97l-85 -97h-62l111 144h91zM658 771l-166 -144h-70l142 144h94zM226 -12q-93 0 -146 52t-53 144q0 69 28 139t86.5 121t131.5 51q81 0 128 -49.5t47 -136.5q0 -44 -14 -100h-307q-4 -15 -4 -35q0 -42 29.5 -73t85.5 -31q59 0 107 43l34 -65
q-65 -60 -153 -60zM139 280h215q4 15 4 37q0 42 -24 69.5t-69 27.5q-48 0 -82.5 -41t-43.5 -93z" />
    <glyph glyph-name="uni1EC0" unicode="&#x1ec0;" horiz-adv-x="472" 
d="M463 682h-58l-46 73l-85 -73h-62l111 108h91zM375 0h-365l147 667h365l-21 -97h-255l-40 -181h248l-22 -98h-247l-43 -193h254zM257 736h-68l-102 108h93z" />
    <glyph glyph-name="uni1EC1" unicode="&#x1ec1;" horiz-adv-x="474" 
d="M441 556h-58l-46 97l-85 -97h-62l111 144h91zM226 -12q-93 0 -146 52t-53 144q0 69 28 139t86.5 121t131.5 51q81 0 128 -49.5t47 -136.5q0 -44 -14 -100h-307q-4 -15 -4 -35q0 -42 29.5 -73t85.5 -31q59 0 107 43l34 -65q-65 -60 -153 -60zM139 280h215q4 15 4 37
q0 42 -24 69.5t-69 27.5q-48 0 -82.5 -41t-43.5 -93zM236 627h-68l-102 144h93z" />
    <glyph glyph-name="uni1EC2" unicode="&#x1ec2;" horiz-adv-x="472" 
d="M462 682h-58l-46 73l-85 -73h-62l111 108h91zM375 0h-365l147 667h365l-21 -97h-255l-40 -181h248l-22 -98h-247l-43 -193h254zM425 803l-35 11q24 34 71 34q27 0 44.5 -11t17.5 -31q0 -26 -29 -50h-47q33 22 33 45q1 9 -5.5 14.5t-17.5 5.5q-19 0 -32 -18z" />
    <glyph glyph-name="uni1EC3" unicode="&#x1ec3;" horiz-adv-x="474" 
d="M440 556h-58l-46 97l-85 -97h-62l111 144h91zM226 -12q-93 0 -146 52t-53 144q0 69 28 139t86.5 121t131.5 51q81 0 128 -49.5t47 -136.5q0 -44 -14 -100h-307q-4 -15 -4 -35q0 -42 29.5 -73t85.5 -31q59 0 107 43l34 -65q-65 -60 -153 -60zM139 280h215q4 15 4 37
q0 42 -24 69.5t-69 27.5q-48 0 -82.5 -41t-43.5 -93zM397 729l-35 15q24 46 71 46q27 0 44.5 -14.5t17.5 -41.5q0 -36 -29 -67h-47q33 30 33 60q1 12 -5.5 19t-17.5 7q-19 0 -32 -24z" />
    <glyph glyph-name="uni1EC4" unicode="&#x1ec4;" horiz-adv-x="472" 
d="M462 678h-58l-46 48l-85 -48h-62l111 72h91zM375 0h-365l147 667h365l-21 -97h-255l-40 -181h248l-22 -98h-247l-43 -193h254zM414 757q-37 0 -59.5 20t-40.5 20q-30 0 -46 -37h-55q29 67 109 67q37 0 59.5 -20t40.5 -20q29 0 46 37h55q-28 -67 -109 -67z" />
    <glyph glyph-name="uni1EC5" unicode="&#x1ec5;" horiz-adv-x="474" 
d="M434 523h-58l-46 97l-85 -97h-62l111 144h91zM226 -12q-93 0 -146 52t-53 144q0 69 28 139t86.5 121t131.5 51q81 0 128 -49.5t47 -136.5q0 -44 -14 -100h-307q-4 -15 -4 -35q0 -42 29.5 -73t85.5 -31q59 0 107 43l34 -65q-65 -60 -153 -60zM139 280h215q4 15 4 37
q0 42 -24 69.5t-69 27.5q-48 0 -82.5 -41t-43.5 -93zM404 682q-23 0 -38 12.5t-21.5 28t-16.5 28t-24 12.5q-30 0 -46 -75h-55q29 134 109 134q23 0 38 -12.5t21.5 -27.5t16.5 -27.5t24 -12.5q29 0 46 74h55q-29 -134 -109 -134z" />
    <glyph glyph-name="uni1EC6" unicode="&#x1ec6;" horiz-adv-x="472" 
d="M478 723h-58l-46 97l-85 -97h-62l111 144h91zM375 0h-365l147 667h365l-21 -97h-255l-40 -181h248l-22 -98h-247l-43 -193h254zM220 -126q0 -25 -19 -44t-45 -19q-22 0 -36 14t-14 36q0 25 19 44t45 19q22 0 36 -14.5t14 -35.5z" />
    <glyph glyph-name="uni1EC7" unicode="&#x1ec7;" horiz-adv-x="474" 
d="M440 556h-58l-46 97l-85 -97h-62l111 144h91zM226 -12q-93 0 -146 52t-53 144q0 69 28 139t86.5 121t131.5 51q81 0 128 -49.5t47 -136.5q0 -44 -14 -100h-307q-4 -15 -4 -35q0 -42 29.5 -73t85.5 -31q59 0 107 43l34 -65q-65 -60 -153 -60zM139 280h215q4 15 4 37
q0 42 -24 69.5t-69 27.5q-48 0 -82.5 -41t-43.5 -93zM219 -126q0 -25 -19 -44t-45 -19q-22 0 -36 14t-14 36q0 25 19 44t45 19q22 0 36 -14.5t14 -35.5z" />
    <glyph glyph-name="uni1EC8" unicode="&#x1ec8;" horiz-adv-x="239" 
d="M121 0h-111l147 667h111zM201 759l-35 15q24 46 71 46q27 0 44.5 -14.5t17.5 -41.5q0 -36 -29 -67h-47q33 30 33 60q1 12 -5.5 19t-17.5 7q-19 0 -32 -24z" />
    <glyph glyph-name="uni1EC9" unicode="&#x1ec9;" horiz-adv-x="218" 
d="M105 0h-100l107 483h100zM153 589l-35 15q24 46 71 46q27 0 44.5 -14.5t17.5 -41.5q0 -36 -29 -67h-47q33 30 33 60q1 12 -5.5 19t-17.5 7q-19 0 -32 -24z" />
    <glyph glyph-name="uni1ECA" unicode="&#x1eca;" horiz-adv-x="239" 
d="M121 0h-111l147 667h111zM92 -126q0 -25 -19 -44t-45 -19q-22 0 -36 14t-14 36q0 25 19 44t45 19q22 0 36 -14.5t14 -35.5z" />
    <glyph glyph-name="uni1ECB" unicode="&#x1ecb;" horiz-adv-x="218" 
d="M181 544q-24 0 -40 15.5t-16 38.5q0 32 22 51.5t48 19.5q24 0 40.5 -16t16.5 -38q0 -32 -22.5 -51.5t-48.5 -19.5zM105 0h-100l107 483h100zM84 -126q0 -25 -19 -44t-45 -19q-22 0 -36 14t-14 36q0 25 19 44t45 19q22 0 36 -14.5t14 -35.5z" />
    <glyph glyph-name="uni1ECC" unicode="&#x1ecc;" horiz-adv-x="612" 
d="M281 -12q-108 0 -173 68.5t-65 180.5q0 106 38 205t114.5 167.5t174.5 68.5q107 0 172.5 -69t65.5 -180q0 -105 -38 -204.5t-115 -168t-174 -68.5zM287 87q57 0 105.5 52.5t74.5 130t26 156.5q0 71 -36 112.5t-94 41.5q-57 0 -105.5 -52.5t-74.5 -130.5t-26 -158
q0 -71 35.5 -111.5t94.5 -40.5zM280 -126q0 -25 -19 -44t-45 -19q-22 0 -36 14t-14 36q0 25 19 44t45 19q22 0 36 -14.5t14 -35.5z" />
    <glyph glyph-name="uni1ECD" unicode="&#x1ecd;" horiz-adv-x="488" 
d="M214 -12q-89 0 -138.5 52t-49.5 141q0 117 69.5 215.5t176.5 98.5q89 0 138.5 -52t49.5 -141q0 -117 -69.5 -215.5t-176.5 -98.5zM218 76q40 0 73.5 38.5t50 89.5t16.5 97q0 52 -23.5 79t-66.5 27q-40 0 -73.5 -38.5t-50 -89.5t-16.5 -97q0 -52 23.5 -79t66.5 -27z
M218 -126q0 -25 -19 -44t-45 -19q-22 0 -36 14t-14 36q0 25 19 44t45 19q22 0 36 -14.5t14 -35.5z" />
    <glyph glyph-name="uni1ECE" unicode="&#x1ece;" horiz-adv-x="612" 
d="M281 -12q-108 0 -173 68.5t-65 180.5q0 106 38 205t114.5 167.5t174.5 68.5q107 0 172.5 -69t65.5 -180q0 -105 -38 -204.5t-115 -168t-174 -68.5zM287 87q57 0 105.5 52.5t74.5 130t26 156.5q0 71 -36 112.5t-94 41.5q-57 0 -105.5 -52.5t-74.5 -130.5t-26 -158
q0 -71 35.5 -111.5t94.5 -40.5zM389 759l-35 15q24 46 71 46q27 0 44.5 -14.5t17.5 -41.5q0 -36 -29 -67h-47q33 30 33 60q1 12 -5.5 19t-17.5 7q-19 0 -32 -24z" />
    <glyph glyph-name="uni1ECF" unicode="&#x1ecf;" horiz-adv-x="488" 
d="M214 -12q-89 0 -138.5 52t-49.5 141q0 117 69.5 215.5t176.5 98.5q89 0 138.5 -52t49.5 -141q0 -117 -69.5 -215.5t-176.5 -98.5zM218 76q40 0 73.5 38.5t50 89.5t16.5 97q0 52 -23.5 79t-66.5 27q-40 0 -73.5 -38.5t-50 -89.5t-16.5 -97q0 -52 23.5 -79t66.5 -27z
M289 589l-35 15q24 46 71 46q27 0 44.5 -14.5t17.5 -41.5q0 -36 -29 -67h-47q33 30 33 60q1 12 -5.5 19t-17.5 7q-19 0 -32 -24z" />
    <glyph glyph-name="uni1ED0" unicode="&#x1ed0;" horiz-adv-x="612" 
d="M522 682h-58l-46 73l-85 -73h-62l111 108h91zM740 844l-166 -108h-70l142 108h94zM281 -12q-108 0 -173 68.5t-65 180.5q0 106 38 205t114.5 167.5t174.5 68.5q107 0 172.5 -69t65.5 -180q0 -105 -38 -204.5t-115 -168t-174 -68.5zM287 87q57 0 105.5 52.5t74.5 130
t26 156.5q0 71 -36 112.5t-94 41.5q-57 0 -105.5 -52.5t-74.5 -130.5t-26 -158q0 -71 35.5 -111.5t94.5 -40.5z" />
    <glyph glyph-name="uni1ED1" unicode="&#x1ed1;" horiz-adv-x="488" 
d="M439 556h-58l-46 97l-85 -97h-62l111 144h91zM657 771l-166 -144h-70l142 144h94zM214 -12q-89 0 -138.5 52t-49.5 141q0 117 69.5 215.5t176.5 98.5q89 0 138.5 -52t49.5 -141q0 -117 -69.5 -215.5t-176.5 -98.5zM218 76q40 0 73.5 38.5t50 89.5t16.5 97q0 52 -23.5 79
t-66.5 27q-40 0 -73.5 -38.5t-50 -89.5t-16.5 -97q0 -52 23.5 -79t66.5 -27z" />
    <glyph glyph-name="uni1ED2" unicode="&#x1ed2;" horiz-adv-x="612" 
d="M522 682h-58l-46 73l-85 -73h-62l111 108h91zM281 -12q-108 0 -173 68.5t-65 180.5q0 106 38 205t114.5 167.5t174.5 68.5q107 0 172.5 -69t65.5 -180q0 -105 -38 -204.5t-115 -168t-174 -68.5zM287 87q57 0 105.5 52.5t74.5 130t26 156.5q0 71 -36 112.5t-94 41.5
q-57 0 -105.5 -52.5t-74.5 -130.5t-26 -158q0 -71 35.5 -111.5t94.5 -40.5zM316 736h-68l-102 108h93z" />
    <glyph glyph-name="uni1ED3" unicode="&#x1ed3;" horiz-adv-x="488" 
d="M439 556h-58l-46 97l-85 -97h-62l111 144h91zM214 -12q-89 0 -138.5 52t-49.5 141q0 117 69.5 215.5t176.5 98.5q89 0 138.5 -52t49.5 -141q0 -117 -69.5 -215.5t-176.5 -98.5zM218 76q40 0 73.5 38.5t50 89.5t16.5 97q0 52 -23.5 79t-66.5 27q-40 0 -73.5 -38.5
t-50 -89.5t-16.5 -97q0 -52 23.5 -79t66.5 -27zM235 627h-68l-102 144h93z" />
    <glyph glyph-name="uni1ED4" unicode="&#x1ed4;" horiz-adv-x="612" 
d="M522 682h-58l-46 73l-85 -73h-62l111 108h91zM281 -12q-108 0 -173 68.5t-65 180.5q0 106 38 205t114.5 167.5t174.5 68.5q107 0 172.5 -69t65.5 -180q0 -105 -38 -204.5t-115 -168t-174 -68.5zM287 87q57 0 105.5 52.5t74.5 130t26 156.5q0 71 -36 112.5t-94 41.5
q-57 0 -105.5 -52.5t-74.5 -130.5t-26 -158q0 -71 35.5 -111.5t94.5 -40.5zM484 803l-35 11q24 34 71 34q27 0 44.5 -11t17.5 -31q0 -26 -29 -50h-47q33 22 33 45q1 9 -5.5 14.5t-17.5 5.5q-18 0 -32 -18z" />
    <glyph glyph-name="uni1ED5" unicode="&#x1ed5;" horiz-adv-x="488" 
d="M439 556h-58l-46 97l-85 -97h-62l111 144h91zM214 -12q-89 0 -138.5 52t-49.5 141q0 117 69.5 215.5t176.5 98.5q89 0 138.5 -52t49.5 -141q0 -117 -69.5 -215.5t-176.5 -98.5zM218 76q40 0 73.5 38.5t50 89.5t16.5 97q0 52 -23.5 79t-66.5 27q-40 0 -73.5 -38.5
t-50 -89.5t-16.5 -97q0 -52 23.5 -79t66.5 -27zM396 729l-35 15q24 46 71 46q27 0 44.5 -14.5t17.5 -41.5q0 -36 -29 -67h-47q33 30 33 60q1 12 -5.5 19t-17.5 7q-19 0 -32 -24z" />
    <glyph glyph-name="uni1ED6" unicode="&#x1ed6;" horiz-adv-x="612" 
d="M517 678h-58l-46 48l-85 -48h-62l111 72h91zM281 -12q-108 0 -173 68.5t-65 180.5q0 106 38 205t114.5 167.5t174.5 68.5q107 0 172.5 -69t65.5 -180q0 -105 -38 -204.5t-115 -168t-174 -68.5zM287 87q57 0 105.5 52.5t74.5 130t26 156.5q0 71 -36 112.5t-94 41.5
q-57 0 -105.5 -52.5t-74.5 -130.5t-26 -158q0 -71 35.5 -111.5t94.5 -40.5zM473 757q-37 0 -59.5 20t-40.5 20q-30 0 -46 -37h-55q29 67 109 67q37 0 59.5 -20t40.5 -20q29 0 46 37h55q-28 -67 -109 -67z" />
    <glyph glyph-name="uni1ED7" unicode="&#x1ed7;" horiz-adv-x="488" 
d="M431 523h-58l-46 97l-85 -97h-62l111 144h91zM214 -12q-89 0 -138.5 52t-49.5 141q0 117 69.5 215.5t176.5 98.5q89 0 138.5 -52t49.5 -141q0 -117 -69.5 -215.5t-176.5 -98.5zM218 76q40 0 73.5 38.5t50 89.5t16.5 97q0 52 -23.5 79t-66.5 27q-40 0 -73.5 -38.5
t-50 -89.5t-16.5 -97q0 -52 23.5 -79t66.5 -27zM403 682q-23 0 -38 12.5t-21.5 28t-16.5 28t-24 12.5q-30 0 -46 -75h-55q29 134 109 134q23 0 38 -12.5t21.5 -27.5t16.5 -27.5t24 -12.5q29 0 46 74h55q-29 -134 -109 -134z" />
    <glyph glyph-name="uni1ED8" unicode="&#x1ed8;" horiz-adv-x="612" 
d="M537 723h-58l-46 97l-85 -97h-62l111 144h91zM281 -12q-108 0 -173 68.5t-65 180.5q0 106 38 205t114.5 167.5t174.5 68.5q107 0 172.5 -69t65.5 -180q0 -105 -38 -204.5t-115 -168t-174 -68.5zM287 87q57 0 105.5 52.5t74.5 130t26 156.5q0 71 -36 112.5t-94 41.5
q-57 0 -105.5 -52.5t-74.5 -130.5t-26 -158q0 -71 35.5 -111.5t94.5 -40.5zM280 -126q0 -25 -19 -44t-45 -19q-22 0 -36 14t-14 36q0 25 19 44t45 19q22 0 36 -14.5t14 -35.5z" />
    <glyph glyph-name="uni1ED9" unicode="&#x1ed9;" horiz-adv-x="488" 
d="M438 556h-58l-46 97l-85 -97h-62l111 144h91zM214 -12q-89 0 -138.5 52t-49.5 141q0 117 69.5 215.5t176.5 98.5q89 0 138.5 -52t49.5 -141q0 -117 -69.5 -215.5t-176.5 -98.5zM218 76q40 0 73.5 38.5t50 89.5t16.5 97q0 52 -23.5 79t-66.5 27q-40 0 -73.5 -38.5
t-50 -89.5t-16.5 -97q0 -52 23.5 -79t66.5 -27zM218 -126q0 -25 -19 -44t-45 -19q-22 0 -36 14t-14 36q0 25 19 44t45 19q22 0 36 -14.5t14 -35.5z" />
    <glyph glyph-name="uni1EDA" unicode="&#x1eda;" horiz-adv-x="612" 
d="M596 867l-166 -144h-70l142 144h94zM281 -12q-108 0 -173 68.5t-65 180.5q0 106 38 205t114.5 167.5t174.5 68.5q131 0 197 -100q43 28 54 61h-7q-16 0 -27 11t-11 30q0 22 16.5 37.5t38.5 15.5q20 0 33.5 -14t13.5 -38q0 -38 -26.5 -77t-65.5 -61q22 -53 22 -114
q0 -105 -38 -204.5t-115 -168t-174 -68.5zM287 87q57 0 105.5 52.5t74.5 130t26 156.5q0 71 -36 112.5t-94 41.5q-57 0 -105.5 -52.5t-74.5 -130.5t-26 -158q0 -71 35.5 -111.5t94.5 -40.5z" />
    <glyph glyph-name="uni1EDB" unicode="&#x1edb;" horiz-adv-x="488" 
d="M496 700l-166 -144h-70l142 144h94zM520 547q0 -37 -24.5 -73.5t-62.5 -60.5q27 -48 27 -111q0 -117 -69.5 -215.5t-176.5 -98.5q-89 0 -138.5 52t-49.5 141q0 117 69.5 215.5t176.5 98.5q87 0 137 -50q43 29 54 60h-7q-16 0 -27.5 11t-11.5 30q0 21 17 37t38 16
q20 0 34 -13.5t14 -38.5zM218 76q40 0 73.5 38.5t50 89.5t16.5 97q0 52 -23.5 79t-66.5 27q-40 0 -73.5 -38.5t-50 -89.5t-16.5 -97q0 -52 23.5 -79t66.5 -27z" />
    <glyph glyph-name="uni1EDC" unicode="&#x1edc;" horiz-adv-x="612" 
d="M281 -12q-108 0 -173 68.5t-65 180.5q0 106 38 205t114.5 167.5t174.5 68.5q131 0 197 -100q43 28 54 61h-7q-16 0 -27 11t-11 30q0 22 16.5 37.5t38.5 15.5q20 0 33.5 -14t13.5 -38q0 -38 -26.5 -77t-65.5 -61q22 -53 22 -114q0 -105 -38 -204.5t-115 -168t-174 -68.5z
M287 87q57 0 105.5 52.5t74.5 130t26 156.5q0 71 -36 112.5t-94 41.5q-57 0 -105.5 -52.5t-74.5 -130.5t-26 -158q0 -71 35.5 -111.5t94.5 -40.5zM463 723h-68l-102 144h93z" />
    <glyph glyph-name="uni1EDD" unicode="&#x1edd;" horiz-adv-x="488" 
d="M520 547q0 -37 -24.5 -73.5t-62.5 -60.5q27 -48 27 -111q0 -117 -69.5 -215.5t-176.5 -98.5q-89 0 -138.5 52t-49.5 141q0 117 69.5 215.5t176.5 98.5q87 0 137 -50q43 29 54 60h-7q-16 0 -27.5 11t-11.5 30q0 21 17 37t38 16q20 0 34 -13.5t14 -38.5zM218 76
q40 0 73.5 38.5t50 89.5t16.5 97q0 52 -23.5 79t-66.5 27q-40 0 -73.5 -38.5t-50 -89.5t-16.5 -97q0 -52 23.5 -79t66.5 -27zM364 556h-68l-102 144h93z" />
    <glyph glyph-name="uni1EDE" unicode="&#x1ede;" horiz-adv-x="612" 
d="M281 -12q-108 0 -173 68.5t-65 180.5q0 106 38 205t114.5 167.5t174.5 68.5q131 0 197 -100q43 28 54 61h-7q-16 0 -27 11t-11 30q0 22 16.5 37.5t38.5 15.5q20 0 33.5 -14t13.5 -38q0 -38 -26.5 -77t-65.5 -61q22 -53 22 -114q0 -105 -38 -204.5t-115 -168t-174 -68.5z
M287 87q57 0 105.5 52.5t74.5 130t26 156.5q0 71 -36 112.5t-94 41.5q-57 0 -105.5 -52.5t-74.5 -130.5t-26 -158q0 -71 35.5 -111.5t94.5 -40.5zM389 759l-35 15q24 46 71 46q27 0 44.5 -14.5t17.5 -41.5q0 -36 -29 -67h-47q33 30 33 60q1 12 -5.5 19t-17.5 7
q-19 0 -32 -24z" />
    <glyph glyph-name="uni1EDF" unicode="&#x1edf;" horiz-adv-x="488" 
d="M520 547q0 -37 -24.5 -73.5t-62.5 -60.5q27 -48 27 -111q0 -117 -69.5 -215.5t-176.5 -98.5q-89 0 -138.5 52t-49.5 141q0 117 69.5 215.5t176.5 98.5q87 0 137 -50q43 29 54 60h-7q-16 0 -27.5 11t-11.5 30q0 21 17 37t38 16q20 0 34 -13.5t14 -38.5zM218 76
q40 0 73.5 38.5t50 89.5t16.5 97q0 52 -23.5 79t-66.5 27q-40 0 -73.5 -38.5t-50 -89.5t-16.5 -97q0 -52 23.5 -79t66.5 -27zM290 589l-35 15q24 46 71 46q27 0 44.5 -14.5t17.5 -41.5q0 -36 -29 -67h-47q33 30 33 60q1 12 -5.5 19t-17.5 7q-19 0 -32 -24z" />
    <glyph glyph-name="uni1EE0" unicode="&#x1ee0;" horiz-adv-x="612" 
d="M281 -12q-108 0 -173 68.5t-65 180.5q0 106 38 205t114.5 167.5t174.5 68.5q131 0 197 -100q43 28 54 61h-7q-16 0 -27 11t-11 30q0 22 16.5 37.5t38.5 15.5q20 0 33.5 -14t13.5 -38q0 -38 -26.5 -77t-65.5 -61q22 -53 22 -114q0 -105 -38 -204.5t-115 -168t-174 -68.5z
M287 87q57 0 105.5 52.5t74.5 130t26 156.5q0 71 -36 112.5t-94 41.5q-57 0 -105.5 -52.5t-74.5 -130.5t-26 -158q0 -71 35.5 -111.5t94.5 -40.5zM474 721q-23 0 -38 12.5t-21.5 28t-16.5 28t-24 12.5q-30 0 -46 -75h-55q29 134 109 134q23 0 38 -12.5t21.5 -27.5
t16.5 -27.5t24 -12.5q29 0 46 74h55q-29 -134 -109 -134z" />
    <glyph glyph-name="uni1EE1" unicode="&#x1ee1;" horiz-adv-x="488" 
d="M520 547q0 -37 -24.5 -73.5t-62.5 -60.5q27 -48 27 -111q0 -117 -69.5 -215.5t-176.5 -98.5q-89 0 -138.5 52t-49.5 141q0 117 69.5 215.5t176.5 98.5q87 0 137 -50q43 29 54 60h-7q-16 0 -27.5 11t-11.5 30q0 21 17 37t38 16q20 0 34 -13.5t14 -38.5zM218 76
q40 0 73.5 38.5t50 89.5t16.5 97q0 52 -23.5 79t-66.5 27q-40 0 -73.5 -38.5t-50 -89.5t-16.5 -97q0 -52 23.5 -79t66.5 -27zM348 554q-23 0 -38 12.5t-21.5 28t-16.5 28t-24 12.5q-30 0 -46 -75h-55q29 134 109 134q23 0 38 -12.5t21.5 -27.5t16.5 -27.5t24 -12.5
q29 0 46 74h55q-29 -134 -109 -134z" />
    <glyph glyph-name="uni1EE2" unicode="&#x1ee2;" horiz-adv-x="612" 
d="M281 -12q-108 0 -173 68.5t-65 180.5q0 106 38 205t114.5 167.5t174.5 68.5q131 0 197 -100q43 28 54 61h-7q-16 0 -27 11t-11 30q0 22 16.5 37.5t38.5 15.5q20 0 33.5 -14t13.5 -38q0 -38 -26.5 -77t-65.5 -61q22 -53 22 -114q0 -105 -38 -204.5t-115 -168t-174 -68.5z
M287 87q57 0 105.5 52.5t74.5 130t26 156.5q0 71 -36 112.5t-94 41.5q-57 0 -105.5 -52.5t-74.5 -130.5t-26 -158q0 -71 35.5 -111.5t94.5 -40.5zM280 -126q0 -25 -19 -44t-45 -19q-22 0 -36 14t-14 36q0 25 19 44t45 19q22 0 36 -14.5t14 -35.5z" />
    <glyph glyph-name="uni1EE3" unicode="&#x1ee3;" horiz-adv-x="488" 
d="M520 547q0 -37 -24.5 -73.5t-62.5 -60.5q27 -48 27 -111q0 -117 -69.5 -215.5t-176.5 -98.5q-89 0 -138.5 52t-49.5 141q0 117 69.5 215.5t176.5 98.5q87 0 137 -50q43 29 54 60h-7q-16 0 -27.5 11t-11.5 30q0 21 17 37t38 16q20 0 34 -13.5t14 -38.5zM218 76
q40 0 73.5 38.5t50 89.5t16.5 97q0 52 -23.5 79t-66.5 27q-40 0 -73.5 -38.5t-50 -89.5t-16.5 -97q0 -52 23.5 -79t66.5 -27zM218 -126q0 -25 -19 -44t-45 -19q-22 0 -36 14t-14 36q0 25 19 44t45 19q22 0 36 -14.5t14 -35.5z" />
    <glyph glyph-name="uni1EE4" unicode="&#x1ee4;" horiz-adv-x="592" 
d="M272 -12q-100 0 -158.5 52t-58.5 140q0 26 5 46l97 441h111l-98 -444q-3 -21 -3 -35q0 -46 29 -74t80 -28q56 0 88.5 34t47.5 103l98 444h111l-98 -443q-52 -236 -251 -236zM268 -126q0 -25 -19 -44t-45 -19q-22 0 -36 14t-14 36q0 25 19 44t45 19q22 0 36 -14.5
t14 -35.5z" />
    <glyph glyph-name="uni1EE5" unicode="&#x1ee5;" horiz-adv-x="485" 
d="M112 483h100l-73 -328q-4 -18 -4 -27q0 -52 62 -52q55 0 107 68l75 339h100l-107 -483h-100l15 64q-68 -76 -143 -76q-53 0 -84.5 27t-31.5 73q0 15 5 35zM216 -126q0 -25 -19 -44t-45 -19q-22 0 -36 14t-14 36q0 25 19 44t45 19q22 0 36 -14.5t14 -35.5z" />
    <glyph glyph-name="uni1EE6" unicode="&#x1ee6;" horiz-adv-x="592" 
d="M272 -12q-100 0 -158.5 52t-58.5 140q0 26 5 46l97 441h111l-98 -444q-3 -21 -3 -35q0 -46 29 -74t80 -28q56 0 88.5 34t47.5 103l98 444h111l-98 -443q-52 -236 -251 -236zM377 759l-35 15q24 46 71 46q27 0 44.5 -14.5t17.5 -41.5q0 -36 -29 -67h-47q33 30 33 60
q1 12 -5.5 19t-17.5 7q-19 0 -32 -24z" />
    <glyph glyph-name="uni1EE7" unicode="&#x1ee7;" horiz-adv-x="485" 
d="M112 483h100l-73 -328q-4 -18 -4 -27q0 -52 62 -52q55 0 107 68l75 339h100l-107 -483h-100l15 64q-68 -76 -143 -76q-53 0 -84.5 27t-31.5 73q0 15 5 35zM289 589l-35 15q24 46 71 46q27 0 44.5 -14.5t17.5 -41.5q0 -36 -29 -67h-47q33 30 33 60q1 12 -5.5 19t-17.5 7
q-19 0 -32 -24z" />
    <glyph glyph-name="uni1EE8" unicode="&#x1ee8;" horiz-adv-x="592" 
d="M584 867l-166 -144h-70l142 144h94zM733 743q0 -46 -37 -90t-93 -66l-80 -363q-52 -236 -251 -236q-100 0 -158.5 52t-58.5 140q0 26 5 46l97 441h111l-98 -444q-3 -21 -3 -35q0 -46 29 -74t80 -28q56 0 88.5 34t47.5 103l98 444h111l-7 -31q49 29 62 66q-1 -1 -7 -1
q-16 0 -27.5 11.5t-11.5 29.5q0 22 16.5 37.5t38.5 15.5q21 0 34.5 -13.5t13.5 -38.5z" />
    <glyph glyph-name="uni1EE9" unicode="&#x1ee9;" horiz-adv-x="485" 
d="M495 700l-166 -144h-70l142 144h94zM568 556q0 -41 -29 -80.5t-76 -64.5l-91 -411h-100l15 64q-68 -76 -143 -76q-53 0 -84.5 27t-31.5 73q0 22 5 35l79 360h99l-73 -329q-3 -24 -3 -26q0 -52 62 -52q52 0 107 67l75 340h100l-4 -15q27 22 36 46h-7q-16 0 -27.5 11.5
t-11.5 29.5q0 22 16.5 37.5t38.5 15.5q20 0 34 -14t14 -38z" />
    <glyph glyph-name="uni1EEA" unicode="&#x1eea;" horiz-adv-x="592" 
d="M451 723h-68l-102 144h93zM733 743q0 -46 -37 -90t-93 -66l-80 -363q-52 -236 -251 -236q-100 0 -158.5 52t-58.5 140q0 26 5 46l97 441h111l-98 -444q-3 -21 -3 -35q0 -46 29 -74t80 -28q56 0 88.5 34t47.5 103l98 444h111l-7 -31q49 29 62 66q-1 -1 -7 -1
q-16 0 -27.5 11.5t-11.5 29.5q0 22 16.5 37.5t38.5 15.5q21 0 34.5 -13.5t13.5 -38.5z" />
    <glyph glyph-name="uni1EEB" unicode="&#x1eeb;" horiz-adv-x="485" 
d="M363 556h-68l-102 144h93zM568 556q0 -41 -29 -80.5t-76 -64.5l-91 -411h-100l15 64q-68 -76 -143 -76q-53 0 -84.5 27t-31.5 73q0 22 5 35l79 360h99l-73 -329q-3 -24 -3 -26q0 -52 62 -52q52 0 107 67l75 340h100l-4 -15q27 22 36 46h-7q-16 0 -27.5 11.5t-11.5 29.5
q0 22 16.5 37.5t38.5 15.5q20 0 34 -14t14 -38z" />
    <glyph glyph-name="uni1EEC" unicode="&#x1eec;" horiz-adv-x="592" 
d="M377 759l-35 15q24 46 71 46q27 0 44.5 -14.5t17.5 -41.5q0 -36 -29 -67h-47q33 30 33 60q1 12 -5.5 19t-17.5 7q-19 0 -32 -24zM733 743q0 -46 -37 -90t-93 -66l-80 -363q-52 -236 -251 -236q-100 0 -158.5 52t-58.5 140q0 26 5 46l97 441h111l-98 -444q-3 -21 -3 -35
q0 -46 29 -74t80 -28q56 0 88.5 34t47.5 103l98 444h111l-7 -31q49 29 62 66q-1 -1 -7 -1q-16 0 -27.5 11.5t-11.5 29.5q0 22 16.5 37.5t38.5 15.5q21 0 34.5 -13.5t13.5 -38.5z" />
    <glyph glyph-name="uni1EED" unicode="&#x1eed;" horiz-adv-x="485" 
d="M289 589l-35 15q24 46 71 46q27 0 44.5 -14.5t17.5 -41.5q0 -36 -29 -67h-47q33 30 33 60q1 12 -5.5 19t-17.5 7q-19 0 -32 -24zM568 556q0 -41 -29 -80.5t-76 -64.5l-91 -411h-100l15 64q-68 -76 -143 -76q-53 0 -84.5 27t-31.5 73q0 22 5 35l79 360h99l-73 -329
q-3 -24 -3 -26q0 -52 62 -52q52 0 107 67l75 340h100l-4 -15q27 22 36 46h-7q-16 0 -27.5 11.5t-11.5 29.5q0 22 16.5 37.5t38.5 15.5q20 0 34 -14t14 -38z" />
    <glyph glyph-name="uni1EEE" unicode="&#x1eee;" horiz-adv-x="592" 
d="M733 743q0 -46 -37 -90t-93 -66l-80 -363q-52 -236 -251 -236q-100 0 -158.5 52t-58.5 140q0 26 5 46l97 441h111l-98 -444q-3 -21 -3 -35q0 -46 29 -74t80 -28q56 0 88.5 34t47.5 103l98 444h111l-7 -31q49 29 62 66q-1 -1 -7 -1q-16 0 -27.5 11.5t-11.5 29.5
q0 22 16.5 37.5t38.5 15.5q21 0 34.5 -13.5t13.5 -38.5zM462 721q-23 0 -38 12.5t-21.5 28t-16.5 28t-24 12.5q-30 0 -46 -75h-55q29 134 109 134q23 0 38 -12.5t21.5 -27.5t16.5 -27.5t24 -12.5q29 0 46 74h55q-29 -134 -109 -134z" />
    <glyph glyph-name="uni1EEF" unicode="&#x1eef;" horiz-adv-x="485" 
d="M568 556q0 -41 -29 -80.5t-76 -64.5l-91 -411h-100l15 64q-68 -76 -143 -76q-53 0 -84.5 27t-31.5 73q0 22 5 35l79 360h99l-73 -329q-3 -24 -3 -26q0 -52 62 -52q52 0 107 67l75 340h100l-4 -15q27 22 36 46h-7q-16 0 -27.5 11.5t-11.5 29.5q0 22 16.5 37.5t38.5 15.5
q20 0 34 -14t14 -38zM363 554q-23 0 -38 12.5t-21.5 28t-16.5 28t-24 12.5q-30 0 -46 -75h-55q29 134 109 134q23 0 38 -12.5t21.5 -27.5t16.5 -27.5t24 -12.5q29 0 46 74h55q-29 -134 -109 -134z" />
    <glyph glyph-name="uni1EF0" unicode="&#x1ef0;" horiz-adv-x="592" 
d="M268 -126q0 -25 -19 -44t-45 -19q-22 0 -36 14t-14 36q0 25 19 44t45 19q22 0 36 -14.5t14 -35.5zM733 743q0 -46 -37 -90t-93 -66l-80 -363q-52 -236 -251 -236q-100 0 -158.5 52t-58.5 140q0 26 5 46l97 441h111l-98 -444q-3 -21 -3 -35q0 -46 29 -74t80 -28
q56 0 88.5 34t47.5 103l98 444h111l-7 -31q49 29 62 66q-1 -1 -7 -1q-16 0 -27.5 11.5t-11.5 29.5q0 22 16.5 37.5t38.5 15.5q21 0 34.5 -13.5t13.5 -38.5z" />
    <glyph glyph-name="uni1EF1" unicode="&#x1ef1;" horiz-adv-x="485" 
d="M216 -126q0 -25 -19 -44t-45 -19q-22 0 -36 14t-14 36q0 25 19 44t45 19q22 0 36 -14.5t14 -35.5zM568 556q0 -41 -29 -80.5t-76 -64.5l-91 -411h-100l15 64q-68 -76 -143 -76q-53 0 -84.5 27t-31.5 73q0 22 5 35l79 360h99l-73 -329q-3 -24 -3 -26q0 -52 62 -52
q52 0 107 67l75 340h100l-4 -15q27 22 36 46h-7q-16 0 -27.5 11.5t-11.5 29.5q0 22 16.5 37.5t38.5 15.5q20 0 34 -14t14 -38z" />
    <glyph glyph-name="Ygrave" unicode="&#x1ef2;" horiz-adv-x="521" 
d="M262 0h-110l61 278l-121 389h117l76 -285l202 285h128l-292 -389zM418 723h-68l-102 144h93z" />
    <glyph glyph-name="ygrave" unicode="&#x1ef3;" horiz-adv-x="430" 
d="M-52 -185l33 85q10 -7 36 -7q30 0 54 39l35 61l-51 490h103l26 -363l189 363h109l-318 -574q-33 -58 -67 -81.5t-82 -23.5q-38 0 -67 11zM333 556h-68l-102 144h93z" />
    <glyph glyph-name="thinspace" unicode="&#x2009;" horiz-adv-x="42" 
 />
    <glyph glyph-name="endash" unicode="&#x2013;" horiz-adv-x="527" 
d="M486 199h-466l19 86h466z" />
    <glyph glyph-name="emdash" unicode="&#x2014;" horiz-adv-x="737" 
d="M696 199h-676l19 86h676z" />
    <glyph glyph-name="afii00208" unicode="&#x2015;" horiz-adv-x="527" 
d="M486 199h-466l19 86h466z" />
    <glyph glyph-name="quoteleft" unicode="&#x2018;" horiz-adv-x="243" 
d="M104 498q0 51 37.5 101.5t92.5 77.5l38 -39q-29 -14 -55 -37t-36 -47q2 1 9 1q22 0 37 -15t15 -40q0 -29 -22.5 -50t-51.5 -21q-27 0 -45.5 18t-18.5 51z" />
    <glyph glyph-name="quoteright" unicode="&#x2019;" horiz-adv-x="243" 
d="M273 608q0 -51 -38 -101.5t-93 -78.5l-37 39q29 15 55 38t35 46h-9q-21 0 -36 14.5t-15 39.5q0 29 22.5 50.5t50.5 21.5q27 0 46 -18.5t19 -50.5z" />
    <glyph glyph-name="quotesinglbase" unicode="&#x201a;" horiz-adv-x="243" 
d="M150 55q0 -51 -37.5 -102t-92.5 -79l-38 40q29 14 55 37t36 47q-2 -1 -10 -1q-21 0 -36 15t-15 40q0 29 22.5 50.5t50.5 21.5t46.5 -18.5t18.5 -50.5z" />
    <glyph glyph-name="quotereversed" unicode="&#x201b;" horiz-adv-x="243" 
d="M126 561q0 55 27.5 85.5t60.5 30.5q28 0 45 -17t17 -41q0 -29 -20.5 -48t-49.5 -19q-13 0 -25 4q-1 -25 12.5 -54.5t36.5 -50.5l-45 -28q-59 60 -59 138z" />
    <glyph glyph-name="quotedblleft" unicode="&#x201c;" horiz-adv-x="423" 
d="M286 498q0 51 37.5 101.5t92.5 77.5l38 -39q-29 -14 -55 -37t-36 -47q2 1 10 1q21 0 36 -15t15 -40q0 -29 -22.5 -50t-50.5 -21t-46.5 18t-18.5 51zM107 498q0 51 37.5 101.5t92.5 77.5l37 -39q-29 -14 -55 -37t-35 -47q2 1 9 1q22 0 37 -15t15 -40q0 -29 -22.5 -50
t-51.5 -21q-27 0 -45.5 18t-18.5 51z" />
    <glyph glyph-name="quotedblright" unicode="&#x201d;" horiz-adv-x="423" 
d="M273 608q0 -51 -38 -101.5t-93 -78.5l-37 39q29 15 55 38t35 46h-9q-21 0 -36 14.5t-15 39.5q0 29 22.5 50.5t50.5 21.5q27 0 46 -18.5t19 -50.5zM452 608q0 -51 -37.5 -101.5t-92.5 -78.5l-37 39q29 15 55 38t35 46h-9q-22 0 -37 14.5t-15 39.5q0 29 22.5 50.5
t50.5 21.5t46.5 -18.5t18.5 -50.5z" />
    <glyph glyph-name="quotedblbase" unicode="&#x201e;" horiz-adv-x="423" 
d="M150 55q0 -51 -37.5 -102t-92.5 -79l-38 40q29 14 55 37t36 47q-2 -1 -10 -1q-21 0 -36 15t-15 40q0 29 22.5 50.5t50.5 21.5t46.5 -18.5t18.5 -50.5zM329 55q0 -52 -37.5 -102.5t-92.5 -78.5l-37 40q29 14 55 37t35 47q-1 -1 -9 -1q-22 0 -37 15t-15 40q0 29 22.5 50.5
t51.5 21.5q27 0 45.5 -18.5t18.5 -50.5z" />
    <glyph glyph-name="dagger" unicode="&#x2020;" horiz-adv-x="270" 
d="M311 527l-88 4l-42 -204h-57l50 204l-90 -4l11 52l89 -3l18 101h57l-27 -101l90 3z" />
    <glyph glyph-name="daggerdbl" unicode="&#x2021;" horiz-adv-x="270" 
d="M322 579l-11 -52l-88 4l-46 -204l90 4l-11 -52l-88 3l-20 -102h-57l27 102l-89 -3l11 52l88 -4l45 204l-89 -4l11 52l88 -3l19 101h57l-27 -101z" />
    <glyph glyph-name="bullet" unicode="&#x2022;" horiz-adv-x="358" 
d="M293 253q0 -50 -37.5 -86.5t-88.5 -36.5q-43 0 -72.5 29t-29.5 73q0 50 37.5 86.5t88.5 36.5q43 0 72.5 -29.5t29.5 -72.5z" />
    <glyph glyph-name="ellipsis" unicode="&#x2026;" horiz-adv-x="726" 
d="M73 -11q-25 0 -43 18t-18 44q0 30 22 51.5t52 21.5q25 0 43 -18t18 -44q0 -30 -22 -51.5t-52 -21.5zM315 -11q-25 0 -43 18t-18 44q0 30 22 51.5t52 21.5q25 0 43 -18t18 -44q0 -30 -22 -51.5t-52 -21.5zM557 -11q-25 0 -43 18t-18 44q0 30 22 51.5t52 21.5q25 0 43 -18
t18 -44q0 -30 -22 -51.5t-52 -21.5z" />
    <glyph glyph-name="perthousand" unicode="&#x2030;" horiz-adv-x="980" 
d="M131 0h-56l498 667h57zM454 -12q-59 0 -96 36.5t-37 93.5q0 85 50 143t117 58q58 0 95.5 -37t37.5 -93q0 -85 -50.5 -143t-116.5 -58zM457 52q36 0 63.5 38t27.5 92q0 34 -17 53.5t-46 19.5q-36 0 -64 -38t-28 -92q0 -34 17.5 -53.5t46.5 -19.5zM214 347
q-59 0 -95.5 36.5t-36.5 93.5q0 85 49.5 142.5t116.5 57.5q59 0 95.5 -36.5t36.5 -93.5q0 -85 -49.5 -142.5t-116.5 -57.5zM217 410q36 0 64 38t28 93q0 33 -17.5 52.5t-46.5 19.5q-36 0 -64 -37.5t-28 -92.5q0 -34 17.5 -53.5t46.5 -19.5zM771 -12q-58 0 -95.5 37t-37.5 93
q0 85 50.5 143t116.5 58q59 0 96 -36.5t37 -93.5q0 -85 -50 -143t-117 -58zM774 52q36 0 64 38t28 92q0 34 -17.5 53.5t-46.5 19.5q-36 0 -63.5 -38t-27.5 -92q0 -34 17 -53.5t46 -19.5z" />
    <glyph glyph-name="guilsinglleft" unicode="&#x2039;" horiz-adv-x="272" 
d="M198 63h-84l-85 180l165 177h90l-168 -181z" />
    <glyph glyph-name="guilsinglright" unicode="&#x203a;" horiz-adv-x="272" 
d="M75 420h84l85 -180l-165 -177h-90l169 182z" />
    <glyph glyph-name="uni203E" unicode="&#x203e;" horiz-adv-x="309" 
d="M379 567h-307l13 60h307z" />
    <glyph glyph-name="fraction" unicode="&#x2044;" horiz-adv-x="138" 
d="M366 667l-499 -667h-57l499 667h57z" />
    <glyph glyph-name="zerosuperior" unicode="&#x2070;" horiz-adv-x="337" 
d="M397 682q0 -54 -17.5 -112.5t-61.5 -107t-104 -48.5t-93 38t-33 107q0 54 17.5 112.5t61.5 107t104 48.5t93 -38t33 -107zM321 690q0 75 -54 75q-33 0 -58 -41.5t-35 -89t-10 -83.5q0 -75 53 -75q25 0 46 24t33 59.5t18.5 70t6.5 60.5z" />
    <glyph glyph-name="foursuperior" unicode="&#x2074;" horiz-adv-x="337" 
d="M366 515h-45l-20 -94h-76l20 94h-171l13 57l202 249h100l-54 -245h44zM258 576l37 166l-135 -166h98z" />
    <glyph glyph-name="fivesuperior" unicode="&#x2075;" horiz-adv-x="337" 
d="M370 576q0 -67 -43 -114.5t-111 -47.5q-102 0 -143 71l56 43q25 -52 85 -52q34 0 55.5 27t21.5 62q0 26 -16.5 40.5t-42.5 14.5q-41 0 -72 -35l-51 18l48 218h246l-14 -62h-169l-24 -112q30 30 72 30q43 0 72.5 -27t29.5 -74z" />
    <glyph glyph-name="sixsuperior" unicode="&#x2076;" horiz-adv-x="337" 
d="M373 575q0 -63 -41 -112t-109 -49q-64 0 -99 36.5t-35 101.5q0 64 23.5 126t69.5 105.5t104 43.5q77 0 116 -50l-47 -49q-21 37 -71 37q-45 0 -73 -42t-36 -89q0 -2 -0.5 -4.5t-0.5 -3.5q39 55 95 55q45 0 74.5 -27.5t29.5 -78.5zM295 565q0 27 -16.5 41t-43.5 14
q-37 0 -69 -46q-3 -14 -3 -31q0 -29 15.5 -48t43.5 -19q32 0 52.5 28.5t20.5 60.5z" />
    <glyph glyph-name="sevensuperior" unicode="&#x2077;" horiz-adv-x="311" 
d="M394 768l-210 -347h-81l209 338h-186l14 62h265z" />
    <glyph glyph-name="eightsuperior" unicode="&#x2078;" horiz-adv-x="337" 
d="M364 531q0 -51 -38 -84t-103 -33q-63 0 -105.5 26t-42.5 75q0 43 32.5 76.5t79.5 41.5q-60 25 -60 81q0 53 40.5 83t95.5 30t97 -24.5t42 -72.5q0 -40 -27 -70.5t-75 -39.5q26 -11 45 -35t19 -54zM323 721q0 22 -16.5 34t-41.5 12q-28 0 -46.5 -18t-18.5 -44
q0 -21 17 -35t33 -19q73 15 73 70zM288 538q0 22 -15.5 39t-34.5 23q-34 -4 -58.5 -25.5t-24.5 -51.5q0 -22 18.5 -36t44.5 -14q30 0 50 18.5t20 46.5z" />
    <glyph glyph-name="ninesuperior" unicode="&#x2079;" horiz-adv-x="337" 
d="M114 667q0 63 40.5 112t109.5 49q63 0 98 -36.5t35 -101.5q0 -64 -23 -126t-69.5 -105.5t-104.5 -43.5q-76 0 -115 50l47 49q21 -37 70 -37q45 0 73.5 43t35.5 89q1 2 1 7q-39 -55 -95 -55q-44 0 -73.5 27.5t-29.5 78.5zM192 677q0 -27 16.5 -41t42.5 -14q37 0 69 46
q4 18 4 31q0 29 -16 48t-44 19q-31 0 -51.5 -28.5t-20.5 -60.5z" />
    <glyph glyph-name="parenleftsuperior" unicode="&#x207d;" horiz-adv-x="164" 
d="M180 374l-47 -18q-37 70 -37 169q0 195 154 361l39 -18q-125 -180 -125 -371q0 -72 16 -123z" />
    <glyph glyph-name="parenrightsuperior" unicode="&#x207e;" horiz-adv-x="164" 
d="M153 868l48 18q36 -70 36 -168q0 -100 -41.5 -193.5t-112.5 -168.5l-39 18q126 184 126 371q0 73 -17 123z" />
    <glyph glyph-name="nsuperior" unicode="&#x207f;" horiz-adv-x="353" 
d="M321 326h-74l46 207q2 10 2 18q0 35 -41 35q-34 0 -70 -45l-47 -215h-74l69 314h74l-9 -41q41 49 95 49q39 0 61 -18t22 -50q0 -9 -4 -27z" />
    <glyph glyph-name="zeroinferior" unicode="&#x2080;" horiz-adv-x="337" 
d="M281 115q0 -54 -17.5 -112.5t-61.5 -107t-104 -48.5t-93 38t-33 107q0 54 17.5 112.5t61.5 107t104 48.5t93 -38t33 -107zM205 123q0 75 -54 75q-33 0 -58 -41.5t-35 -89t-10 -83.5q0 -75 53 -75q25 0 46 24t33 59.5t18.5 70t6.5 60.5z" />
    <glyph glyph-name="oneinferior" unicode="&#x2081;" horiz-adv-x="248" 
d="M108 -146h-77l65 297l-73 -61l-36 47l143 117h66z" />
    <glyph glyph-name="twoinferior" unicode="&#x2082;" horiz-adv-x="337" 
d="M221 -146h-269l14 61q145 106 192.5 150.5t47.5 82.5q0 24 -17 37t-44 13q-56 0 -94 -46l-36 51q55 57 134 57q58 0 96.5 -27.5t38.5 -77.5q0 -52 -47.5 -101t-165.5 -138h163z" />
    <glyph glyph-name="threeinferior" unicode="&#x2083;" horiz-adv-x="337" 
d="M248 -29q0 -47 -39 -85.5t-102 -38.5q-51 0 -90.5 19t-57.5 53l54 44q28 -54 90 -54q32 0 50.5 21.5t18.5 50.5q0 23 -19 35t-51 12q-24 0 -30 -1l14 62q8 -1 47 -1q33 0 52.5 17t19.5 46q0 22 -18.5 34.5t-47.5 12.5q-49 0 -89 -40l-33 46q54 56 129 56q62 0 99.5 -26
t37.5 -73q0 -39 -27.5 -70.5t-73.5 -36.5q30 -8 48 -30t18 -53z" />
    <glyph glyph-name="fourinferior" unicode="&#x2084;" horiz-adv-x="337" 
d="M250 -52h-45l-20 -94h-76l20 94h-171l13 57l202 249h100l-54 -245h44zM142 9l37 166l-135 -166h98z" />
    <glyph glyph-name="fiveinferior" unicode="&#x2085;" horiz-adv-x="337" 
d="M254 9q0 -67 -43 -114.5t-111 -47.5q-102 0 -143 71l56 43q25 -52 85 -52q34 0 55.5 27t21.5 62q0 26 -16.5 40.5t-42.5 14.5q-41 0 -72 -35l-51 18l48 218h246l-14 -62h-169l-24 -112q30 30 72 30q43 0 72.5 -27t29.5 -74z" />
    <glyph glyph-name="sixinferior" unicode="&#x2086;" horiz-adv-x="337" 
d="M257 8q0 -63 -41 -112t-109 -49q-64 0 -99 36.5t-35 101.5q0 64 23.5 126t69.5 105.5t104 43.5q77 0 116 -50l-47 -49q-21 37 -71 37q-45 0 -73 -42t-36 -89q0 -2 -0.5 -4.5t-0.5 -3.5q39 55 95 55q45 0 74.5 -27.5t29.5 -78.5zM179 -2q0 27 -16.5 41t-43.5 14
q-37 0 -69 -46q-3 -13 -3 -31q0 -29 15.5 -48t43.5 -19q32 0 52.5 28.5t20.5 60.5z" />
    <glyph glyph-name="seveninferior" unicode="&#x2087;" horiz-adv-x="311" 
d="M278 201l-210 -347h-81l209 338h-186l14 62h265z" />
    <glyph glyph-name="eightinferior" unicode="&#x2088;" horiz-adv-x="337" 
d="M248 -36q0 -51 -38 -84t-103 -33q-63 0 -105.5 26t-42.5 75q0 43 32.5 76.5t79.5 41.5q-60 25 -60 81q0 53 40.5 83t95.5 30t97 -24.5t42 -72.5q0 -40 -27 -70.5t-75 -39.5q26 -11 45 -35t19 -54zM207 154q0 22 -16.5 34t-41.5 12q-28 0 -46.5 -18t-18.5 -44
q0 -21 17 -35t33 -19q73 15 73 70zM172 -29q0 22 -15.5 39t-34.5 23q-34 -4 -58.5 -25.5t-24.5 -51.5q0 -22 18.5 -36t44.5 -14q30 0 50 18.5t20 46.5z" />
    <glyph glyph-name="nineinferior" unicode="&#x2089;" horiz-adv-x="337" 
d="M-2 100q0 63 40.5 112t109.5 49q63 0 98 -36.5t35 -101.5q0 -64 -23 -126t-69.5 -105.5t-104.5 -43.5q-76 0 -115 50l47 49q21 -37 70 -37q45 0 73.5 43t35.5 89q1 2 1 7q-39 -55 -95 -55q-44 0 -73.5 27.5t-29.5 78.5zM76 110q0 -27 16.5 -41t42.5 -14q37 0 69 46
q4 18 4 31q0 29 -16 48t-44 19q-31 0 -51.5 -28.5t-20.5 -60.5z" />
    <glyph glyph-name="parenleftinferior" unicode="&#x208d;" horiz-adv-x="164" 
d="M55 -193l-47 -18q-37 70 -37 169q0 195 154 361l39 -18q-125 -180 -125 -371q0 -72 16 -123z" />
    <glyph glyph-name="parenrightinferior" unicode="&#x208e;" horiz-adv-x="164" 
d="M28 301l48 18q36 -71 36 -168q0 -100 -41.5 -193.5t-112.5 -168.5l-39 18q126 184 126 371q0 73 -17 123z" />
    <glyph glyph-name="colonmonetary" unicode="&#x20a1;" horiz-adv-x="541" 
d="M282 -12q-20 0 -39 3l-45 -91h-62l52 104q-22 8 -45 23l-62 -127h-62l81 165q-56 65 -56 172q0 109 39.5 209t116 166t171.5 66q9 0 29 -2l45 92h62l-51 -105q21 -8 43 -23l63 128h62l-82 -168q31 -40 46 -97l-105 -29q-1 1 -1 4l-192 -391q68 2 125 79l86 -49
q-85 -129 -219 -129zM192 127q16 -19 41 -30l217 443q-16 21 -40 31zM158 239q0 -27 4 -47l190 387q-80 -9 -137 -115t-57 -225z" />
    <glyph glyph-name="frenchfranc" unicode="&#x20a3;" horiz-adv-x="476" 
d="M133 0h-111l27 124h-63l13 60h63l107 483h365l-21 -97h-255l-40 -181h248l-22 -98h-247l-24 -107h133l-13 -60h-133z" />
    <glyph glyph-name="lira" unicode="&#x20a4;" horiz-adv-x="471" 
d="M45 331l12 55h46q-10 30 -10 63q0 94 69 161t160 67q72 0 123.5 -34.5t61.5 -95.5l-98 -36q-5 35 -27 55t-57 20q-46 0 -79.5 -43t-33.5 -106q0 -29 9 -51h138l-13 -55h-104q7 -23 7 -43q0 -4 -0.5 -10t-0.5 -9h85l-12 -55h-88q-27 -69 -83 -104q21 8 40 8q27 0 66 -16
t61 -16q43 0 76 35l20 -88q-46 -46 -110 -46q-43 0 -97.5 22t-82.5 22q-41 0 -97 -38l-20 78q47 23 82 61.5t48 81.5h-117l12 55h111q-2 25 -17 62h-80z" />
    <glyph glyph-name="uni20A6" unicode="&#x20a6;" horiz-adv-x="616" 
d="M486 0h-106l-78 237h-117l-52 -237h-111l52 237h-62l13 59h62l18 81h-62l13 60h62l51 230h112l75 -230h115l51 230h111l-51 -230h60l-12 -60h-61l-18 -81h61l-14 -59h-60zM215 377l-17 -81h85l-27 81h-41zM376 377l27 -81h37l18 81h-82z" />
    <glyph glyph-name="peseta" unicode="&#x20a7;" horiz-adv-x="565" 
d="M133 0h-111l94 429h-61l13 61h62l39 177h217q71 0 117.5 -49t46.5 -122v-6h61l-14 -61h-56q-19 -76 -79 -126.5t-159 -50.5h-115zM311 350q40 0 69.5 22t42.5 57h-197l-17 -79h102zM258 570l-18 -80h194q-2 36 -23 58t-55 22h-98z" />
    <glyph glyph-name="rupee" unicode="&#x20a8;" horiz-adv-x="891" 
d="M659 -12q-57 0 -105.5 21t-76.5 57l58 67q18 -27 53.5 -46.5t75.5 -19.5q34 0 56 20t22 47q0 24 -30.5 45.5t-66.5 37t-66.5 47.5t-30.5 76q0 64 46.5 109.5t126.5 45.5q49 0 93.5 -19.5t70.5 -51.5l-53 -64q-14 23 -46.5 39.5t-66.5 16.5t-54 -16.5t-20 -42.5
q0 -18 20.5 -34t49.5 -30t57.5 -31t49 -45.5t20.5 -64.5q0 -68 -50.5 -116t-132.5 -48zM440 0h-119l-57 252h-88l-55 -252h-111l147 667h208q73 0 123.5 -48t50.5 -123q0 -87 -48.5 -151.5t-119.5 -79.5zM197 350h104q56 0 88.5 40t32.5 96q0 38 -23 61t-56 23h-97z" />
    <glyph glyph-name="uni20A9" unicode="&#x20a9;" horiz-adv-x="761" 
d="M538 0h-116l5 237h-96l-100 -237h-116l-1 237h-95l14 59h80v81h-62l13 60h48l-1 230h117l-7 -230h107l99 230h89l-3 -230h107l95 230h121l-103 -230h46l-13 -60h-60l-36 -81h78l-13 -59h-91zM219 377l-2 -81h50l35 81h-83zM512 377l-1 -81h50l34 81h-83zM390 377l-34 -81
h73l2 81h-41zM537 237h-27l-1 -68zM242 237h-27l-2 -68zM433 479l-18 -42h17z" />
    <glyph glyph-name="afii57636" unicode="&#x20aa;" horiz-adv-x="684" 
d="M414 0h-250l86 387h86l-69 -307h146q49 0 75 27t39 87l79 356h86l-81 -362q-21 -94 -67 -141t-130 -47zM126 550h188q80 0 130.5 -34.5t50.5 -108.5q0 -23 -8 -65l-39 -180h-87l42 188q5 22 5 39q0 81 -95 81h-118l-104 -470h-86z" />
    <glyph glyph-name="dong" unicode="&#x20ab;" horiz-adv-x="502" 
d="M317 -156h-307l13 60h307zM248 495q42 0 75.5 -20.5t50.5 -58.5l25 116h-138l12 60h139l17 75h100l-17 -75h49l-13 -60h-49l-118 -532h-100l14 62q-53 -74 -126 -74q-67 0 -105.5 45.5t-38.5 128.5q0 73 24.5 147.5t77.5 130t121 55.5zM266 407q-59 0 -98 -76t-39 -153
q0 -48 23 -75t62 -27q28 0 55 19.5t44 48.5l44 196q-10 29 -35 48t-56 19z" />
    <glyph glyph-name="Euro" unicode="&#x20ac;" horiz-adv-x="565" 
d="M302 -12q-106 0 -171.5 65.5t-66.5 178.5h-47l15 64h35q4 36 14 77h-32l14 64h37q41 107 117 174t174 67q89 0 143 -49t74 -126l-105 -29q-28 106 -119 106q-49 0 -91.5 -39.5t-71.5 -103.5h194l-15 -64h-202q-10 -31 -17 -77h202l-14 -64h-191q1 -69 35.5 -107t94.5 -38
q70 0 127 79l86 -49q-85 -129 -219 -129z" />
    <glyph glyph-name="afii61289" unicode="&#x2113;" horiz-adv-x="456" 
d="M219 502l-32 -146l128 86q47 31 69 53t22 49t-21.5 43.5t-54.5 16.5q-88 0 -111 -102zM354 382l-190 -128l-28 -128q-3 -12 -3 -22q0 -16 10.5 -25t27.5 -9q18 0 33 13l8 -74q-24 -21 -70 -21q-52 0 -82.5 22t-30.5 64q0 19 4 38l88 396q37 169 217 169q69 0 116.5 -33.5
t47.5 -88.5q0 -33 -25.5 -67t-49.5 -52.5t-73 -53.5z" />
    <glyph glyph-name="afii61352" unicode="&#x2116;" horiz-adv-x="944" 
d="M800 350q-61 0 -96 36t-35 95q0 76 48.5 137.5t120.5 61.5q61 0 96 -36t35 -95q0 -75 -48.5 -137t-120.5 -62zM803 410q41 0 66 47.5t25 93.5q0 32 -15.5 50t-43.5 18q-41 0 -66 -47.5t-25 -93.5q0 -32 15.5 -50t43.5 -18zM474 0h-106l-148 452l-99 -452h-111l147 667
h112l144 -438l97 438h111z" />
    <glyph glyph-name="published" unicode="&#x2117;" horiz-adv-x="778" 
d="M754 334q0 -142 -101.5 -243.5t-244.5 -101.5q-142 0 -243 101t-101 244t101 244t243 101q143 0 244.5 -101.5t101.5 -243.5zM721 334q0 128 -92.5 220t-220.5 92t-219 -92t-91 -220t91 -219.5t219 -91.5t220.5 91.5t92.5 219.5zM593 432q0 -57 -41.5 -93.5t-104.5 -36.5
h-121l-37 -171h-41l89 405h133q52 0 87.5 -28.5t35.5 -75.5zM551 429q0 31 -23.5 50t-62.5 19h-95l-35 -159h119q43 0 70 25.5t27 64.5z" />
    </font>
</defs>
</svg>
